<svg width="14" height="14" viewBox="0 0 14 14" fill="none" xmlns="http://www.w3.org/2000/svg">
<path d="M6.99999 4.52921C5.63311 4.52921 4.52504 5.63542 4.52504 7C4.52504 8.36458 5.63311 9.4708 6.99999 9.4708C8.36687 9.4708 9.47495 8.36458 9.47495 7C9.47495 5.63542 8.36687 4.52921 6.99999 4.52921Z" fill="white"/>
<path fill-rule="evenodd" clip-rule="evenodd" d="M3.01687 0.219736C5.64269 -0.0732454 8.35731 -0.0732454 10.9831 0.219736C12.4288 0.38104 13.5949 1.5182 13.7645 2.9665C14.0785 5.64637 14.0785 8.35363 13.7645 11.0335C13.5949 12.4818 12.4288 13.619 10.9831 13.7803C8.35731 14.0732 5.6427 14.0732 3.01687 13.7803C1.57119 13.619 0.405149 12.4818 0.235472 11.0335C-0.0784905 8.35363 -0.0784905 5.64637 0.235472 2.9665C0.405149 1.5182 1.57119 0.38104 3.01687 0.219736ZM10.8076 2.43853C10.387 2.43853 10.0461 2.77891 10.0461 3.19878C10.0461 3.61865 10.387 3.95902 10.8076 3.95902C11.2282 3.95902 11.5691 3.61865 11.5691 3.19878C11.5691 2.77891 11.2282 2.43853 10.8076 2.43853ZM3.38275 7C3.38275 5.00561 5.00224 3.38884 6.99999 3.38884C8.99774 3.38884 10.6172 5.00561 10.6172 7C10.6172 8.99439 8.99774 10.6112 6.99999 10.6112C5.00224 10.6112 3.38275 8.99439 3.38275 7Z" fill="white"/>
</svg>
