<svg width="59" height="62" viewBox="0 0 59 62" fill="none" xmlns="http://www.w3.org/2000/svg">
<path d="M29.5 0C21.6166 0 15.2258 6.31673 15.2258 14.1088C15.2258 21.9009 21.6166 28.2176 29.5 28.2176C37.3834 28.2176 43.7742 21.9009 43.7742 14.1088C43.7742 6.31673 37.3834 0 29.5 0Z" fill="#00B3DB" fill-opacity="0.1"/>
<path d="M14.2742 35.7423C6.39077 35.7423 0 42.0591 0 49.8512V54.3219C0 57.1558 2.07788 59.5721 4.90755 60.0288C21.1947 62.6571 37.8053 62.6571 54.0924 60.0288C56.9221 59.5721 59 57.1558 59 54.3219V49.8512C59 42.0591 52.6092 35.7423 44.7258 35.7423H43.4283C42.726 35.7423 42.0282 35.8521 41.3606 36.0676L38.0661 37.1309C32.5 38.9273 26.5 38.9273 20.9339 37.1309L17.6394 36.0676C16.9718 35.8521 16.274 35.7423 15.5717 35.7423H14.2742Z" fill="#00B3DB" fill-opacity="0.1"/>
</svg>
