<svg width="33" height="32" viewBox="0 0 33 32" fill="none" xmlns="http://www.w3.org/2000/svg">
<path fill-rule="evenodd" clip-rule="evenodd" d="M28.2857 32H6C2.68629 32 0 29.2612 0 25.8827V3.06212C0 1.19626 1.81001 0.0133532 3.40268 0.577109C3.63021 0.657645 3.8533 0.773828 4.06604 0.928758L4.36612 1.14729C5.85416 2.23095 7.86671 2.22616 9.35894 1.13944C11.4451 -0.379815 14.2692 -0.379815 16.3553 1.13944C17.8476 2.22616 19.8601 2.23095 21.3482 1.14729L21.6482 0.928758C23.3502 -0.310681 25.7143 0.929705 25.7143 3.06212V16.2698H31.7143C32.4244 16.2698 33 16.8567 33 17.5807V27.1936C33 29.8481 30.8893 32 28.2857 32ZM26.1429 18.8915V27.1936C26.1429 28.4002 27.1022 29.3783 28.2857 29.3783C29.4692 29.3783 30.4286 28.4002 30.4286 27.1936V18.8915H26.1429ZM18.8571 11.4634C18.8571 10.7395 18.2815 10.1526 17.5714 10.1526H7.28571C6.57563 10.1526 6 10.7395 6 11.4634C6 12.1874 6.57563 12.7743 7.28571 12.7743H17.5714C18.2815 12.7743 18.8571 12.1874 18.8571 11.4634ZM17.1429 16.7068C17.1429 15.9828 16.5672 15.3959 15.8571 15.3959H7.28571C6.57563 15.3959 6 15.9828 6 16.7068C6 17.4308 6.57563 18.0176 7.28571 18.0176H15.8571C16.5672 18.0176 17.1429 17.4308 17.1429 16.7068ZM17.5714 20.6393C18.2815 20.6393 18.8571 21.2262 18.8571 21.9502C18.8571 22.6741 18.2815 23.261 17.5714 23.261H7.28571C6.57563 23.261 6 22.6741 6 21.9502C6 21.2262 6.57563 20.6393 7.28571 20.6393H17.5714Z" fill="#E6F8FC"/>
</svg>
