<?xml version="1.0" encoding="UTF-8"?>
<!DOCTYPE svg PUBLIC "-//W3C//DTD SVG 1.1//EN" "http://www.w3.org/Graphics/SVG/1.1/DTD/svg11.dtd">
<!-- Creator: CorelDRAW 2020 (64-Bit) -->
<svg xmlns="http://www.w3.org/2000/svg" xml:space="preserve" width="148.5mm" height="105mm" version="1.1" style="shape-rendering:geometricPrecision; text-rendering:geometricPrecision; image-rendering:optimizeQuality; fill-rule:evenodd; clip-rule:evenodd"
viewBox="0 0 14850 10500"
 xmlns:xlink="http://www.w3.org/1999/xlink"
 xmlns:xodm="http://www.corel.com/coreldraw/odm/2003">
 <defs>
  <style type="text/css">
   <![CDATA[
    .fil2 {fill:#FEFEFE;fill-rule:nonzero}
    .fil0 {fill:#2B2A29;fill-rule:nonzero}
    .fil3 {fill:#FECC00;fill-rule:nonzero}
    .fil1 {fill:#DE202A;fill-rule:nonzero}
   ]]>
  </style>
 </defs>
 <g id="Слой_x0020_1">
  <metadata id="CorelCorpID_0Corel-Layer"/>
  <g id="_2162846137328">
   <path class="fil0" d="M9395.18 4168.26l364.06 0 0 434.29 251.38 0 0 382.26 -251.38 0 0 719.05c0,38.57 6.93,72.81 20.37,101.42 13.87,29.03 35.97,58.5 66.31,88.84 57.64,57.65 125.7,86.69 203.71,86.69 26,0 46.38,0 60.68,0l0 353.67c-9.97,0 -21.24,0 -33.38,0 -12.56,0 -20.8,0 -25.14,0 -65.01,0 -128.72,-9.97 -190.7,-30.35 -76.71,-24.7 -161.23,-68.48 -253.54,-132.18 -56.35,-39.02 -104.89,-99.69 -145.2,-182.04 -44.64,-91.46 -67.17,-183.77 -67.17,-277.82l0 -1543.83zm957.84 478.49l446.41 0 429.09 836.49 444.24 -836.49 439.92 0 -888.5 1715.9 -871.16 -1715.9z"/>
   <path class="fil1" d="M5718.36 2257.8c823.22,0 1568.64,335.91 2108.28,878.95 539.55,542.95 873.29,1292.9 873.29,2121.04 0,828.17 -333.73,1578.08 -873.29,2121.06 -539.64,543.04 -1285.06,878.95 -2108.28,878.95 -823.24,0 -1568.66,-335.91 -2108.3,-878.95 -539.56,-542.98 -873.29,-1292.89 -873.29,-2121.06 0,-828.14 333.73,-1578.08 873.31,-2121.04 539.63,-543.05 1285.04,-878.95 2108.28,-878.95z"/>
   <path class="fil2" d="M6835.27 5546.74c31.64,115.73 91.88,206.31 180.73,271.32 88.42,65.44 194.17,97.95 316.39,97.95 135.67,0 253.56,-48.98 353.67,-146.5 100.12,-97.51 150.4,-212.8 150.4,-345.86 0,-22.97 -0.87,-40.3 -2.17,-52.02 -16.03,-143.01 -75.85,-256.14 -179.86,-338.49 -92.32,-73.68 -202.42,-110.52 -329.4,-110.52 -72.39,0 -140,13 -203.71,38.58 -63.71,25.56 -117.89,63.7 -162.53,114.84l-247.05 -257.01c87.99,-89.72 180.74,-154.29 277.39,-194.6 96.65,-40.3 208.9,-60.68 335.9,-60.68 238.37,0 442.95,82.35 613.71,247.05 171.2,165.13 256.59,365.37 256.59,600.72 0,238.81 -82.78,442.07 -248.35,610.68 -165.13,168.59 -366.67,252.68 -603.31,252.68 -238.82,0 -447.29,-88.42 -625.43,-265.68 -178.56,-177.28 -267.85,-384.01 -267.85,-619.79 0,-26 0,-51.14 0,-75.84 4.34,-21.67 7.37,-37.72 8.67,-47.69l1220.5 0c26.01,0 42.48,10.84 49.84,32.52 7.37,21.67 10.84,51.14 10.84,88.4 0.44,16.05 0.44,27.31 0,34.69 0.44,18.63 0.44,32.93 0,43.33 0,27.31 -3.03,47.68 -8.67,61.54 -5.64,13.44 -19.5,20.38 -41.17,20.38l-855.13 0z"/>
   <path class="fil2" d="M5865.84 6116.5l369.3 0 0 -2704.83 -369.3 0 0 2704.83zm188.54 106.62c-69.79,0 -124.34,22.7 -163.41,67.17 -39.29,44.73 -58.95,97.53 -58.95,157.79 0,59.38 19.23,110.03 57.66,151.71 38.64,41.9 93.19,62.85 164.7,62.85 63.73,0 115.31,-23.04 154.32,-69.36 35.01,-41.59 52.43,-92.33 52.43,-151.71 0,-57.65 -18.43,-108.61 -55.47,-152.57 -36.99,-43.92 -87.55,-65.88 -151.28,-65.88z"/>
   <path class="fil2" d="M5247.59 6557.8l369.31 0 0 -2365.9 -369.31 0 0 2365.9zm188.54 106.62c-69.79,0 -124.34,22.7 -163.41,67.18 -39.29,44.72 -58.94,97.52 -58.94,157.79 0,59.37 19.22,110.02 57.65,151.7 38.64,41.9 93.19,62.85 164.7,62.85 63.74,0 115.31,-23.04 154.32,-69.36 35.02,-41.59 52.43,-92.33 52.43,-151.71 0,-57.65 -18.43,-108.61 -55.47,-152.56 -36.98,-43.93 -87.54,-65.89 -151.28,-65.89z"/>
   <path class="fil2" d="M4510.41 5731.48l0 445.99c-134.35,65.02 -267.41,97.52 -399.16,97.52 -202.42,0 -390.51,-74.55 -563.88,-223.21 -108.36,-92.74 -186.81,-191.13 -234.48,-296.02 -47.68,-104.89 -71.52,-230.15 -71.52,-376.21 0,-238.37 85.83,-441.65 257.02,-609.82 171.2,-168.59 376.21,-252.67 615.02,-252.67 244.01,0 453.78,82.78 628.89,248.34 174.66,165.56 262.21,367.98 262.21,608.09l0 839.09 -382.27 0 0 -849.5c0,-134.36 -50.72,-247.48 -152.56,-339.37 -101.86,-91.44 -222.34,-137.39 -361.04,-137.39 -138.26,0 -256.15,48.11 -352.81,144.77 -96.64,96.65 -145.18,214.54 -145.18,352.8 0,142.59 48.97,265.25 146.49,366.67 97.52,101.85 217.14,152.56 358.87,152.56 84.94,0 158.63,-13.44 219.74,-39.88 61.54,-26.43 119.62,-70.21 174.66,-131.76z"/>
   <path class="fil3" d="M4817.89 6717.37c-69.79,0 -124.4,-22.54 -163.41,-67.17 -39.44,-44.66 -58.95,-97.53 -58.95,-157.79 0,-59.38 19.08,-110.09 57.66,-151.71 38.58,-42.05 93.19,-62.85 164.7,-62.85 63.73,0 115.31,22.98 154.32,69.36 35.11,41.62 52.43,92.33 52.43,151.71 0,57.65 -18.61,108.37 -55.47,152.57 -37.26,43.77 -87.55,65.88 -151.28,65.88z"/>
  </g>
 </g>
</svg>
