<?xml version="1.0" encoding="UTF-8"?>
<!DOCTYPE svg PUBLIC "-//W3C//DTD SVG 1.1//EN" "http://www.w3.org/Graphics/SVG/1.1/DTD/svg11.dtd">
<!-- Creator: CorelDRAW 2020 (64-Bit) -->
<svg xmlns="http://www.w3.org/2000/svg" xml:space="preserve" width="148.5mm" height="105mm" version="1.1" style="shape-rendering:geometricPrecision; text-rendering:geometricPrecision; image-rendering:optimizeQuality; fill-rule:evenodd; clip-rule:evenodd"
viewBox="0 0 14850 10500"
 xmlns:xlink="http://www.w3.org/1999/xlink"
 xmlns:xodm="http://www.corel.com/coreldraw/odm/2003">
 <defs>
  <style type="text/css">
   <![CDATA[
    .fil0 {fill:#DE202A}
    .fil1 {fill:#FEFEFE;fill-rule:nonzero}
    .fil3 {fill:#2B2A29;fill-rule:nonzero}
    .fil2 {fill:#FECC00;fill-rule:nonzero}
   ]]>
  </style>
 </defs>
 <g id="Слой_x0020_1">
  <metadata id="CorelCorpID_0Corel-Layer"/>
  <ellipse class="fil0" cx="7425" cy="4038.67" rx="2771.15" ry="2788.66"/>
  <path class="fil1" d="M8444.8 4302.36c28.89,105.64 83.88,188.34 164.99,247.69 80.71,59.74 177.25,89.42 288.82,89.42 123.84,0 231.46,-44.72 322.86,-133.74 91.39,-89.02 137.29,-194.26 137.29,-315.72 0,-20.97 -0.8,-36.81 -1.99,-47.49 -14.63,-130.56 -69.23,-233.82 -164.19,-309 -84.27,-67.25 -184.77,-100.89 -300.69,-100.89 -66.08,0 -127.8,11.87 -185.96,35.21 -58.16,23.35 -107.62,58.17 -148.36,104.85l-225.53 -234.62c80.32,-81.9 164.99,-140.84 253.22,-177.65 88.23,-36.79 190.7,-55.38 306.63,-55.38 217.61,0 404.36,75.16 560.24,225.51 156.27,150.74 234.22,333.53 234.22,548.37 0,218.01 -75.56,403.56 -226.71,557.48 -150.74,153.9 -334.72,230.66 -550.74,230.66 -218,0 -408.32,-80.72 -570.93,-242.53 -163,-161.83 -244.5,-350.55 -244.5,-565.79 0,-23.73 0,-46.68 0,-69.23 3.95,-19.78 6.72,-34.42 7.91,-43.52l1114.15 0c23.73,0 38.77,9.88 45.5,29.68 6.73,19.78 9.89,46.68 9.89,80.7 0.39,14.64 0.39,24.93 0,31.65 0.39,17.01 0.39,30.08 0,39.57 0,24.93 -2.77,43.52 -7.92,56.18 -5.14,12.27 -17.8,18.59 -37.58,18.59l-780.62 0z"/>
  <path class="fil1" d="M7559.64 4822.61l337.15 0 0 -2469.37 -337.15 0 0 2469.37zm172.12 97.33c-63.71,0 -113.51,20.73 -149.18,61.33 -35.87,40.83 -53.82,89.04 -53.82,144.06 0,54.2 17.56,100.44 52.64,138.5 35.28,38.25 85.08,57.37 150.36,57.37 58.19,0 105.27,-21.03 140.89,-63.32 31.97,-37.97 47.87,-84.29 47.87,-138.5 0,-52.63 -16.83,-99.16 -50.65,-139.29 -33.76,-40.1 -79.92,-60.15 -138.11,-60.15z"/>
  <path class="fil1" d="M6995.21 5225.49l337.16 0 0 -2159.94 -337.16 0 0 2159.94zm172.13 97.34c-63.72,0 -113.52,20.72 -149.19,61.33 -35.87,40.83 -53.81,89.03 -53.81,144.05 0,54.21 17.55,100.45 52.63,138.51 35.28,38.25 85.08,57.37 150.37,57.37 58.18,0 105.27,-21.03 140.88,-63.32 31.97,-37.97 47.87,-84.3 47.87,-138.5 0,-52.64 -16.82,-99.16 -50.64,-139.29 -33.77,-40.1 -79.93,-60.15 -138.11,-60.15z"/>
  <path class="fil1" d="M6322.09 4471.15l0 407.13c-122.65,59.35 -244.12,89.01 -364.4,89.01 -184.76,0 -356.47,-68.05 -514.73,-203.75 -98.92,-84.67 -170.54,-174.48 -214.05,-270.23 -43.52,-95.74 -65.29,-210.1 -65.29,-343.42 0,-217.61 78.34,-403.17 234.63,-556.69 156.28,-153.9 343.42,-230.66 561.42,-230.66 222.76,0 414.25,75.58 574.09,226.71 159.45,151.14 239.37,335.9 239.37,555.1l0 765.97 -348.97 0 0 -775.47c0,-122.65 -46.29,-225.92 -139.26,-309.8 -92.98,-83.47 -202.97,-125.42 -329.58,-125.42 -126.21,0 -233.82,43.92 -322.06,132.15 -88.23,88.23 -132.54,195.85 -132.54,322.07 0,130.16 44.71,242.13 133.73,334.71 89.02,92.98 198.22,139.27 327.6,139.27 77.55,0 144.8,-12.27 200.6,-36.4 56.17,-24.14 109.19,-64.1 159.44,-120.28z"/>
  <path class="fil2" d="M6602.91 5371.18c-63.71,0 -113.57,-20.59 -149.19,-61.33 -36,-40.78 -53.81,-89.04 -53.81,-144.06 0,-54.2 17.42,-100.5 52.64,-138.5 35.22,-38.39 85.08,-57.38 150.36,-57.38 58.19,0 105.27,20.98 140.89,63.32 32.05,38 47.87,84.3 47.87,138.51 0,52.63 -17,98.93 -50.65,139.28 -34.02,39.96 -79.92,60.16 -138.11,60.16z"/>
  <path class="fil3" d="M3619.58 7271.37l328.27 0 0 391.58 226.66 0 0 344.68 -226.66 0 0 648.34c0,34.78 6.25,65.66 18.37,91.45 12.5,26.18 32.43,52.76 59.79,80.11 51.98,51.98 113.33,78.16 183.68,78.16 23.44,0 41.81,0 54.71,0l0 318.89c-8.99,0 -19.15,0 -30.09,0 -11.34,0 -18.76,0 -22.67,0 -58.62,0 -116.07,-8.98 -171.95,-27.35 -69.17,-22.28 -145.38,-61.75 -228.62,-119.2 -50.8,-35.17 -94.57,-89.88 -130.92,-164.13 -40.25,-82.46 -60.57,-165.7 -60.57,-250.5l0 -1392.03zm863.67 431.44l402.52 0 386.89 754.24 400.57 -754.24 396.67 0 -801.14 1547.18 -785.51 -1547.18zm2523 -438.48l105.52 0 -727.28 1957.91 -105.13 0 726.89 -1957.91zm273.96 1962.6l0 -867.97c0,-189.14 68,-350.15 204.39,-483.81 135.99,-133.65 300.13,-200.48 491.62,-200.48 187.59,0 348.21,67.22 481.08,201.26 132.87,134.05 199.31,295.45 199.31,484.21l0 866.79 -354.07 0 0 -877.74c0,-88.71 -34.39,-163.74 -102.78,-225.49 -68.39,-61.75 -148.89,-92.62 -241.12,-92.62 -88.72,0 -165.31,30.09 -229.79,90.67 -64.49,60.57 -96.92,134.82 -96.92,221.97l0 883.21 -351.72 0zm2787.96 -876.96c-28.52,-104.34 -82.84,-186.02 -162.96,-244.64 -79.72,-59.01 -175.08,-88.32 -285.28,-88.32 -122.32,0 -228.62,44.16 -318.9,132.09 -90.27,87.93 -135.6,191.89 -135.6,311.86 0,20.71 0.78,36.35 1.95,46.9 14.46,128.96 68.39,230.96 162.18,305.21 83.24,66.44 182.51,99.66 297.01,99.66 65.26,0 126.23,-11.73 183.68,-34.78 57.44,-23.06 106.29,-57.45 146.55,-103.57l222.75 231.75c-79.33,80.89 -162.96,139.12 -250.11,175.47 -87.15,36.34 -188.36,54.71 -302.87,54.71 -214.94,0 -399.4,-74.25 -553.37,-222.76 -154.37,-148.89 -231.36,-329.44 -231.36,-541.65 0,-215.33 74.65,-398.61 223.93,-550.63 148.9,-152.02 330.62,-227.84 544,-227.84 215.33,0 403.3,79.72 563.92,239.56 161.01,159.84 241.52,346.25 241.52,558.84 0,23.45 0,46.12 0,68.39 -3.91,19.54 -6.65,34 -7.82,42.99l-1100.49 0c-23.45,0 -38.3,-9.77 -44.95,-29.31 -6.64,-19.54 -9.77,-46.11 -9.77,-79.72 -0.39,-14.46 -0.39,-24.62 0,-31.26 -0.39,-16.81 -0.39,-29.71 0,-39.08 0,-24.62 2.74,-42.99 7.82,-55.5 5.08,-12.11 17.59,-18.37 37.13,-18.37l771.04 0zm517.43 -1078.6l328.27 0 0 391.58 226.66 0 0 344.68 -226.66 0 0 648.34c0,34.78 6.25,65.66 18.37,91.45 12.5,26.18 32.43,52.76 59.79,80.11 51.98,51.98 113.33,78.16 183.68,78.16 23.44,0 41.81,0 54.71,0l0 318.89c-8.99,0 -19.15,0 -30.09,0 -11.34,0 -18.76,0 -22.67,0 -58.62,0 -116.07,-8.98 -171.95,-27.35 -69.17,-22.28 -145.38,-61.75 -228.62,-119.2 -50.8,-35.17 -94.57,-89.88 -130.92,-164.13 -40.25,-82.46 -60.57,-165.7 -60.57,-250.5l0 -1392.03z"/>
 </g>
</svg>
