<svg width="177" height="57" viewBox="0 0 177 57" fill="none" xmlns="http://www.w3.org/2000/svg">
<g id="chakraLogo 1">
<g id="Group">
<path id="Vector" d="M43.4195 20.1885C42.3513 21.0988 41.2117 21.7405 40.0763 22.4872C37.6498 19.1525 34.4202 17.181 30.2359 17.1726C27.3217 17.1643 24.6723 18.1877 22.6244 20.2724C17.5822 25.3982 17.7925 32.1934 22.801 36.992C26.8885 40.9097 34.7314 41.4844 39.887 34.8905C41.1738 35.2345 42.1705 36.1615 43.3354 36.8032C43.2092 37.7093 42.6373 38.2587 42.1116 38.7957C40.4884 40.4525 38.6759 41.8954 36.5312 42.8015C35.051 43.4265 33.4908 43.892 31.8592 43.9466C30.1602 44.0011 28.4445 44.0808 26.7876 43.6655C25.4882 43.3384 24.2266 42.8812 23.0323 42.2394C20.1222 40.679 17.9355 38.4391 16.4258 35.5239C15.8791 34.4669 15.5343 33.3343 15.1894 32.1976C14.6638 30.4652 14.6932 28.6951 14.8152 26.9418C14.8993 25.7715 15.2021 24.5886 15.5974 23.4771C16.4006 21.212 17.7042 19.2532 19.4073 17.5124C20.7362 16.1534 22.309 15.239 23.9616 14.4252C26.5521 13.1543 29.3402 12.8564 32.1788 13.0913C33.0871 13.1668 33.9912 13.4479 34.8701 13.7205C38.247 14.7734 40.951 16.7784 43.0914 19.5719C43.205 19.7146 43.2723 19.8991 43.4195 20.1885Z" fill="#5C7875"/>
<path id="Vector_2" d="M96.9148 43.6865C95.7457 43.8584 94.564 43.7662 93.3781 43.7452C92.8735 42.7427 93.4622 41.6269 92.9366 40.6496C92.5286 40.8258 92.3016 41.1278 92.0198 41.371C90.4765 42.7091 88.7439 43.6151 86.6497 43.7326C85.6488 43.7913 84.6606 43.8081 83.6555 43.7578C81.8515 43.6655 80.2829 43.0069 78.8279 42.0506C76.3468 40.4189 74.7614 38.1538 74.0969 35.2386C72.9951 30.4148 74.2567 26.3209 78.012 23.1205C79.9843 21.4385 82.3603 20.7086 85.0349 20.6331C91.0989 20.4695 95.5859 25.1171 96.7255 29.6682C96.9358 30.5029 97.0535 31.3209 97.0493 32.1724C97.0367 35.5658 97.0493 38.9634 97.0409 42.3568C97.0367 42.7762 97.1124 43.2041 96.9148 43.6865ZM92.495 32.3863C92.4656 31.8494 92.5287 31.2873 92.3941 30.7756C91.5741 27.68 89.5135 25.2178 86.0105 24.7941C83.7859 24.5257 81.7379 25.1255 80.1567 26.6859C77.5705 29.2362 77.0028 32.8351 78.6681 36.1278C80.224 39.2108 83.9961 40.9348 87.4487 39.71C90.2326 38.7243 92.7011 35.1799 92.495 32.3863Z" fill="#5C7875"/>
<path id="Vector_3" d="M158.102 40.5993C157.332 41.1865 156.794 41.8493 156.075 42.3065C153.896 43.6991 151.516 43.9423 148.997 43.7536C146.55 43.569 144.481 42.5959 142.698 41.0103C140.965 39.4709 139.914 37.5246 139.296 35.2596C138.875 33.7244 138.808 32.1934 139.014 30.7001C139.3 28.607 140.073 26.6397 141.419 24.9284C143.16 22.7052 145.465 21.321 148.156 20.7925C149.771 20.4779 151.512 20.4528 153.194 20.9645C154.456 21.3462 155.658 21.7992 156.768 22.5165C159.346 24.1733 160.932 26.5307 161.874 29.3998C162.193 30.3729 162.261 31.3419 162.256 32.3444C162.244 35.6958 162.252 39.0515 162.252 42.4029C162.252 42.7846 162.252 43.1663 162.252 43.6613C160.991 43.871 159.788 43.7788 158.572 43.7284C158.123 42.7217 158.627 41.6605 158.102 40.5993ZM157.685 32.4199C157.946 29.19 155.318 25.3101 151.482 24.8277C147.597 24.3411 144.493 26.3587 143.295 30.0625C142.454 32.6715 143 35.1799 144.682 37.3569C146.44 39.6303 148.875 40.5993 151.638 40.0078C155.545 39.1773 157.803 35.6287 157.685 32.4199Z" fill="#5C7875"/>
<path id="Vector_4" d="M107.348 43.6277C105.897 43.6277 104.636 43.6277 103.378 43.6277C103.063 42.5161 103.193 14.9662 103.53 13.5443C104.724 13.4268 105.939 13.4478 107.129 13.5401C107.453 14.0224 107.331 14.4964 107.331 14.9452C107.34 19.6515 107.335 24.3537 107.34 29.06C107.34 29.5465 107.239 30.0625 107.596 30.5197C108.303 30.3225 108.652 29.7269 109.102 29.2823C111.65 26.7697 114.182 24.2446 116.696 21.7027C117.041 21.3545 117.365 21.0861 117.878 21.0903C119.459 21.0987 121.04 21.0945 122.941 21.0945C119.165 24.9031 115.582 28.5189 111.89 32.2436C115.582 36.0649 119.232 39.7981 122.908 43.678C121.974 43.6906 121.04 43.7074 120.107 43.7116C119.182 43.7158 118.257 43.7116 117.285 43.7116C114.539 40.9935 111.801 38.2838 109.009 35.5238C108.033 36.1152 107.26 36.8157 107.327 38.1957C107.411 39.9575 107.348 41.7318 107.348 43.6277Z" fill="#5C7875"/>
<path id="Vector_5" d="M67.8942 43.6571C66.8218 43.7872 65.6864 43.7788 64.5762 43.6571C64.3239 43.1957 64.4206 42.7637 64.4206 42.3484C64.4122 38.5691 64.4458 34.7856 64.4038 31.0063C64.3743 28.2924 63.0875 26.2119 60.6232 25.1465C58.2094 24.0978 55.5391 24.7312 53.7686 27.1934C52.9276 28.3679 52.4776 29.6808 52.4986 31.1783C52.5491 34.8821 52.5155 38.5859 52.5113 42.2897C52.5113 42.7091 52.5785 43.137 52.4229 43.5439C51.5735 43.7872 49.9713 43.8165 48.6971 43.5984C48.6971 33.6405 48.6971 23.6658 48.6971 13.5569C49.8998 13.4143 51.1151 13.5024 52.2758 13.5066C52.6542 13.947 52.5239 14.3916 52.5281 14.7985C52.5449 17.1139 52.5365 19.4293 52.5575 21.7447C52.5617 22.1516 52.4314 22.5962 52.814 23.0198C53.6509 22.8311 54.1976 22.1264 54.9041 21.7027C56.5231 20.7338 58.222 20.4402 60.0807 20.5996C64.1052 20.9519 66.2583 23.5232 67.7764 26.8914C68.0834 27.5709 68.1254 28.3134 68.1254 29.0474C68.1339 33.6405 68.1339 38.2293 68.1339 42.8224C68.1212 43.0783 68.1591 43.3593 67.8942 43.6571Z" fill="#5C7875"/>
<path id="Vector_6" d="M130.481 43.6237C129.148 43.7286 127.962 43.695 126.827 43.6531C126.486 43.3762 126.549 43.0491 126.549 42.7512C126.549 38.1624 126.49 33.5735 126.583 28.9889C126.65 25.7255 128.118 23.171 131.011 21.5267C132.681 20.5787 134.497 20.4697 136.453 20.6375C136.655 22.0007 136.579 23.2842 136.516 24.4881C136.125 24.8572 135.738 24.895 135.355 24.9411C132.449 25.3018 130.443 28.1625 130.469 30.5492C130.506 34.4418 130.477 38.3386 130.477 42.2311C130.481 42.659 130.481 43.0826 130.481 43.6237Z" fill="#5C7875"/>
</g>
</g>
</svg>
