<svg id="Слой_1" data-name="Слой 1" xmlns="http://www.w3.org/2000/svg" viewBox="0 0 3234.24 1764.71"><defs><style>.cls-1{fill:#e3eaff;}.cls-2{fill:#95a6db;}.cls-3{fill:#3a62ad;}.cls-4{fill:#f37a50;}.cls-5{fill:#201d40;}.cls-6{fill:#2c2858;}.cls-7{fill:#e62552;}.cls-8{fill:#c4204a;}.cls-9{fill:#fff;}.cls-10{fill:#de623c;}.cls-11{fill:#facb32;}.cls-12{fill:#eba223;}.cls-13{fill:#7f99eb;}.cls-14{fill:#494c7f;}.cls-15{fill:#0e6a41;}.cls-16{fill:#f5a3b7;}.cls-17{fill:#3f964f;}.cls-18{fill:#097a48;}</style></defs><title>5482</title><path class="cls-1" d="M187.22,1841.06c-399.44-310.26,164.3-401.21-29.62-663.34C27.76,1002.21,71.12,699,284.8,615.12c263.53-103.4,625,97.07,846.56-134.06,159.91-166.77,304-326.86,553-365.64C2117.23,48,2141,491.26,2473.08,501.92c203.62,6.54,406.28-91.87,571.51,84.61,237.31,253.46,284.26,638.82,172,962.52-41.33,119.16-125.23,290.58-125.23,290.58Z" transform="translate(-40.42 -108.44)"/><path class="cls-2" d="M1397.8,1432.81s17.29,31.38-10.3,87.15c-28.12,56.83-23,96.52-23,96.52l-26,24.52s-4.42-63.14,20.36-107.73C1389.91,1477.5,1397.8,1432.81,1397.8,1432.81Z" transform="translate(-40.42 -108.44)"/><path class="cls-2" d="M1473.59,1450.47s4.61,26-26.53,62.13c-31.81,36.79-37.16,66.82-37.16,66.82l-21.37,17s9.38-50.59,36.18-79C1458.19,1481.85,1473.59,1450.47,1473.59,1450.47Z" transform="translate(-40.42 -108.44)"/><path class="cls-2" d="M1342.06,1492.24s-23.33,16.1-38.35,81.55c-12.25,53.33-.15,81.31-7.86,114l33.06-35.44c2.08-23.2-12.78-38.55-4-87.45C1333.09,1519.11,1342.06,1492.24,1342.06,1492.24Z" transform="translate(-40.42 -108.44)"/><path class="cls-2" d="M1132.61,1689.39s-10.4,26.46,13.62,89.1c19.57,51.12,46.18,58,51.27,69.79l11.56-25.73c-14.13-20.09-30.21-17.74-50.2-63.22C1140.15,1716.65,1132.61,1689.39,1132.61,1689.39Z" transform="translate(-40.42 -108.44)"/><path class="cls-2" d="M1287.63,1532.93s-16.17,46.19-19.94,75.66c-5.44,41.89,11,64.4,8.54,107.59l-23.26,28s-20.21-45.41-11.43-96.83C1256.26,1561.05,1287.63,1532.93,1287.63,1532.93Z" transform="translate(-40.42 -108.44)"/><path class="cls-2" d="M1207.41,1554.24a281.52,281.52,0,0,1,1.5,81.92c-11.18,82.45,32.08,145.16,32.08,145.16l-17.32,16.4s-53.11-43.81-41.77-112.78C1194,1612.06,1207.41,1554.24,1207.41,1554.24Z" transform="translate(-40.42 -108.44)"/><path class="cls-2" d="M1327.11,1658.18s19.52-6.78,100.38,4.08c51.81,7,36.77-12.77,85.62,2.38-37.27,3-50.14,30.14-98.71,26.45a747.66,747.66,0,0,0-116.69.21Z" transform="translate(-40.42 -108.44)"/><path class="cls-2" d="M1483.71,1711.88s-32.06,39.78-103.82,34.16a404.11,404.11,0,0,0-131.47,11.64l21.91-36s29.88-21.38,103.93-8.37C1425.14,1722.22,1483.71,1711.88,1483.71,1711.88Z" transform="translate(-40.42 -108.44)"/><path class="cls-2" d="M1440.44,1779.81s-32.06,39.79-103.81,34.16a404.16,404.16,0,0,0-131.48,11.65l21.91-36s29.89-21.39,103.93-8.38C1381.87,1790.15,1440.44,1779.81,1440.44,1779.81Z" transform="translate(-40.42 -108.44)"/><path class="cls-2" d="M1535.33,1580.8s-23,20.59-68.27,15.33c-45.84-5.35-79.65,4.3-79.65,4.3l13-13.43s18.89-13.52,65.7-5.31C1498.31,1587.33,1535.33,1580.8,1535.33,1580.8Z" transform="translate(-40.42 -108.44)"/><path class="cls-2" d="M1367.79,1622.42s35.37-3.34,87.28,1.59c32.76,3,76.48-16.43,76.48-16.43s-33.94,46.73-82.89,39.16c-56.14-8.7-111.7-1.5-111.7-1.5Z" transform="translate(-40.42 -108.44)"/><path class="cls-2" d="M1397,1592.4s29.66-45.84,79-54.64a266.77,266.77,0,0,0,83.09-30.47s-27.58,47.34-73.74,50.53c-42.61,3.06-72.36,31-72.36,31Z" transform="translate(-40.42 -108.44)"/><path class="cls-2" d="M1201.48,1849.15l-7.38-3.14c19.37-45.52,106.29-193.22,214.88-266.42l4.48,6.66C1306.38,1658.44,1220.62,1804.22,1201.48,1849.15Z" transform="translate(-40.42 -108.44)"/><path class="cls-2" d="M2883.93,1805.32c-11.54,5.92-23.57,8.1-29.11,0-4.8-7,12.43-18.85,29.11-25.75v-29c-9.84,6.32-19.92,10.9-29.11,11.5-14.86,1-14.74-7.49,10.63-22a136.43,136.43,0,0,0,18.48-12.49v-80.68c-17.25,27.73-52.64,81.13-64.79,73.55-17-10.46,59.39-77.87,63.6-100,2.55-13.48-25.8-70.64-25.8-70.64s-49.16,116.77-72.79,108.22c-11.38-4.09,57.26-105.55,47.14-124s-38.47-33.62-38.47-33.62-23.37,89.32-35.6,79c-9.84-8.3,21.12-66.92,14.72-90.61a62.94,62.94,0,0,0-36.44-42.34s-15.27,53.9-33,42.81c-6.94-4.36,17.8-42.62,15.57-59.55-23.75,1.27-44.34.89-59.85-11.5-.32,13.12-18.61,28.45-44.54,44.71,9.43,21.9,57.46,30.1,51.06,46.24-5.3,13.41-61.21-23.53-61.21-23.53s-20.25,26.67-10.12,54.07c7.94,21.26,59.89,42.82,51.14,53.49-10.81,13.18-67.74-36.12-66.31-31.38,11,36-4.61,79.73-4.61,79.73,25.51,66.51,127.82,83.74,113.67,99.68-12.64,14.17-110.43-54.1-110.43-54.1l11.44,47.58s53.33,53.17,123.51,68.6c-36.21,17.74-113.49-27.72-113.49-27.72s11.26,39.91,35.45,72.3h250.14Zm-269.74-279.07c4-5.2,53.27,17.15,46.41,30S2605.12,1537.85,2614.19,1526.25Zm80,155.4c-4.19,12.7-38.33-.24-57.5-12.29-24.62-15.47-37.32-33.81-29.34-42.11,8.73-9.1,25.39,8.42,48,19.19C2682.08,1659.26,2698.2,1669.38,2694.15,1681.65Zm3.06-62.65c-4.84,11.44-36-1.51-33.41-14.17C2665.52,1596.53,2702.05,1607.56,2697.21,1619Zm43.11,139c-5,13.49-38.86-2.45-33.23-14.68,4.37-9.49,38.23,1.2,33.23,14.68Zm-11.42-202.73c-13.47-4.54,8.52-48.19,20.75-41s-7.45,45.46-20.75,41Zm22.27-56.46a4.72,4.72,0,1,1,0,.05l-.07,0Z" transform="translate(-40.42 -108.44)"/><polygon class="cls-3" points="2654.47 1411.55 2762.85 1739.5 2777.45 1739.5 2654.47 1411.55"/><polygon class="cls-3" points="2650.23 1593.96 2729.56 1611.78 2730.17 1620.47 2650.23 1593.96"/><polygon class="cls-3" points="2706.05 1549.12 2746.86 1472.58 2702.43 1539.44 2706.05 1549.12"/><polygon class="cls-3" points="2747.16 1670.72 2798.36 1621.18 2746.37 1656.61 2747.16 1670.72"/><path class="cls-2" d="M518.3,1847.94H768.44c24.19-32.39,35.45-72.3,35.45-72.3s-77.28,45.46-113.49,27.72c70.18-15.43,123.51-68.6,123.51-68.6l11.44-47.58s-97.79,68.27-110.43,54.1c-14.15-15.94,88.16-33.17,113.67-99.68,0,0-15.63-43.73-4.61-79.73,1.43-4.74-55.5,44.56-66.31,31.38-8.75-10.67,43.2-32.23,51.14-53.49,10.12-27.4-10.12-54.07-10.12-54.07s-55.91,36.94-61.21,23.53c-6.4-16.14,41.63-24.34,51.06-46.24-25.93-16.26-44.22-31.59-44.54-44.71-15.51,12.39-36.1,12.77-59.85,11.5-2.23,16.93,22.51,55.19,15.57,59.55-17.72,11.09-33-42.81-33-42.81a62.94,62.94,0,0,0-36.44,42.34c-6.4,23.69,24.56,82.31,14.72,90.61-12.23,10.35-35.6-79-35.6-79s-28.34,15.19-38.47,33.62,58.52,119.88,47.14,124c-23.63,8.55-72.79-108.22-72.79-108.22s-28.35,57.16-25.8,70.64c4.21,22.09,80.57,89.5,63.6,100-12.15,7.58-47.54-45.82-64.79-73.55v80.68a136.43,136.43,0,0,0,18.48,12.49c25.37,14.5,25.5,23,10.63,22-9.19-.6-19.27-5.18-29.11-11.5v29c16.68,6.9,33.91,18.77,29.11,25.75-5.54,8.1-17.57,5.92-29.11,0Zm223.33-291.68c-6.86-12.86,42.36-35.21,46.41-30C797.11,1537.85,748.49,1569.11,741.63,1556.26Zm5.32,90.18c22.58-10.77,39.24-28.29,48-19.19,8,8.3-4.72,26.64-29.34,42.11-19.17,12.05-53.31,25-57.5,12.29C704,1669.38,720.15,1659.26,747,1646.44Zm-8.52-41.61c2.63,12.66-28.57,25.61-33.41,14.17S736.71,1596.53,738.43,1604.83ZM661.91,1758c-5-13.48,28.86-24.17,33.23-14.68,5.63,12.23-28.22,28.17-33.23,14.68Zm11.42-202.73c-13.3,4.45-33-33.82-20.75-41s34.22,36.47,20.75,41Zm-22.23-56.43-.07,0a63.37,63.37,0,1,1,0-.05Z" transform="translate(-40.42 -108.44)"/><polygon class="cls-3" points="666.93 1411.55 558.55 1739.5 543.95 1739.5 666.93 1411.55"/><polygon class="cls-3" points="671.17 1593.96 591.84 1611.78 591.23 1620.47 671.17 1593.96"/><polygon class="cls-3" points="615.34 1549.12 574.54 1472.58 618.97 1539.44 615.34 1549.12"/><polygon class="cls-3" points="574.24 1670.72 523.03 1621.18 575.03 1656.61 574.24 1670.72"/><path class="cls-2" d="M3045.68,1755.3q-35-43.52-13.53-115Q3069.56,1704.94,3045.68,1755.3Z" transform="translate(-40.42 -108.44)"/><path class="cls-2" d="M3073.73,1689q-25.55-44,3.68-105.48Q3102.24,1647,3073.73,1689Z" transform="translate(-40.42 -108.44)"/><path class="cls-2" d="M3104.83,1623.35q-17.85-45,18.19-98.61Q3137.6,1587.8,3104.83,1623.35Z" transform="translate(-40.42 -108.44)"/><path class="cls-2" d="M3175.38,1486.62q.88,54.7-32.47,78.42Q3136.12,1524.57,3175.38,1486.62Z" transform="translate(-40.42 -108.44)"/><path class="cls-2" d="M3222.71,1472q-7.39,45.21-38.33,59.76Q3184.74,1497.52,3222.71,1472Z" transform="translate(-40.42 -108.44)"/><path class="cls-2" d="M3208.24,1533q12.57-31.85,57.19-42.11Q3242.33,1530.47,3208.24,1533Z" transform="translate(-40.42 -108.44)"/><path class="cls-2" d="M3169.54,1716.59q-46.68,59.16-102.91,55.35Q3094.43,1723.05,3169.54,1716.59Z" transform="translate(-40.42 -108.44)"/><path class="cls-2" d="M3109.91,1647.29q35-29.91,94.62-13.85Q3152.1,1665.81,3109.91,1647.29Z" transform="translate(-40.42 -108.44)"/><path class="cls-2" d="M3220.78,1592.58q-45.62,28.22-82.33,12.06Q3168.92,1578.59,3220.78,1592.58Z" transform="translate(-40.42 -108.44)"/><path class="cls-2" d="M3175.36,1567.44q30.49-26,82.33-12Q3212.06,1583.61,3175.36,1567.44Z" transform="translate(-40.42 -108.44)"/><path class="cls-2" d="M3034.13,1829.25c19.59-86.88,21.95-79.9,42.4-130.41q8.26-20.47,17.66-38.84a390,390,0,0,1,47.17-69.88q31.24-38.47,54.31-50.7l1.46-1.72a1.39,1.39,0,0,1,1.53-.91,2.4,2.4,0,0,1,1.91,0,4.23,4.23,0,0,1,1.23,1.64,2.39,2.39,0,0,1,.06,1.91l-.54,1.32a5.45,5.45,0,0,1-1.64,1.26v.31l-1.39.59q-22.29,12.43-52.67,49.59a381.89,381.89,0,0,0-46.15,69.5,408.66,408.66,0,0,0-17.71,38.09l-1.35,3.39q31.29-39.9,99.13-35.66-49.48,46.52-99.13,35.66c-19.79,49.74-21.57,41.28-40.64,126Z" transform="translate(-40.42 -108.44)"/><path class="cls-2" d="M324.44,1766q35-43.5,13.53-115Q300.56,1715.67,324.44,1766Z" transform="translate(-40.42 -108.44)"/><path class="cls-2" d="M296.39,1699.76q25.55-44-3.68-105.48Q267.89,1657.72,296.39,1699.76Z" transform="translate(-40.42 -108.44)"/><path class="cls-2" d="M265.29,1634.07q17.85-44.94-18.19-98.6Q232.52,1598.53,265.29,1634.07Z" transform="translate(-40.42 -108.44)"/><path class="cls-2" d="M194.74,1497.34q-.88,54.72,32.48,78.42Q234,1535.3,194.74,1497.34Z" transform="translate(-40.42 -108.44)"/><path class="cls-2" d="M147.42,1482.73q7.38,45.19,38.32,59.76Q185.38,1508.25,147.42,1482.73Z" transform="translate(-40.42 -108.44)"/><path class="cls-2" d="M161.88,1543.72q-12.57-31.85-57.19-42.11Q127.81,1541.2,161.88,1543.72Z" transform="translate(-40.42 -108.44)"/><path class="cls-2" d="M211.09,1718q46.66,59.16,102.9,55.35Q286.21,1724.44,211.09,1718Z" transform="translate(-40.42 -108.44)"/><path class="cls-2" d="M260.22,1658q-35-29.93-94.63-13.85Q218,1676.54,260.22,1658Z" transform="translate(-40.42 -108.44)"/><path class="cls-2" d="M149.34,1603.31q45.61,28.21,82.33,12Q201.21,1589.31,149.34,1603.31Z" transform="translate(-40.42 -108.44)"/><path class="cls-2" d="M194.76,1578.17q-30.49-26-82.33-12.06Q158.08,1594.34,194.76,1578.17Z" transform="translate(-40.42 -108.44)"/><path class="cls-2" d="M336,1840c-19.59-86.89-21.95-79.9-42.39-130.41q-8.28-20.47-17.67-38.85a389.91,389.91,0,0,0-47.17-69.87q-31.24-38.47-54.31-50.7l-1.46-1.72a1.38,1.38,0,0,0-1.53-.91,2.44,2.44,0,0,0-1.91-.06,4.44,4.44,0,0,0-1.23,1.65,2.41,2.41,0,0,0-.06,1.9l.54,1.32a5.08,5.08,0,0,0,1.65,1.26v.32l1.4.59q22.29,12.43,52.66,49.58a382.58,382.58,0,0,1,46.15,69.5,410,410,0,0,1,17.71,38.1l1.35,3.39q-31.27-39.9-99.13-35.67,49.48,46.51,99.13,35.67c19.79,49.74,21.57,41.28,40.64,126Z" transform="translate(-40.42 -108.44)"/><path class="cls-2" d="M202.47,1737.42q-8-36.72-54.48-55.66Q165.95,1728.71,202.47,1737.42Z" transform="translate(-40.42 -108.44)"/><path class="cls-2" d="M97.72,1679.89q23.15,35.64,54.93,36.46Q139.48,1687.33,97.72,1679.89Z" transform="translate(-40.42 -108.44)"/><path class="cls-2" d="M60.88,1691q24.36,25.92,50.61,21.89Q96.42,1691,60.88,1691Z" transform="translate(-40.42 -108.44)"/><path class="cls-2" d="M96.64,1724q-21.9-15.09-55.11-2.35Q73.58,1737.18,96.64,1724Z" transform="translate(-40.42 -108.44)"/><path class="cls-2" d="M201.2,1825.57q55.73,17.88,90.32-9Q252.42,1797.17,201.2,1825.57Z" transform="translate(-40.42 -108.44)"/><path class="cls-2" d="M209.58,1755.05q-35.55-4.1-67,32.1Q190.43,1785.29,209.58,1755.05Z" transform="translate(-40.42 -108.44)"/><path class="cls-2" d="M114.4,1767.87q41.64-1.61,58.29-27.93Q141.76,1736.36,114.4,1767.87Z" transform="translate(-40.42 -108.44)"/><path class="cls-2" d="M132.78,1732q-30.91-3.51-58.29,27.93Q116.13,1758.29,132.78,1732Z" transform="translate(-40.42 -108.44)"/><path class="cls-2" d="M337.32,1839.46c-50.3-47.5-48.79-42-83.87-65.66q-14.2-9.61-28.23-17.38a302.63,302.63,0,0,0-60.7-24.57q-36.81-11.26-57-9.13l-1.68-.48a1.07,1.07,0,0,0-1.38.08,1.9,1.9,0,0,0-1.26.79,3.43,3.43,0,0,0-.08,1.59,1.9,1.9,0,0,0,.79,1.26l.92.61a4,4,0,0,0,1.61.1l.13.21,1.16-.23q19.76-1.65,55.44,9.13a297.08,297.08,0,0,1,59.88,24.78A318.09,318.09,0,0,1,251,1777.43l2.34,1.6q-37.46-12.15-79.35,20,52.07,8.52,79.35-20c34.32,23.47,31.8,17.25,80.82,63.58Z" transform="translate(-40.42 -108.44)"/><path class="cls-2" d="M1975.79,1774.49q34.18-47.68,7.48-121.44Q1947.81,1723.07,1975.79,1774.49Z" transform="translate(-40.42 -108.44)"/><path class="cls-2" d="M1942.5,1706.62q24.23-47.68-10-110.42Q1910.15,1664.18,1942.5,1706.62Z" transform="translate(-40.42 -108.44)"/><path class="cls-2" d="M1906.05,1639.54q16.1-48.19-24.84-102.37Q1869.6,1604.16,1906.05,1639.54Z" transform="translate(-40.42 -108.44)"/><path class="cls-2" d="M1824.06,1500.23q2.26,57.45,38.64,80.37Q1867.47,1537.76,1824.06,1500.23Z" transform="translate(-40.42 -108.44)"/><path class="cls-2" d="M1773.57,1487.66q10.4,47,43.69,60.45Q1814.88,1512.22,1773.57,1487.66Z" transform="translate(-40.42 -108.44)"/><path class="cls-2" d="M1792.3,1550.8q-15-32.68-62.45-40.84Q1756.4,1550.13,1792.3,1550.8Z" transform="translate(-40.42 -108.44)"/><path class="cls-2" d="M1843.62,1741.12q52.41,59.33,111.17,52.05Q1922.8,1743.52,1843.62,1741.12Z" transform="translate(-40.42 -108.44)"/><path class="cls-2" d="M1902.12,1665q-38.49-29.34-100.07-9Q1858.95,1686.84,1902.12,1665Z" transform="translate(-40.42 -108.44)"/><path class="cls-2" d="M1782.62,1614q49.5,26.94,87.07,7.84Q1836.21,1596.32,1782.62,1614Z" transform="translate(-40.42 -108.44)"/><path class="cls-2" d="M1828.8,1585q-33.49-25.46-87.06-7.84Q1791.26,1604.11,1828.8,1585Z" transform="translate(-40.42 -108.44)"/><path class="cls-2" d="M1992.23,1851.39c-25.62-90-27.69-82.52-52.09-134.31q-9.86-21-20.79-39.72a409.64,409.64,0,0,0-53.56-70.54q-35-38.53-59.93-50l-1.63-1.72a1.45,1.45,0,0,0-1.66-.87,2.51,2.51,0,0,0-2,.06,4.69,4.69,0,0,0-1.19,1.79,2.55,2.55,0,0,0,.05,2l.65,1.35a5.48,5.48,0,0,0,1.79,1.22v.34l1.5.53q24.11,11.74,58.14,48.94a401.45,401.45,0,0,1,52.46,70.2,432.46,432.46,0,0,1,20.81,38.93l1.61,3.48q-35.15-40-106.06-31.62,54.62,45.9,106.06,31.62c23.66,51,25,42,50,129.79Z" transform="translate(-40.42 -108.44)"/><path class="cls-2" d="M3122.93,1873.15H184.19a16.92,16.92,0,0,1-16.91-16.92h0a16.92,16.92,0,0,1,16.91-16.91H3122.93a16.91,16.91,0,0,1,16.91,16.91h0A16.92,16.92,0,0,1,3122.93,1873.15Z" transform="translate(-40.42 -108.44)"/><g id="c"><path class="cls-4" d="M601.07,728.31l-4-26.73s18.72-2.92,17.73-16.07l-19.69-.24s-10.6-9.71,1.57-39.25c2.81-27.79-15.52-13.85-18-22.65-3.68-13-26.93,13-27.64,40.53-.93,35.57,18,64.35,18,64.35Z" transform="translate(-40.42 -108.44)"/></g><path d="M886,1794.31c6.36-17.59,19.93-19.55,19.93-19.55,26.4,37.13,91.22,14.35,89.08,64.57-98.58-.65-139.55,0-139.55,0,.13-11.54,2.08-38.91,4.36-49.63l5.13,1Z" transform="translate(-40.42 -108.44)"/><path d="M738.56,1795.28c6.35-17.59,19.93-19.54,19.93-19.54,26.4,37.13,91.22,14.34,89.07,64.56-98.57-.64-139.54,0-139.54,0,.13-11.53,2.08-38.91,4.35-49.63l5.14,1Z" transform="translate(-40.42 -108.44)"/><path class="cls-5" d="M951.61,1207.94s16,238,9.5,290.87-29.53,120.73-26.92,295.72c-32.13,8.2-78.69,0-78.69,0s-6.9-197.87,27.07-286.24c-13.81-85.85-58.14-282.47-58.14-282.47Z" transform="translate(-40.42 -108.44)"/><path class="cls-6" d="M903.84,1214.45s-32.32,267.15-48.14,317.82-46.66,93.52-75.3,265.91c-33,1.68-72.38-6.89-72.38-6.89s13.06-211.78,64.49-261.5c1.74-87.06-8.32-313.63-8.32-313.63Z" transform="translate(-40.42 -108.44)"/><path class="cls-2" d="M779.14,893.56s-2.37,1.84-135.51-21.08a.11.11,0,0,0-.11,0l-47.1,40.15a.13.13,0,0,0,0,.19c35.1,38.82,186.44,62.56,186.44,62.56Z" transform="translate(-40.42 -108.44)"/><polygon class="cls-2" points="795.32 755.95 842.1 748.4 888.5 758.06 840.71 814.3 795.32 755.95"/><path class="cls-4" d="M852.91,891.72c18.5,14.45,38.09,20.63,58.45,6l2.8-72-61-.73Z" transform="translate(-40.42 -108.44)"/><path class="cls-2" d="M942.68,890.92h0l-14.32-4.59.55-19.83-36.62,33.67-10.81,2.47-10.69-3-35.06-35.29-.35,19.83-12.14,3.29h0l-51.44,7.06v228.69L752.6,1229c60.21,15.66,149.92,16.5,214.08,3.25l-10.61-96.38,20.42-232Z" transform="translate(-40.42 -108.44)"/><path class="cls-7" d="M883.68,928.12s-6.43,139.85-17,211.45c3.4,4.1,18.73,22.66,18.73,22.66s18.63-17.65,23.67-20.83c11.46-126.2-9.19-212.62-9.19-212.62Z" transform="translate(-40.42 -108.44)"/><polygon class="cls-8" points="831.5 795.36 851.23 790.27 865.67 796.04 859.51 820.34 842.05 820.29 831.5 795.36"/><path class="cls-9" d="M891.65,898.71s-15.89,21-30.36,29.38l-37.14-39.38,11.42-24.34Z" transform="translate(-40.42 -108.44)"/><path class="cls-9" d="M891.65,898.71s12.57,18.26,28.93,30.35l28.93-36.25-20.6-26.31Z" transform="translate(-40.42 -108.44)"/><path class="cls-2" d="M564.1,724.19c21.17-4.89,32.26-6.94,48.22-5.42,27,116,49.87,160.91,35.59,192.11-11.91,26-41.29,21-53.83-.49C577.53,882,570.25,779.35,564.1,724.19Z" transform="translate(-40.42 -108.44)"/><path class="cls-2" d="M976.49,903.93C1008,905.1,1045,1053,1045,1053l61.57-65.71,24.56,57.93s-80.26,102.3-115,91.88c-32.46-9.74-49-126.39-49-126.39Z" transform="translate(-40.42 -108.44)"/><path class="cls-6" d="M834.07,822.4c-30,3.57-45.74-34.8-45.74-34.8-18.4-3-15.29-21.36-15.29-21.36-8.73-2.67-20.36-12-16.62-28.7,3.18-14.1,17-13.44,18.79-30,1.43-13.25-8.08-45.73,34.22-48.24,0,0,1-24.63,26.45-30.52,31.16-7.21,38.86,11.51,52.51,14.88,15.25,3.75,48.05-10.27,52.32,25,0,0,21.77.51,31.78,16.36,9.32,14.76,3.85,33.63-2.42,40.57,0,0,17.46,6,21.47,22.49,2.69,11.09-1.64,25.42-12.69,32.38a32.14,32.14,0,0,1-13.7,4.83c-7.13,1.16-7.58,20.26-13.87,24-10.08,5.92-21,10.1-32.18,13.4Z" transform="translate(-40.42 -108.44)"/><path class="cls-4" d="M949.53,749.06c3.47,51.8-25,95.88-63.5,98.46s-72.58-37.33-76-89.13,27.35-85.26,65.88-87.83S946.07,697.26,949.53,749.06Z" transform="translate(-40.42 -108.44)"/><path d="M851.75,775.7a7.43,7.43,0,1,1,6.92-7.91A7.43,7.43,0,0,1,851.75,775.7Z" transform="translate(-40.42 -108.44)"/><path d="M910.85,771.75a7.43,7.43,0,1,1,6.91-7.91A7.44,7.44,0,0,1,910.85,771.75Z" transform="translate(-40.42 -108.44)"/><path class="cls-6" d="M923,756.78a3.57,3.57,0,0,1-3.19-1.54c-2-3-4.38-4.67-7-5.06-4.46-.68-8.61,2.55-8.66,2.58a3.57,3.57,0,0,1-4.46-5.57c.27-.22,6.55-5.19,14.12-4.08,4.64.68,8.63,3.4,11.85,8.09a3.58,3.58,0,0,1-.92,5A3.51,3.51,0,0,1,923,756.78Z" transform="translate(-40.42 -108.44)"/><path class="cls-6" d="M836.76,762.91a3.51,3.51,0,0,1-2.27-.64,3.56,3.56,0,0,1-.89-5c4.29-6.15,9.26-9.68,14.77-10.48A17.47,17.47,0,0,1,860.9,750a3.57,3.57,0,0,1-4.44,5.6,10.24,10.24,0,0,0-7.16-1.74c-3.44.53-6.76,3.05-9.85,7.49A3.55,3.55,0,0,1,836.76,762.91Z" transform="translate(-40.42 -108.44)"/><path class="cls-10" d="M888.61,775.57c10,6.27,13.23,8.91,17.09,11-2,8.73-15.13,13.88-19,13.15,9-5.24,9.94-11.57,9.94-11.57Z" transform="translate(-40.42 -108.44)"/><path class="cls-4" d="M822.44,766.91c7.2,10.74,6.58,23.77-1.38,29.11s-20.25,1-27.45-9.79S787,762.45,795,757.12,815.24,756.17,822.44,766.91Z" transform="translate(-40.42 -108.44)"/><path class="cls-10" d="M815.34,787.27a2.14,2.14,0,0,1-.93-.12,2.38,2.38,0,0,1-1.47-3c1.42-4.12,1.24-7.36-.53-9.6-2.74-3.47-8.72-4.2-13-3.77a2.38,2.38,0,1,1-.47-4.73c5.74-.58,13.27.57,17.2,5.54,2,2.48,3.77,6.94,1.29,14.12A2.36,2.36,0,0,1,815.34,787.27Z" transform="translate(-40.42 -108.44)"/><path class="cls-9" d="M859.48,811.69A2.32,2.32,0,0,1,861.7,808a165.48,165.48,0,0,0,43.86,1,2.32,2.32,0,0,1,2.06,3.75c-3.88,5-11.82,12.52-24.36,12.24S863.13,816.85,859.48,811.69Z" transform="translate(-40.42 -108.44)"/><path class="cls-6" d="M785.51,721.5,868,652.38l93.35,45.31L951.2,764.57c-3-30.75-21.63-20.44-31.55-29.26s-14.65-23.1-37.65-10c0,0-19.12-12.62-28.44,5.88-7.21,14.3-17.43,11.78-27.54,12.73-11.94,1.11-8.86,12.66-16.17,12.43Z" transform="translate(-40.42 -108.44)"/><path class="cls-11" d="M784.57,509.27a21.57,21.57,0,0,0-4.8-8.19c-17-24.54-56.07-10.07-112.91,6.37-9.5,2.75-7.59-10-11.94-35.42-2.83-16.51-20.74-37.59-38-32.17-28.42,8.95,5.94,22.66-1.81,85.75-4.14,33.71-39.35,26.64-30,56.26l21.23,67.41c3.62,11.53,8.25,22.26,25.11,19,16.34-3.2,16.32,9.12,39.09,1.95l114-35.88A22.05,22.05,0,0,0,799,606.7a21.68,21.68,0,0,0-8.41-11.3,21.63,21.63,0,0,0-3.26-32.95A21.75,21.75,0,0,0,781.78,528a21.8,21.8,0,0,0,2.79-18.73Z" transform="translate(-40.42 -108.44)"/><path class="cls-12" d="M715.77,554l54.35-17.12a22.18,22.18,0,0,0,14.88-16,5.79,5.79,0,0,0-11.28-2.61,10.53,10.53,0,0,1-7.07,7.58L711,543.38a10.44,10.44,0,1,1-6.27-19.91l37.19-11.71a5.77,5.77,0,1,0-3.47-11l-37.19,11.71a22.05,22.05,0,0,0-14.46,27.59,21.83,21.83,0,0,0,12.65,13.61,21.7,21.7,0,0,0,11.1,30.53,21.84,21.84,0,0,0,12.7,31.12,21.74,21.74,0,0,0-1,15.55,22.06,22.06,0,0,0,27.66,14.34l34.64-10.91a22.2,22.2,0,0,0,14.88-16,5.75,5.75,0,0,0-4.3-6.93,5.82,5.82,0,0,0-7,4.3,10.56,10.56,0,0,1-7.07,7.59l-34.65,10.91a10.44,10.44,0,1,1-6.27-19.91l41.11-12.94a22.18,22.18,0,0,0,14.87-16,5.79,5.79,0,0,0-11.27-2.63,10.42,10.42,0,0,1-7.07,7.59l-44.62,14a10.44,10.44,0,1,1-6.27-19.92L778,568.37a22.21,22.21,0,0,0,14.89-16,5.79,5.79,0,0,0-11.28-2.63,10.42,10.42,0,0,1-7.07,7.59L722,573.89A10.44,10.44,0,1,1,715.77,554Z" transform="translate(-40.42 -108.44)"/><path class="cls-13" d="M617.33,678.27l-35.49,11.18a9.35,9.35,0,0,1-11.71-6.1l-33.2-105.47a9.34,9.34,0,0,1,6.1-11.71L578.52,555a9.33,9.33,0,0,1,11.71,6.1l33.2,105.47A9.32,9.32,0,0,1,617.33,678.27Z" transform="translate(-40.42 -108.44)"/><path class="cls-4" d="M590.72,687.24c4.77-1.79,7.74-2.63,8.43-9.91s.12-16.54,6.19-13.51,10.34,17.33,9.32,23.2C607.65,691.25,590.72,687.24,590.72,687.24Z" transform="translate(-40.42 -108.44)"/><path class="cls-9" d="M564.1,724.19l-4.29,26.31,66.37-7.31-14.43-25.41S585.16,717.39,564.1,724.19Z" transform="translate(-40.42 -108.44)"/><path class="cls-4" d="M2635.81,732.61s.58,32.85,4,59.59c0,0,27.73-36.37,27.72-36.4-2.54-10.69-5.46-31-4.66-42.78C2663,710,2606.41,707.66,2635.81,732.61Z" transform="translate(-40.42 -108.44)"/><path d="M2864,1778c-26,34.73-90,13.42-87.85,60.39,97.23-.6,137.64,0,137.64,0-.13-10.79-2.05-36.4-4.29-46.42Z" transform="translate(-40.42 -108.44)"/><path d="M3009.45,1778.88c-26,34.73-90,13.42-87.86,60.39,97.24-.6,137.64,0,137.64,0-.12-10.79-2.05-36.39-4.29-46.42Z" transform="translate(-40.42 -108.44)"/><path class="cls-5" d="M2819,1247.78s-15.78,222.58-9.37,272.07,29.12,112.93,26.55,276.61c31.7,7.67,77.62,0,77.62,0s6.81-185.08-26.7-267.75c13.62-80.3,57.35-264.21,57.35-264.21Z" transform="translate(-40.42 -108.44)"/><path class="cls-6" d="M2879,1253.86s31.88,249.89,47.48,297.29,31.32,78.94,59.57,240.19c32.57,1.57,86.11,2.08,86.11,2.08s-12.89-198.09-63.62-244.6c-1.71-81.43,8.21-293.35,8.21-293.35Z" transform="translate(-40.42 -108.44)"/><path class="cls-4" d="M3008.79,845c-17.28,43.17-58.78,67.17-92.69,53.6s-47.39-59.57-30.11-102.75,58.77-67.17,92.68-53.6S3026.06,801.86,3008.79,845Z" transform="translate(-40.42 -108.44)"/><path d="M2900.73,810.06a6.35,6.35,0,1,1-1.59-8.84A6.35,6.35,0,0,1,2900.73,810.06Z" transform="translate(-40.42 -108.44)"/><path d="M2948.31,829.48a6.88,6.88,0,1,1-1.72-9.57A6.87,6.87,0,0,1,2948.31,829.48Z" transform="translate(-40.42 -108.44)"/><path class="cls-10" d="M2910.38,820.2c-8.59,6.77-19.33,14.94-19.33,14.94s-.11,10.35,12,14.84c-4.38-4-8.22-9.26-3.66-15.36S2910.38,820.2,2910.38,820.2Z" transform="translate(-40.42 -108.44)"/><path d="M2960.83,825.35a3.16,3.16,0,0,1-3.08-2.44c-.09-.34-2.22-8.6-9.29-8.63a3.17,3.17,0,0,1,0-6.34c9.67,0,14.32,8.85,15.43,13.5a3.17,3.17,0,0,1-2.35,3.82A3,3,0,0,1,2960.83,825.35Z" transform="translate(-40.42 -108.44)"/><path d="M2907.38,796.63a2.64,2.64,0,0,1-2.27-1.29,7.69,7.69,0,0,0-4.59-3.32c-2-.35-4.25.46-6.71,2.43a2.64,2.64,0,0,1-3.3-4.13c3.73-3,7.43-4.15,11-3.49,5.25,1,8,5.62,8.14,5.82a2.65,2.65,0,0,1-2.28,4Z" transform="translate(-40.42 -108.44)"/><path d="M2996.73,849.54C2984.24,809.37,3000,788,3000,788c-10.73-2.14-14.9,1.57-14.9,1.57-5.85-12-1.32-20.63-1.32-20.63-22.17-8.64-33.21,5.72-53.22,10.56-27.39,6.62-61.23-4.31-64.4-37.75a5.71,5.71,0,0,1,8.91-5.27,25.11,25.11,0,0,0,14.92,4.36,26.86,26.86,0,0,1-6-15.43,5.7,5.7,0,0,1,9.42-4.44c5.7,4.74,16.26,9.22,35.1,5.69,12.54-2.35,41.24-22.44,59.12-18.51,14.62,3.2,26.22,15.64,31.21,33.45,0,0,35.93,3.72,39.53,43.26,3.54,38.85-41.46,68.66-41.46,68.66Z" transform="translate(-40.42 -108.44)"/><path class="cls-4" d="M2991.83,842.84c-9.51,5.39-13.65,16.07-9.24,23.86s15.71,9.73,25.22,4.34,13.65-16.08,9.24-23.86S3001.35,837.45,2991.83,842.84Z" transform="translate(-40.42 -108.44)"/><path class="cls-10" d="M2993.37,866.21a2.41,2.41,0,0,1-.73-.82c-2.64-4.84-2.23-9.79,1.1-13.23a11.52,11.52,0,0,1,13.12-2.46,2.39,2.39,0,0,1-2.15,4.28,6.78,6.78,0,0,0-7.53,1.5c-1.86,1.92-2,4.62-.34,7.62a2.4,2.4,0,0,1-3.47,3.11Z" transform="translate(-40.42 -108.44)"/><path class="cls-9" d="M2893,863.78a2,2,0,0,1,2.14-3,142.54,142.54,0,0,0,38,3.39,2,2,0,0,1,1.56,3.38c-3.64,4.1-11,10.17-21.82,9.2S2895.88,868.46,2893,863.78Z" transform="translate(-40.42 -108.44)"/><path class="cls-5" d="M2841.85,918.24s-4.86-2.12-127.69-31.82a.12.12,0,0,0-.1,0L2667.59,921a.13.13,0,0,0,0,.18c30.34,38.42,169,68.68,169,68.68l5.24-71.57Z" transform="translate(-40.42 -108.44)"/><polygon class="cls-2" points="2857.81 808.3 2901.95 804.18 2944.64 816.09 2896.54 865.59 2857.81 808.3"/><path class="cls-4" d="M2913.53,939.46c18,14.77,23.4,25,59.87,5.24l5.73-58.75-62.2-4.9Z" transform="translate(-40.42 -108.44)"/><path class="cls-2" d="M2996.39,948.18h0L2983.31,943l1.75-18.47-36.28,29.13-10.24,1.63-9.8-3.42-30.51-35.13-1.57,18.49-11.54,2.32h0l-41.61,6.74-5,231-16.42,78.59c55.23,18.37,117,23,177.69,14.59l-2-78.9,43.13-225.75Z" transform="translate(-40.42 -108.44)"/><polygon class="cls-6" points="2890.14 870.19 2864.07 1046.55 2878.51 1066.61 2897.33 1052.15 2903.73 871.65 2890.14 870.19"/><polygon class="cls-6" points="2888.59 849.37 2898.12 846.85 2907.83 851.09 2903.72 872 2890.05 870.78 2888.59 849.37"/><path class="cls-6" d="M2897.62,918.75l-7,212.94-28.19,137.18s-44.6-4.5-72-30.57L2825.51,1135l15.22-217.14Z" transform="translate(-40.42 -108.44)"/><polygon class="cls-14" points="2857.2 810.3 2850.21 1020.39 2817.74 859.31 2857.2 810.3"/><path class="cls-6" d="M2988.4,931.85l-57.91,345.38s76.84,9.44,108.44-11.34l-17.15-113.54,21-192.75Z" transform="translate(-40.42 -108.44)"/><polygon class="cls-14" points="2947.98 823.41 2914.14 1025.84 2974.74 873.11 2947.98 823.41"/><path class="cls-5" d="M2623.07,750.69c19.28-6.43,29.43-9.32,44.42-9.32,35.44,105.62,60.7,145.41,50.16,175.73-8.78,25.28-36.57,23.26-50.16,4.32C2649.56,896.43,2633.69,801.5,2623.07,750.69Z" transform="translate(-40.42 -108.44)"/><path class="cls-11" d="M2902.22,1413.77a19.09,19.09,0,0,1-.28-8.39c1.15-26.34,37.11-33.94,87.27-48.47,8.39-2.43.94-11.07-7.78-32.07-5.67-13.65-2.24-37.83,13.18-41.9,25.43-6.72,6.24,19.71,41.77,63.14,19,23.21,41.93,1.34,48.93,27.84l15.94,60.32c2.73,10.32,4.33,20.5-9.81,26-13.71,5.32-7.88,14.5-28.26,19.89l-102,27a19.47,19.47,0,0,1-23.8-13.78,19.2,19.2,0,0,1,.95-12.4,19.1,19.1,0,0,1-13.1-26.13,19.21,19.21,0,0,1-12.1-28.33,19.23,19.23,0,0,1-10.91-12.65Z" transform="translate(-40.42 -108.44)"/><path class="cls-12" d="M2974.64,1414.69,2926,1427.54a19.6,19.6,0,0,1-18.63-4.9,5.11,5.11,0,0,1,7.18-7.27,9.31,9.31,0,0,0,8.85,2.33l49.8-13.16a9.22,9.22,0,1,0-4.71-17.82l-33.27,8.79a5.09,5.09,0,1,1-2.61-9.85l33.29-8.79a19.45,19.45,0,0,1,23.79,13.78,19.2,19.2,0,0,1-3,16.11,19.16,19.16,0,0,1,6.12,28A19.28,19.28,0,0,1,2998,1464a19.17,19.17,0,0,1,8.09,11.13,19.45,19.45,0,0,1-13.88,23.73l-31,8.2a19.61,19.61,0,0,1-18.63-4.91,5.08,5.08,0,0,1-.06-7.2,5.13,5.13,0,0,1,7.23-.07,9.33,9.33,0,0,0,8.86,2.33l31-8.19a9.22,9.22,0,1,0-4.71-17.82l-36.78,9.72a19.62,19.62,0,0,1-18.63-4.91,5.11,5.11,0,0,1,7.17-7.28,9.2,9.2,0,0,0,8.86,2.34l39.93-10.55a9.22,9.22,0,1,0-4.71-17.82L2935,1454.78a19.6,19.6,0,0,1-18.63-4.9,5.07,5.07,0,0,1-.06-7.2,5.12,5.12,0,0,1,7.23-.08,9.2,9.2,0,0,0,8.86,2.33l47-12.41a9.22,9.22,0,1,0-4.71-17.83Z" transform="translate(-40.42 -108.44)"/><path class="cls-13" d="M3106.71,1461.06l31.76-8.39a8.24,8.24,0,0,0,5.86-10.07l-24.94-94.37a8.23,8.23,0,0,0-10.07-5.86l-31.76,8.39a8.23,8.23,0,0,0-5.85,10.07l24.93,94.37A8.24,8.24,0,0,0,3106.71,1461.06Z" transform="translate(-40.42 -108.44)"/><g id="c-2" data-name="c"><path class="cls-4" d="M3099.08,1312.65l.59,25.28s-18-.54-18.67,11.78l16.94.53s10.31,13.31-4.47,39.3c-5.89,25.45,12.76,14.68,14,23.14,1.89,12.48,26.53-8.92,30.44-34.35,5.06-32.9-1.66-36.85-1.66-36.85l-7.44-25Z" transform="translate(-40.42 -108.44)"/></g><path class="cls-5" d="M3042.74,959.6c29.38,3.06,101.87,184.23,101.87,184.23l-4.77,182.88-47.59-7.68-10.79-156.12-50.17-98Z" transform="translate(-40.42 -108.44)"/><path class="cls-9" d="M2938.54,955.29s-16.43,16.59-31.53,20.83l-17.76-47,9-12.4Z" transform="translate(-40.42 -108.44)"/><path class="cls-9" d="M2938.54,955.29a79.1,79.1,0,0,0,27.32,26.11l25.92-43.26-6.72-13.61Z" transform="translate(-40.42 -108.44)"/><path class="cls-4" d="M2263.38,645.21c-.51,8.38,1.76,17.93-1.16,25.94L2280.9,681c22.79-14.22,25.89-45.13,26.2-48.56.78-8.91,1.7-13,.51-13.75s-9.13-2.88-10.69,10.06c-2,16.23-14.92,5.45-2.57-27.48,3.09-8.25-.92-23.77-6.95-18.16C2280.76,589.29,2265.71,607.06,2263.38,645.21Z" transform="translate(-40.42 -108.44)"/><polygon class="cls-4" points="2378.47 1657.13 2375.84 1684.19 2398.47 1691.06 2416.66 1671.65 2419.64 1660.48 2378.47 1657.13"/><polygon class="cls-4" points="2307.8 1680.06 2304.64 1655.46 2352.76 1652.23 2352.18 1679.96 2307.8 1680.06"/><path class="cls-5" d="M2387.25,758.07c-26.32-23.93-73-22.38-80.16,15.1s-4.71,62.41-51.35,56.61c-37.15-4.61-75.33,28.74-75.31,81.16,0,67.06,46.5,40.94,35.74,74.07s-17.68,66.73,30.25,67.81,85.16-39.09,79.53-93.6,29.28-34.52,39.42-61.48C2379.8,859.4,2387.25,758.07,2387.25,758.07Z" transform="translate(-40.42 -108.44)"/><path class="cls-15" d="M2491.18,1219.37s34.74,220,25.37,314.24-56.49,235.31-56.49,235.31l-41.17-3.35s2.59-14.46,1.27-69.91-9.62-133.59,22.38-170.56c-4-72.09-49.36-305.73-49.36-305.73Z" transform="translate(-40.42 -108.44)"/><path class="cls-15" d="M2320.34,1212c-18,64.69-19,244-4.09,347.52s28.8,204.42,28.8,204.42l48.13.68V1513.28c0-44.37,12-181.15,12-181.15l15-112.76Z" transform="translate(-40.42 -108.44)"/><ellipse class="cls-4" cx="2373.05" cy="724.21" rx="58.23" ry="78.28"/><path class="cls-4" d="M2390.78,894.9v83.19s27.73,14.78,51.76,0c-3.7-18.49-5.89-77.38-5.89-77.38Z" transform="translate(-40.42 -108.44)"/><path class="cls-16" d="M2341.18,939.78h138s24.78,55.64,21.42,103.27-9.42,177.24-9.42,177.24-117.63,11.45-171.67-5.23a1925.2,1925.2,0,0,1,1.67-204.71C2323.18,978.59,2341.18,939.78,2341.18,939.78Z" transform="translate(-40.42 -108.44)"/><path class="cls-17" d="M2390.78,939.78c-3.51-1.65-34.71-2.9-34.71-2.9s-47.89-99.9-64.61-129.61C2280.07,759.56,2280.9,681,2280.9,681l-18.68-9.84s-31.28,93.73-23.45,137.07c2.07,11.44,61.07,164.39,61.07,164.39s-14.42,181.52-21.81,224.47c51.49,11.51,85,3,85,3Z" transform="translate(-40.42 -108.44)"/><path class="cls-17" d="M2438.66,939.78,2464.87,1200s21.51,6.92,67.73-6.82c1.84-55-17.81-227.77-17.81-227.77s41.19-68.05,66.14-168.33c-1.84-37.79-18.24-124.43-18.24-124.43l-47.86-2.55,17,122.36s-58.73,128.14-64.77,146.63C2446.73,937.63,2438.66,939.78,2438.66,939.78Z" transform="translate(-40.42 -108.44)"/><path class="cls-6" d="M2351.35,832.65c32.15-4.11,62-22,78.92-45.17,10.91,27.06,41.43,45.17,41.43,45.17S2494.56,780.9,2453,753C2413.29,726.35,2318.62,744.54,2351.35,832.65Z" transform="translate(-40.42 -108.44)"/><path d="M2389,849.36a6.19,6.19,0,1,1,6.19-6.19A6.19,6.19,0,0,1,2389,849.36Z" transform="translate(-40.42 -108.44)"/><path d="M2438.29,849.36a6.19,6.19,0,1,1,6.19-6.19A6.19,6.19,0,0,1,2438.29,849.36Z" transform="translate(-40.42 -108.44)"/><path class="cls-6" d="M2449.19,837.59a3,3,0,0,1-2.56-1.45c-1.53-2.58-3.38-4.13-5.5-4.6-3.67-.81-7.3,1.64-7.34,1.67a3,3,0,0,1-3.4-4.88c.23-.16,5.73-4,12-2.61,3.82.83,7,3.31,9.4,7.38a3,3,0,0,1-2.56,4.49Z" transform="translate(-40.42 -108.44)"/><path class="cls-6" d="M2377.22,837.89a2.92,2.92,0,0,1-1.85-.65,3,3,0,0,1-.47-4.18c3.91-4.87,8.23-7.53,12.86-7.89a14.48,14.48,0,0,1,10.23,3.38,3,3,0,0,1-4,4.4,8.56,8.56,0,0,0-5.86-1.84c-2.89.25-5.78,2.16-8.6,5.67A3,3,0,0,1,2377.22,837.89Z" transform="translate(-40.42 -108.44)"/><path class="cls-10" d="M2419.6,851.29c8,5.78,10.5,8.14,13.59,10.07-2.13,7.14-13.34,10.69-16.53,9.87,7.81-3.85,8.91-9.06,8.91-9.06Z" transform="translate(-40.42 -108.44)"/><path class="cls-4" d="M2363.93,838.69c6.67,8.46,7,19.32.74,24.26s-16.75,2.11-23.43-6.35-7-19.31-.74-24.25S2357.25,830.24,2363.93,838.69Z" transform="translate(-40.42 -108.44)"/><path class="cls-10" d="M2358.07,857a2.07,2.07,0,0,1-.77-.15,2,2,0,0,1-1.06-2.6c1.42-3.35,1.45-6.05.1-8-2.09-3-7-4-10.59-3.85a2,2,0,0,1-.13-4c4.8-.16,11,1.21,14,5.56,1.49,2.17,2.75,6,.29,11.8A2,2,0,0,1,2358.07,857Z" transform="translate(-40.42 -108.44)"/><path class="cls-9" d="M2398,881.8a1.81,1.81,0,0,1,1.9-2.72,149.13,149.13,0,0,0,16.81,2.64,151.94,151.94,0,0,0,17,.38,1.8,1.8,0,0,1,1.39,3c-3.25,3.65-9.77,9-19.43,8.19S2400.56,886,2398,881.8Z" transform="translate(-40.42 -108.44)"/><path class="cls-7" d="M2439.43,1796.5c5.62-14.77,17.64-16.41,17.64-16.41,23.36,31.16,80.73,12,78.84,54.19-87.25-.54-123.51,0-123.51,0,.12-9.68,1.84-32.66,3.85-41.65l4.55.81Z" transform="translate(-40.42 -108.44)"/><path class="cls-9" d="M2372,1724.68h123.55a0,0,0,0,1,0,0V1732a5.09,5.09,0,0,1-5.09,5.09H2377.08A5.09,5.09,0,0,1,2372,1732v-7.32A0,0,0,0,1,2372,1724.68Z"/><path class="cls-7" d="M2403.17,1834.38s-6.86-25.59-7.46-28.87c-.69-3.74-2.71-12.58-3.12-17.11-.1-1.12-11.88-8.32-20.87-8.31-12.18,0-23.29,7.08-23.51,8.41-1.44,8.54-1.48,18.58-3.81,26.9-1.73,6.19-6.44,20.6-6.44,20.6Z" transform="translate(-40.42 -108.44)"/><path class="cls-9" d="M2403.17,1832.4c-1.6,5.08-21.32-.78-35.71-.78-12.09,0-27.73,4.68-29.5,2.86-3,5.34-.54,16.4-.54,16.4s12.6.65,27.7,0,32.56.31,39.14-1.64C2408.4,1842.3,2403.17,1832.4,2403.17,1832.4Z" transform="translate(-40.42 -108.44)"/><path class="cls-4" d="M505.61,1788.63,528.88,1697,471.15,1689c-2,43.34-5.22,86-4.94,97.57Z" transform="translate(-40.42 -108.44)"/><path class="cls-4" d="M367.86,1688.51H307.59c2,14.45,9.88,92.66,9.88,92.66,5.1,11.56,50,8.92,50,2.42C364.09,1769.5,367.58,1690.32,367.86,1688.51Z" transform="translate(-40.42 -108.44)"/><path class="cls-8" d="M466.42,1724.33l59.45,8.78,41.21-246.49c-8.49-93.55-90.83-292.56-90.83-292.56l-92.82,32.51-2.27,87.76,111.78,189.26C478.37,1540.19,468.4,1658.53,466.42,1724.33Z" transform="translate(-40.42 -108.44)"/><path class="cls-7" d="M420.48,1200.66c-.85-5.78-1.14-7.59-6-10.48l-89.14-25.28-21.22,20.95c-20.09,73-7.64,174.45,8.21,255-23.21,69.7-14.13,213.41-4.79,281H371c3.67-45.15,2.52-128.9,2.8-169.35h0c8.21-32.5,16.13-67.18,23.21-103.66,9.05-46.59,20.37-91.73,23.49-134C423.31,1274.7,424.16,1231.72,420.48,1200.66Z" transform="translate(-40.42 -108.44)"/><path class="cls-6" d="M462.82,940.11c34.23-7.27,108.33-33.62,81.34-85.22s-43.53-33.5-23.62-88.91S506.06,660.07,465.8,666.1s-54.44,36-100.77,21.52S273.17,712.08,285.72,753s17.62,60.49-2,79.48-98,31.56-73.66,86.89,39.15,54.18,24.65,78.82,6.53,57.87,50.69,59.82,85.91-9.1,108.61-55.58S462.82,940.11,462.82,940.11Z" transform="translate(-40.42 -108.44)"/><path class="cls-4" d="M342.5,786.43c-4.74,44.64,19.84,83.83,54.89,87.55s67.31-29.45,72-74.08-19.84-83.82-54.89-87.54S347.23,741.81,342.5,786.43Z" transform="translate(-40.42 -108.44)"/><path class="cls-4" d="M352.38,839.84l55.34,34.31s4.91,24.46,7.37,32.39c5.05,16.38-14.33,23.53-30.71,13.34a114.81,114.81,0,0,1-27-23.83Z" transform="translate(-40.42 -108.44)"/><path class="cls-6" d="M483.64,780.63c-16.21-1.1-28.07-12.08-38.39-29-20.48,43.15-101.82,55.62-106.84,46.51,3.56-31.42,11.2-79.86,70.86-95.06C456.15,691.11,483.64,780.63,483.64,780.63Z" transform="translate(-40.42 -108.44)"/><path d="M451.2,803.8a6.13,6.13,0,1,0,2.76-8.22A6.13,6.13,0,0,0,451.2,803.8Z" transform="translate(-40.42 -108.44)"/><path d="M402.88,798.43a6.64,6.64,0,1,0,3-8.9A6.63,6.63,0,0,0,402.88,798.43Z" transform="translate(-40.42 -108.44)"/><path class="cls-6" d="M467,795.75a2.24,2.24,0,0,0,.66-.36,2.3,2.3,0,0,0,.44-3.23A16.21,16.21,0,0,0,452.73,786a2.31,2.31,0,0,0,.87,4.53A11.6,11.6,0,0,1,464.44,795,2.31,2.31,0,0,0,467,795.75Z" transform="translate(-40.42 -108.44)"/><path class="cls-10" d="M439.92,812.28c1.64,4.54,2.85,9,4.94,12.17a2.44,2.44,0,0,1-.61,3.28c-4.26,3.12-12.72,3.44-17.77,3.32a.65.65,0,0,1-.17-1.27c6-1.81,9.05-3.73,10.51-4.9a2.9,2.9,0,0,0,1.07-2.39c-.09-2.13-.23-6.45-.09-9.9A1.09,1.09,0,0,1,439.92,812.28Z" transform="translate(-40.42 -108.44)"/><path class="cls-4" d="M357.29,805.84c6.58,8.25,6.44,19.3-.32,24.68s-17.56,3.06-24.14-5.19-6.43-19.3.32-24.69S350.71,797.58,357.29,805.84Z" transform="translate(-40.42 -108.44)"/><path class="cls-10" d="M350.56,823.62a2.29,2.29,0,0,0,.81-.68c3.2-4.25,3.5-9,.8-12.79A11.12,11.12,0,0,0,340,806a2.31,2.31,0,0,0,1.45,4.38,6.6,6.6,0,0,1,7,2.49c1.5,2.09,1.23,4.69-.75,7.33a2.31,2.31,0,0,0,2.88,3.45Z" transform="translate(-40.42 -108.44)"/><path class="cls-17" d="M479,982.24l-15.42-64.39c-8.6-4.74-49.43-14.54-49.43-14.54L409.34,919l-45.51-23-53.44,8.13c-8.9,38.57-1.82,50.32.85,96.33,1.49,21.65.82,74.61,5.56,112.16-19.57,44.33-31.65,86-31.95,98.82,0,0,142.61,31.94,147.35,31.94l10.68-28.08,20.45,22.33c3.86-2,26.68-29,26.68-29-9.19-34.51-14.32-89.6-14.32-89.6Z" transform="translate(-40.42 -108.44)"/><path class="cls-15" d="M356.8,888.81l-30.49,13C329,932.4,405,950.29,405,950.29L409.34,919Z" transform="translate(-40.42 -108.44)"/><path class="cls-15" d="M409.34,919l13.59,18.42s15.56-18.63,9.24-29.79-20.32-14.1-20.32-14.1Z" transform="translate(-40.42 -108.44)"/><path class="cls-10" d="M422.67,854.89a23.68,23.68,0,0,1-4.44-.42c-10.83-2.08-16.89-11.17-17.15-11.55a2.58,2.58,0,0,1,4.32-2.84h0c.05.08,5.18,7.69,13.86,9.33,5.65,1.07,11.66-.58,17.88-4.93a2.58,2.58,0,0,1,2.95,4.24C434.21,852.83,428.37,854.89,422.67,854.89Z" transform="translate(-40.42 -108.44)"/><path class="cls-11" d="M669.92,954.38a26.54,26.54,0,0,0-3.76-11.08c-14.45-33.85-65.15-26.1-137.81-20.41-12.14,1-6.66-14-5.6-45.71.69-20.62-15.66-50.51-37.81-48.25-36.51,3.72,1.54,28.81-23.51,103-13.39,39.65-54.11,22.36-50.23,60.41L420,1079c1.51,14.82,4.43,28.91,25.59,29.12,20.52.2,17.42,15.06,46.69,12.07l146.46-14.93a27.18,27.18,0,0,0,24.31-29.7,26.76,26.76,0,0,0-7.33-15.73,26.65,26.65,0,0,0,4.26-40.56,26.83,26.83,0,0,0,1.89-43,26.82,26.82,0,0,0,8-21.89Z" transform="translate(-40.42 -108.44)"/><path class="cls-12" d="M575.79,991.2l69.83-7.13a27.32,27.32,0,0,0,21.92-15.56,7.1,7.1,0,0,0-3.48-9.44,7.17,7.17,0,0,0-9.48,3.47,13,13,0,0,1-10.41,7.39l-71.51,7.3a12.86,12.86,0,1,1-2.61-25.59l47.79-4.87a7.11,7.11,0,1,0-1.44-14.14l-47.8,4.87a27.16,27.16,0,0,0-24.3,29.69,26.83,26.83,0,0,0,11.87,19.56,26.75,26.75,0,0,0,5.8,39.6,26.89,26.89,0,0,0,7.58,40.71,26.85,26.85,0,0,0-5.1,18.51,27.17,27.17,0,0,0,29.81,24.18l44.51-4.54a27.37,27.37,0,0,0,21.93-15.56,7.1,7.1,0,0,0-3.47-9.44,7.17,7.17,0,0,0-9.48,3.46,13,13,0,0,1-10.42,7.4l-44.52,4.54A12.86,12.86,0,1,1,590.2,1070l52.81-5.38a27.37,27.37,0,0,0,21.93-15.57,7.13,7.13,0,0,0-13-6,12.81,12.81,0,0,1-10.42,7.4l-57.33,5.85a12.86,12.86,0,1,1-2.61-25.59l65.68-6.7a27.35,27.35,0,0,0,21.92-15.56,7.13,7.13,0,0,0-12.94-6,12.86,12.86,0,0,1-10.43,7.4l-67.46,6.88a12.86,12.86,0,1,1-2.61-25.59Z" transform="translate(-40.42 -108.44)"/><path class="cls-13" d="M426.09,1116.68l-45.61,4.65a11.5,11.5,0,0,1-12.6-10.27L354.06,975.54a11.51,11.51,0,0,1,10.27-12.61l45.61-4.65a11.5,11.5,0,0,1,12.6,10.28l13.82,135.51A11.51,11.51,0,0,1,426.09,1116.68Z" transform="translate(-40.42 -108.44)"/><path class="cls-4" d="M467.12,1121.36c-8.58-1.31-17.87-6.2-24.82-1.23L431.22,1100c19.32-19.94,54.78-20.48,58.31-20,9.18,1.15,13.56,1.12,14,2.47s.92,9.85-12.49,8.61c-16.83-1.56-8.76,13.9,27.21,8.57,9-1.33,23.82,6.1,16.83,11C527.4,1116,506.17,1127.29,467.12,1121.36Z" transform="translate(-40.42 -108.44)"/><path class="cls-4" d="M292.82,1069.31c-13.35,4.53-21.17,46.48-17.44,49.72,57,22.91,169.65.58,169.65.58l9.72-20.82S367.86,1090.57,292.82,1069.31Z" transform="translate(-40.42 -108.44)"/><path class="cls-4" d="M273,943.74c-8.75,37.84-6.65,164.49,2.34,175.29l45.74-31s13.6-127.15,15.11-148.81C338.94,901.74,287.21,881.92,273,943.74Z" transform="translate(-40.42 -108.44)"/><path class="cls-15" d="M273,943.74c-8.75,37.84-19.08,144.8-10.09,155.59l65.22-30.86s6.55-107.57,8.06-129.23C338.94,901.74,287.21,881.92,273,943.74Z" transform="translate(-40.42 -108.44)"/><path class="cls-18" d="M258.14,1099.2l70-30.73s4.86,0,3.45,5.58c0,0,11.18,2.07,13.46,8.4l-48.5,51.84s-16.14-1.49-20.69-14.8C275.64,1119.36,259,1114.36,258.14,1099.2Z" transform="translate(-40.42 -108.44)"/><path id="c-3" data-name="c" class="cls-4" d="M650.21,932.46a7.06,7.06,0,0,1-.94-1.83l-.27.22c-5.67,4.3-12.76,4.49-15.84.42a6.57,6.57,0,0,1-1.09-2.2c-4.31,1.38-8.55.66-10.75-2.24a7.12,7.12,0,0,1-1.4-4c-4.21,1.66-8.8.85-11.26-2.4-3.09-4.06-1.66-10.33,3.17-14s11.25-3.35,14.34.72a8,8,0,0,1,1.48,3.43c5.33-3.18,11.39-3,14.18.69a6.76,6.76,0,0,1,1.09,2.2c4.31-1.39,8.55-.66,10.75,2.24a7.06,7.06,0,0,1,1.38,3.68c3.67-1.64,7.79-1,10,1.85,2.6,3.43,1.4,8.73-2.68,11.83S652.82,935.89,650.21,932.46Z" transform="translate(-40.42 -108.44)"/><path class="cls-6" d="M491.57,1787.15c6-15.85,18.94-17.62,18.94-17.62,25.09,33.46,86.69,12.93,84.66,58.19-93.69-.58-132.62,0-132.62,0,.12-10.4,2-35.07,4.13-44.73l4.89.87Z" transform="translate(-40.42 -108.44)"/><path class="cls-9" d="M422.13,1718H554.8a0,0,0,0,1,0,0v7.86a5.47,5.47,0,0,1-5.47,5.47H427.6a5.47,5.47,0,0,1-5.47-5.47V1718a0,0,0,0,1,0,0Z"/><path class="cls-6" d="M378.22,1828.16s-7.52-28.06-8.18-31.66c-.76-4.1-3-13.79-3.42-18.76-.11-1.23-13-9.12-22.88-9.11-13.36,0-25.53,7.76-25.78,9.22-1.57,9.37-1.62,20.37-4.17,29.49-1.9,6.79-7.06,22.59-7.06,22.59Z" transform="translate(-40.42 -108.44)"/><path class="cls-9" d="M378.22,1826c-1.75,5.57-23.38-.86-39.16-.85-13.25,0-30.39,5.13-32.33,3.13-3.32,5.85-.59,18-.59,18s13.81.71,30.37,0,35.69.34,42.9-1.8C384,1836.84,378.22,1826,378.22,1826Z" transform="translate(-40.42 -108.44)"/><g id="c-4" data-name="c"><polygon id="v-2" class="cls-4" points="2009 729.05 2008.97 729.05 1978.52 729.16 1971.63 795.11 1971.63 801.07 2007.17 819.83 2045.07 801.28 2038.94 729.16 2009 729.05"/><path class="cls-4" d="M2133.06,805.75c-18.74,46.83-63.74,72.85-100.51,58.14s-51.4-64.61-32.66-111.43,63.74-72.85,100.51-58.13S2151.8,758.93,2133.06,805.75Z" transform="translate(-40.42 -108.44)"/><path d="M2015.88,767.83a6.89,6.89,0,1,1-1.72-9.59A6.9,6.9,0,0,1,2015.88,767.83Z" transform="translate(-40.42 -108.44)"/><path d="M2067.47,788.89a7.46,7.46,0,1,1-1.86-10.38A7.45,7.45,0,0,1,2067.47,788.89Z" transform="translate(-40.42 -108.44)"/><path class="cls-10" d="M2026.34,778.82c-9.31,7.34-21,16.2-21,16.2s-.12,11.23,13,16.09c-4.75-4.3-8.91-10-4-16.65S2026.34,778.82,2026.34,778.82Z" transform="translate(-40.42 -108.44)"/><path class="cls-5" d="M2081.05,784.4a3.19,3.19,0,0,0,.8-.1,3.43,3.43,0,0,0,2.55-4.14c-1.21-5-6.25-14.58-16.73-14.64a3.44,3.44,0,0,0,0,6.88c7.76,0,10.06,9.27,10.08,9.36A3.44,3.44,0,0,0,2081.05,784.4Z" transform="translate(-40.42 -108.44)"/><path class="cls-5" d="M2023.09,753.26a2.83,2.83,0,0,0,1.45-.4,2.87,2.87,0,0,0,1-3.92c-.12-.21-3.14-5.25-8.82-6.3-3.89-.72-7.91.55-11.94,3.78a2.86,2.86,0,1,0,3.58,4.47c2.68-2.14,5.14-3,7.31-2.62a8.26,8.26,0,0,1,4.93,3.57A2.86,2.86,0,0,0,2023.09,753.26Z" transform="translate(-40.42 -108.44)"/><path class="cls-5" d="M2158.65,770.78c15.85-45.12-22.76-71.06-22.76-71.06s10.36-.93,11.6-15.47a38.22,38.22,0,0,1-24.08-.52c-51.46-18.63-86.89-18.38-86.89,3.64,0,7.83-35.2,2.91-32.35,55.63,4.73-4.94,13.16-25.84,24.63-28s1.12,13.17,25.1,16.46c24.19,3.32,42-2.55,56.76,11.09,11.57,11.9,14.44,72.47,12.68,76.11C2127.37,810.3,2151.68,790.61,2158.65,770.78Z" transform="translate(-40.42 -108.44)"/><path class="cls-5" d="M1992.8,778.82s-2.19,27.47,1.77,36c4.13-11,13,.66,21.29,1.76,20.09,2.65,56.34-4,59.93,26.09,24.55,7.77,47.55-44.78,47.55-44.78,1.41,58.71-41.55,92-103.38,82.28C1979.22,873.71,1975.44,817,1992.8,778.82Z" transform="translate(-40.42 -108.44)"/><path class="cls-10" d="M2035.15,835.11a52.4,52.4,0,0,0,12.4-4.86,2.29,2.29,0,0,0-2.16-4c-9.51,5.08-18,6.53-25.34,4.3a23.9,23.9,0,0,1-13.2-10.44,2.29,2.29,0,0,0-4.06,2.13,28.2,28.2,0,0,0,15.84,12.67A30.94,30.94,0,0,0,2035.15,835.11Z" transform="translate(-40.42 -108.44)"/><path class="cls-4" d="M2123.92,798.24c-10.34,5.81-14.87,17.38-10.12,25.84s17,10.61,27.33,4.81,14.87-17.38,10.12-25.84S2134.26,792.44,2123.92,798.24Z" transform="translate(-40.42 -108.44)"/><path class="cls-10" d="M2125.49,823.59a2.53,2.53,0,0,1-.79-.89c-2.84-5.26-2.38-10.63,1.25-14.35a12.48,12.48,0,0,1,14.23-2.6,2.59,2.59,0,0,1-2.34,4.62,7.42,7.42,0,0,0-8.18,1.6c-2,2.07-2.16,5-.4,8.27a2.59,2.59,0,0,1-3.77,3.35Z" transform="translate(-40.42 -108.44)"/><path d="M1993.86,1778.23c-26.92,37.14-93,14.35-90.83,64.58,100.52-.64,142.3,0,142.3,0-.13-11.54-2.12-38.92-4.43-49.64Z" transform="translate(-40.42 -108.44)"/><path d="M2152.39,1778.23c-26.92,37.14-93,14.35-90.84,64.58,100.53-.64,142.31,0,142.31,0-.13-11.54-2.12-38.92-4.44-49.64Z" transform="translate(-40.42 -108.44)"/><path class="cls-5" d="M1948.09,1210.41S1918.94,1457,1925.57,1510s42.94,112.2,40.28,287.25c32.77,8.2,80.25,0,80.25,0s7-197.94-27.6-286.35c14.08-85.87,59.29-282.57,59.29-282.57Z" transform="translate(-40.42 -108.44)"/><path class="cls-6" d="M2009.36,1217.71s33,267.25,49.09,317.94,38.14,89.1,67.34,261.55c33.68,1.69,74.5,4.45,74.5,4.45s-4.55-218.74-57-268.49c-1.77-87.08,8.48-313.73,8.48-313.73Z" transform="translate(-40.42 -108.44)"/><g id="v"><path id="h-5" class="cls-7" d="M2161.29,914.4s-57.25-20-76.33-10.85c-59.31,28.56-72.92,0-72.92,0-20.8-4.61-69.94-4.61-69.94-4.61-6.22,83-16.53,348.51-16.53,348.51s63.11,16.54,122.81,17c59.7-.39,120.46-16.3,120.46-16.3s-3.19-116.06-5.84-159.19C2163.86,1040.58,2161.29,978.12,2161.29,914.4Z" transform="translate(-40.42 -108.44)"/></g><g id="c-5" data-name="c"><path class="cls-4" d="M2193.73,1167.88l-10.88,13.44s-4-18.33-16.58-15.86v19.64s-7.1,11.32-37,3c-27.15.46-11.59,16.56-19.8,20-12.1,5,15.67,24.5,42.29,22,34.44-3.17,36.73-10.94,36.73-10.94l20.42-14.73Z" transform="translate(-40.42 -108.44)"/></g><path class="cls-8" d="M2161.29,914.4c52.29,22.5,116.46,74.35,155.95,156.48,13.54,28.17-50.84,33.86-63.67,22.75s-92.28-94-92.28-94Z" transform="translate(-40.42 -108.44)"/><path class="cls-8" d="M2186,1175.65c45.74-61.51,66.18-110.2,80.93-117.7,19.74-10,52.22-9.54,52.21,24.83s-125.48,138.51-125.48,138.51Z" transform="translate(-40.42 -108.44)"/><polygon class="cls-8" points="1901.68 790.5 1676.18 710.22 1641.05 763.32 1895.86 889.37 1901.68 790.5"/></g><path class="cls-4" d="M1344.71,887.13c4.51,12.85,45.09,20,48.17,16.33,21.54-55.3-1.16-163.77-1.16-163.77l-20.19-9.18S1364.48,814.48,1344.71,887.13Z" transform="translate(-40.42 -108.44)"/><path class="cls-4" d="M1243.69,994.94c37.84-12.08,145-79.87,149.79-93.41l-44.83-24s-122.1,54.25-141.92,64.23C1172.35,959,1182,1014.78,1243.69,994.94Z" transform="translate(-40.42 -108.44)"/><path class="cls-6" d="M1272.18,790.23c2.85-38.8-8.37-73.07-39.3-90.53-31.36-17.69-70.64-.34-70.64-.34h0s-33.24-11.83-63.37,21.36-7.34,62.4-19.67,86.61c-7.3,14.33-44.42,17.29-34.83,64,2.77,13.46,19,22.53,32.68,23.43,24.1,1.58,46.54-7.74,56.31,1.58,32.2,30.7,103.54,19.6,113.53-8.48,3.09-8.71,67.27,8.14,60.86-51.17C1304.51,806.62,1269.63,824.9,1272.18,790.23Z" transform="translate(-40.42 -108.44)"/><path class="cls-17" d="M1275.79,1112.35c0-32.43,28.1-81,14.63-113.77-9.81-26.33-26.21-70.55-46.29-77.92-9.47-3.48-19.21-5.91-31-9.17,0,0,3.67,21.58-10.21,22.69-26.7,2.14-40.74-32.1-40.74-32.1-14.4-1.38-80,20-83.06,30.57.16,42.48,37.31,99.66,48.59,145.59,4.44,49.61-6.16,76.1-6.22,81.74,0,0,93.79,31.34,156.78-3.34C1278.26,1156.64,1275.79,1134.26,1275.79,1112.35Z" transform="translate(-40.42 -108.44)"/><path class="cls-4" d="M1200.5,874l-41.38-6.2,2.12,34.19s11.32,37.76,34.84,38.29,17-28.82,17-28.82Z" transform="translate(-40.42 -108.44)"/><path class="cls-4" d="M1120.84,818.5c10.68,44.61,47.74,74,82.78,65.58s54.77-51.35,44.09-96-47.74-74-82.77-65.58S1110.16,773.9,1120.84,818.5Z" transform="translate(-40.42 -108.44)"/><path d="M1231.29,799.84a6.27,6.27,0,1,0,2.82-8.4A6.27,6.27,0,0,0,1231.29,799.84Z" transform="translate(-40.42 -108.44)"/><path d="M1182.09,812a6.78,6.78,0,1,0,3-9.09A6.78,6.78,0,0,0,1182.09,812Z" transform="translate(-40.42 -108.44)"/><path class="cls-6" d="M1174.59,806.37a2.42,2.42,0,0,0,1.09-1.12c3.39-7.34,12.58-8.76,12.67-8.78a2.36,2.36,0,0,0-.67-4.67c-.48.07-11.79,1.77-16.28,11.46a2.36,2.36,0,0,0,3.19,3.11Z" transform="translate(-40.42 -108.44)"/><path class="cls-6" d="M1245,790.76a2.23,2.23,0,0,0,.62-.45,2.36,2.36,0,0,0,0-3.34,16.57,16.57,0,0,0-16.43-4,2.36,2.36,0,0,0,1.53,4.47,11.8,11.8,0,0,1,11.59,2.92A2.35,2.35,0,0,0,1245,790.76Z" transform="translate(-40.42 -108.44)"/><path class="cls-10" d="M1227.26,813.47c3.44,3.53,6.46,7.18,9.74,9.25a2.47,2.47,0,0,1,.82,3.3c-2.65,4.7-10.39,8.58-15.14,10.59a.67.67,0,0,1-.7-1.11c4.79-4.2,6.85-7.29,7.72-9a3,3,0,0,0,0-2.68c-1-1.94-2.94-5.9-4.26-9.18A1.11,1.11,0,0,1,1227.26,813.47Z" transform="translate(-40.42 -108.44)"/><path class="cls-4" d="M1137.7,818.79c8.51,6.62,11,17.64,5.6,24.6s-16.71,7.25-25.23.63-11-17.64-5.6-24.61S1129.19,812.17,1137.7,818.79Z" transform="translate(-40.42 -108.44)"/><path class="cls-10" d="M1132.86,841.37a2.47,2.47,0,0,0,.83-.69c3.27-4.35,3.57-9.24.82-13.07a11.37,11.37,0,0,0-12.45-4.28,2.36,2.36,0,0,0,1.48,4.48,6.75,6.75,0,0,1,7.14,2.55c1.53,2.13,1.26,4.79-.76,7.48a2.36,2.36,0,0,0,2.94,3.53Z" transform="translate(-40.42 -108.44)"/><path class="cls-9" d="M1188.54,849a1.87,1.87,0,0,1,1.72-3,133.42,133.42,0,0,0,35.41,0,1.88,1.88,0,0,1,1.73,3c-3,4.1-9.31,10.31-19.43,10.31S1191.57,853.13,1188.54,849Z" transform="translate(-40.42 -108.44)"/><path class="cls-6" d="M1120,814.56c41.81-5.6,100.32-48.2,105.12-70.07-8.09-26.26-51.18-39.46-75.51-27.29S1102.27,781.51,1120,814.56Z" transform="translate(-40.42 -108.44)"/><path class="cls-4" d="M1239.23,1743.58c-2.77-27.63,11.48-237.91,11.48-237.91,40.32-184.87,24.49-317.2,24.49-317.2l-69.3,4.87-27.31,104.46,13,174.47s-4.86,13.43-7.43,24.16c-13.91,58.24,0,127.84,8.52,174.23,4,21.49,10.14,66.67,10.3,76.94l-17.41,22.51s63,69.72,72.7,70.16c18.84.85,13.29-17.81,13.29-17.81C1245.61,1795.87,1240,1751.49,1239.23,1743.58Z" transform="translate(-40.42 -108.44)"/><path class="cls-7" d="M1184.45,1794.81l3.46,44.8,8.06.37,4.07-41.61c21.43,5.47,36.79,44.37,36.79,44.37,14.76,5.29,52.29,8.92,65.64,2,3.23-13.08-31-22.26-31-22.26-3.09,3.66-21.37,6.47-27.86,2.54-23.9-20.35-35.56-49.94-40.66-77.46C1202.93,1747.6,1165.16,1750.23,1184.45,1794.81Z" transform="translate(-40.42 -108.44)"/><path class="cls-4" d="M1215.8,1201.92l-97.62-13.45c-37.35,84.49-49.52,231.59-59.66,284-40.69,68.23-53.61,275.13-53.61,275.13l-17.41,22.51s63,69.72,72.7,70.16c18.84.85,13.28-17.81,13.28-17.81-25.89-26.59-30.94-61.92-32.62-69.69-2.52-11.69,79-241.22,79-241.22l8.7-21.78c99.59-164.48,115.93-288.83,115.93-288.83Z" transform="translate(-40.42 -108.44)"/><path class="cls-7" d="M986.42,1794.81l3.47,44.8,8.05.37,4.07-41.61c21.44,5.47,36.79,44.37,36.79,44.37,14.77,5.29,52.29,8.92,65.65,2,3.22-13.08-31-22.26-31-22.26-3.1,3.66-21.38,6.47-27.87,2.54-23.9-20.35-35.56-49.94-40.65-77.46C1004.91,1747.6,967.14,1750.23,986.42,1794.81Z" transform="translate(-40.42 -108.44)"/><path class="cls-17" d="M1034.3,1462.87c9.75-32.62,5.72-262.53,91.78-326l147.9,12c34.22,55.4,21.67,199.55,10.14,318.19C1214.49,1491.93,1159.12,1501.91,1034.3,1462.87Z" transform="translate(-40.42 -108.44)"/><path class="cls-11" d="M1909,516.9A54.88,54.88,0,0,0,1896.91,496c-42.93-62.53-142.24-26.31-286.75,14.66-24.16,6.85-19.16-25.59-29.87-90.09-7-42-52.14-95.72-96-82.17-72.27,22.33,14.79,57.6-5.73,217.69-11,85.54-100.27,67.12-77,142.44l53,171.45c9.06,29.32,20.66,56.61,63.52,48.45,41.54-7.91,41.31,23.37,99.23,5.46l289.9-89.59a56,56,0,0,0,37.07-69.88,55.16,55.16,0,0,0-21.19-28.81,54.93,54.93,0,0,0-7.84-83.69,55.26,55.26,0,0,0-13.62-87.56A55.31,55.31,0,0,0,1909,516.9Z" transform="translate(-40.42 -108.44)"/><path class="cls-12" d="M1733.71,629.48,1872,586.75a56.37,56.37,0,0,0,38-40.35,14.7,14.7,0,0,0-28.6-6.79,26.73,26.73,0,0,1-18,19.16l-141.54,43.74a26.5,26.5,0,1,1-15.65-50.64l94.58-29.23a14.65,14.65,0,1,0-8.65-28l-94.6,29.23a56,56,0,0,0-37.07,69.87,55.35,55.35,0,0,0,31.93,34.7,55.13,55.13,0,0,0,27.77,77.67,55.44,55.44,0,0,0,31.85,79.18,55.19,55.19,0,0,0-2.8,39.48,56,56,0,0,0,70,36.76l88.11-27.23a56.38,56.38,0,0,0,38-40.34,14.61,14.61,0,0,0-10.83-17.66,14.77,14.77,0,0,0-17.75,10.83,26.84,26.84,0,0,1-18.06,19.18l-88.11,27.23a26.5,26.5,0,1,1-15.65-50.64l104.52-32.31a56.34,56.34,0,0,0,38-40.35,14.69,14.69,0,0,0-28.58-6.83,26.47,26.47,0,0,1-18.06,19.19l-113.47,35.07A26.51,26.51,0,1,1,1761.57,707l130-40.18a56.38,56.38,0,0,0,38-40.34,14.7,14.7,0,0,0-28.59-6.83,26.47,26.47,0,0,1-18.06,19.18l-133.54,41.27a26.51,26.51,0,1,1-15.66-50.65Z" transform="translate(-40.42 -108.44)"/><path class="cls-13" d="M1482.12,943.76l-90.26,27.9A23.7,23.7,0,0,1,1362.22,956l-82.9-268.24A23.7,23.7,0,0,1,1295,658.15l90.27-27.9a23.69,23.69,0,0,1,29.63,15.64l82.9,268.24A23.69,23.69,0,0,1,1482.12,943.76Z" transform="translate(-40.42 -108.44)"/><path class="cls-4" d="M1468.24,939c-9.42.57-20.39-2.5-26.63,4.36l-16.38-18.84c16-25.58,53.5-34.26,57.35-34.6,10-.87,14.66-1.91,15.44-.57s3.24,10.25-11.29,12c-18.22,2.19-6.12,16.76,30.85,2.89,9.26-3.47,26.69,1,20.38,7.81C1531,919.46,1511.07,936.36,1468.24,939Z" transform="translate(-40.42 -108.44)"/><path class="cls-4" d="M1278,994.72c-8.79,12.54,11.29,54.32,16.62,54.76,64.7-16.52,149.07-108.35,149.07-108.35l-4.84-24.48S1357.4,965.2,1278,994.72Z" transform="translate(-40.42 -108.44)"/><path class="cls-4" d="M1104,996.39c38.89,22,176.76,58.75,191.61,52.36l-14.42-55.37S1143.14,934,1119.74,925.22C1079.26,910,1040.48,960.55,1104,996.39Z" transform="translate(-40.42 -108.44)"/><path class="cls-11" d="M2767.39,532.89a39.24,39.24,0,0,0-2-17.12c-10.41-53.23-85.86-57.65-192.32-71.79-17.79-2.36-5.3-22.23,6-67.6,7.34-29.5-7-77.61-39.65-81.16-53.76-5.86-6.64,42-65.56,141.21-31.48,53-84.84,15.58-91,71.61L2369,635.59c-2.37,21.81-2.51,43,27.93,49.82,29.5,6.6,20.47,27.06,63.56,31.76l215.66,23.51a40,40,0,0,0,44.16-35.33,39.43,39.43,0,0,0-5.72-24.92,39.26,39.26,0,0,0,18.61-57.14A39.51,39.51,0,0,0,2749.09,562a39.56,39.56,0,0,0,18.3-29.08Z" transform="translate(-40.42 -108.44)"/><path class="cls-12" d="M2620.4,557l102.84,11.21a40.29,40.29,0,0,0,36.37-15.7,10.45,10.45,0,0,0-2.11-14.66,10.55,10.55,0,0,0-14.73,2.09,19.12,19.12,0,0,1-17.27,7.45l-105.3-11.48a19,19,0,1,1,4.11-37.68l70.36,7.67a10.47,10.47,0,1,0,2.27-20.82l-70.37-7.67a39.69,39.69,0,0,0-33.06,67.16,39.4,39.4,0,0,0-3.83,58.84,39.63,39.63,0,0,0-1.58,61,39.47,39.47,0,0,0-13,25.12,40,40,0,0,0,35.51,44l65.54,7.15A40.33,40.33,0,0,0,2712.5,725a10.51,10.51,0,0,0-16.82-12.6,19.16,19.16,0,0,1-17.3,7.45l-65.54-7.14A18.95,18.95,0,1,1,2617,675l77.75,8.47a40.3,40.3,0,0,0,36.39-15.69,10.51,10.51,0,0,0-16.82-12.6,18.9,18.9,0,0,1-17.3,7.47l-84.41-9.2a19,19,0,1,1,4.11-37.69l96.7,10.55a40.3,40.3,0,0,0,36.38-15.69,10.5,10.5,0,0,0-16.81-12.59,18.94,18.94,0,0,1-17.3,7.45l-99.35-10.83A19,19,0,1,1,2620.4,557Z" transform="translate(-40.42 -108.44)"/><path class="cls-13" d="M2368.91,692.11l-67.15-7.32c-12.12-1.33-18.84-9.69-17.82-19l21.75-199.54a17,17,0,0,1,18.68-15l67.15,7.33a16.93,16.93,0,0,1,15,18.67l-21.75,199.54C2383.75,686.1,2375.39,692.81,2368.91,692.11Z" transform="translate(-40.42 -108.44)"/><path class="cls-11" d="M1534.61,1116.49l44.36.35-39.91,19.37a14.79,14.79,0,0,0-8.31,14.17l3.88,66-24.87-61.34a14.79,14.79,0,0,0-13.52-9.23l-43.37-.54,38.93-19.11a14.79,14.79,0,0,0,8.25-14.15l-3.88-66.07,24.85,61.29A14.78,14.78,0,0,0,1534.61,1116.49Z" transform="translate(-40.42 -108.44)"/><path class="cls-11" d="M2064.8,409.15l37.33,19.71-42.2-1.1a14.08,14.08,0,0,0-13.23,8.34l-25.62,57.5,5.83-62.72a14.06,14.06,0,0,0-7.38-13.72l-36.42-19.44,41.27.89a14.09,14.09,0,0,0,13.16-8.34l25.64-57.54-5.83,62.67A14.07,14.07,0,0,0,2064.8,409.15Z" transform="translate(-40.42 -108.44)"/><path class="cls-11" d="M1371.23,372.92l27.83-.07-24.91,12.41a9.27,9.27,0,0,0-5.12,8.94l2.86,41.39-16-38.31a9.27,9.27,0,0,0-8.54-5.71l-27.21-.05,24.3-12.25a9.28,9.28,0,0,0,5.09-8.92l-2.87-41.42,16,38.29A9.27,9.27,0,0,0,1371.23,372.92Z" transform="translate(-40.42 -108.44)"/><path class="cls-11" d="M1741.92,1329.12l26.66,16.66-31.29-3.11a10.47,10.47,0,0,0-10.27,5.48l-22.15,41.31,7.74-46.27a10.49,10.49,0,0,0-4.74-10.59l-26-16.41,30.6,2.9a10.49,10.49,0,0,0,10.23-5.48l22.16-41.34-7.73,46.23A10.49,10.49,0,0,0,1741.92,1329.12Z" transform="translate(-40.42 -108.44)"/><path class="cls-11" d="M2853.4,595l24.52,13.17-27.81-.92a9.28,9.28,0,0,0-8.76,5.43l-17.14,37.78,4.12-41.31a9.27,9.27,0,0,0-4.8-9.08l-23.92-13,27.2.78a9.27,9.27,0,0,0,8.71-5.44l17.17-37.81-4.13,41.29A9.28,9.28,0,0,0,2853.4,595Z" transform="translate(-40.42 -108.44)"/><path class="cls-11" d="M653.27,1243.74l27.77-2-24,14.06a9.27,9.27,0,0,0-4.51,9.27l5.65,41.1-18.55-37.15a9.27,9.27,0,0,0-8.9-5.11l-27.15,1.77L627,1251.88a9.27,9.27,0,0,0,4.46-9.24l-5.64-41.14,18.53,37.13A9.27,9.27,0,0,0,653.27,1243.74Z" transform="translate(-40.42 -108.44)"/><path class="cls-9" d="M2660.36,1254.58a31.53,31.53,0,1,1-31.52-31.52A31.53,31.53,0,0,1,2660.36,1254.58Z" transform="translate(-40.42 -108.44)"/><path class="cls-9" d="M1521.91,1450.21a24.6,24.6,0,1,1,0-34.79A24.59,24.59,0,0,1,1521.91,1450.21Z" transform="translate(-40.42 -108.44)"/><path class="cls-9" d="M2678.19,1169.38a17,17,0,1,1-17,17,17,17,0,0,1,17-17Zm0-7.24a24.2,24.2,0,1,0,24.2,24.2,24.2,24.2,0,0,0-24.2-24.2Z" transform="translate(-40.42 -108.44)"/><path class="cls-9" d="M1175.51,523.31a24.15,24.15,0,1,1-24.14,24.14,24.17,24.17,0,0,1,24.14-24.14Zm0-10.31A34.46,34.46,0,1,0,1210,547.45,34.45,34.45,0,0,0,1175.51,513Z" transform="translate(-40.42 -108.44)"/><path class="cls-9" d="M182,750.7a21.68,21.68,0,1,1-21.68,21.67A21.69,21.69,0,0,1,182,750.7Zm0-9.26a30.94,30.94,0,1,0,30.93,30.93A30.93,30.93,0,0,0,182,741.44Z" transform="translate(-40.42 -108.44)"/></svg>