<svg xmlns="http://www.w3.org/2000/svg" version="1.1" xmlns:xlink="http://www.w3.org/1999/xlink" xmlns:svgjs="http://svgjs.dev/svgjs" width="2000" height="1500" viewBox="0 0 2000 1500"><rect width="2000" height="1500" fill="#ffffff"></rect><g transform="matrix(0.75,0,0,0.75,249.090909090909,282.7536437246963)"><svg xmlns="http://www.w3.org/2000/svg" version="1.1" xmlns:xlink="http://www.w3.org/1999/xlink" xmlns:svgjs="http://svgjs.com/svgjs" viewBox="0 0 396 247" data-background-color="#ffffff" preserveAspectRatio="xMidYMid meet" height="1247" width="2000"><defs></defs><g id="tight-bounds" transform="matrix(1,0,0,1,0.2400000000000091,-0.09999999999999432)"><svg viewBox="0 0 395.52 247.2" height="247.2" width="395.52"><g><svg xmlns="http://www.w3.org/2000/svg" version="1.1" xmlns:xlink="http://www.w3.org/1999/xlink" xmlns:svgjs="http://svgjs.com/svgjs"></svg></g><g><svg viewBox="0 0 395.52 247.2" height="247.2" width="395.52"><g><path d="M55.039 247.2l46.219-80.053 3.068 0-44.6 77.25h276.068l-44.6-77.25 3.068 0 46.219 80.053zM197.76 0l46.219 80.053-3.069 0-43.15-74.738-43.15 74.738-3.069 0z" fill="#4790fc" data-fill-palette-color="tertiary"></path></g><g transform="matrix(1,0,0,1,0,92.49490700057271)"><svg viewBox="0 0 395.52 62.210185998854556" height="62.210185998854556" width="395.52"><g><svg viewBox="0 0 484.79807328439085 76.25247348024949" height="62.210185998854556" width="395.52"><g transform="matrix(1,0,0,1,0,10.538511168399172)"><svg viewBox="0 0 395.52 55.17545114345115" height="55.17545114345115" width="395.52"><g><svg viewBox="0 0 395.52 55.17545114345115" height="55.17545114345115" width="395.52"><g><svg viewBox="0 0 395.52 55.17545114345115" height="55.17545114345115" width="395.52"><g transform="matrix(1,0,0,1,0,0)"><svg width="395.52" viewBox="-0.25 -32.95 240.48 33.550000000000004" height="55.17545114345115" data-palette-color="#4790fc"><path d="M17.05 0.3L16.65-0.15 16.95-4.35Q18.65-4.55 19.23-4.67 19.8-4.8 19.98-5.08 20.15-5.35 20.15-6.05L20.15-6.05 20.05-6.95 19.75-8.9 15.9-9Q15.15-9 11.9-8.75L11.9-8.75 11.4-6.55Q11.25-5.75 11.25-5.45L11.25-5.45Q11.25-4.8 11.53-4.63 11.8-4.45 12.8-4.45L12.8-4.45 14.1-4.45 14.5-3.95 14.1 0.2Q13.35 0.15 11.13 0.1 8.9 0.05 6.4 0.05L6.4 0.05-0.25 0.1 0.1-4.25Q1.9-4.7 2.65-7L2.65-7 10.6-32.1 23.75-32.9 24.5-32.3Q25.25-29.2 27.55-20.13 29.85-11.05 30.75-7.65L30.75-7.65Q31.2-5.95 31.88-5.18 32.55-4.4 33.7-4.3L33.7-4.3 34.05-3.8 33.65 0.15Q32.95 0.15 30.9 0.1 28.85 0.05 26.6 0.05L26.6 0.05Q23.65 0.05 20.75 0.15 17.85 0.25 17.05 0.3L17.05 0.3ZM13.5-15.05L16.05-15.05Q16.85-15.05 18.65-15.15L18.65-15.15 16.95-23.9 15.85-23.9 13.5-15.05ZM34.1-8.8L33.45-9.7 33.95-15 41.6-15.85Q43.6-16.05 44.57-16.2 45.55-16.35 45.75-16.4L45.75-16.4 46.35-15.5 45.7-10.1 34.1-8.8ZM56.2 0Q54.2 0 51.15 0.15 48.1 0.3 47.15 0.35L47.15 0.35 47.6-4.15Q49.55-4.5 50.25-5.25 50.95-6 50.95-7.8L50.95-7.8 51-25.65Q51-27.95 49.65-27.95L49.65-27.95Q49.15-27.95 48.65-27.9 48.15-27.85 47.95-27.85L47.95-27.85 47.35-28.45 47.95-32.45 56.4-32.35Q58.6-32.4 61.67-32.52 64.75-32.65 66-32.7L66-32.7Q71.59-32.7 74.5-30.68 77.4-28.65 77.4-24.8L77.4-24.8Q77.4-22.25 76.09-20.45 74.8-18.65 72.55-17.15L72.55-17.15Q75.34-16.15 77.07-14.53 78.8-12.9 78.8-9.9L78.8-9.9Q78.8 0.55 64.4 0.55L64.4 0.55Q63.3 0.4 60.25 0.2 57.2 0 56.2 0L56.2 0ZM61-19.45Q61.45-19.35 62.87-19.13 64.3-18.9 65-18.9L65-18.9Q65-18.8 65.57-19.38 66.15-19.95 66.62-20.88 67.09-21.8 67.09-23L67.09-23Q67.09-24.75 65.9-25.58 64.7-26.4 62.25-26.4L62.25-26.4Q61.75-26.4 61.57-26.25 61.4-26.1 61.35-25.7L61.35-25.7Q61.25-24.35 61.12-22.23 61-20.1 61-19.45L61-19.45ZM60.9-13L60.65-8Q60.65-6.8 61.52-6.25 62.4-5.7 64.3-5.7L64.3-5.7Q66.15-5.7 67.09-6.63 68.05-7.55 68.05-9.35L68.05-9.35Q68.05-10.6 67.22-11.55 66.4-12.5 64.84-13L64.84-13 60.9-13ZM80.39 0.25L80.79-4Q82.79-4.45 83.42-5.25 84.04-6.05 84.04-8.1L84.04-8.1 84.04-25.4Q84.04-26.95 83.69-27.45 83.34-27.95 82.29-27.95L82.29-27.95 80.99-27.9 80.54-28.6 80.94-32.35 88.99-32.35Q90.19-32.35 97.59-32.6L97.59-32.6 97.24-28.1Q95.54-27.85 95.02-27.38 94.49-26.9 94.39-25.5L94.39-25.5Q93.89-16.85 93.89-7.8L93.89-7.8Q93.89-5.7 94.22-5.03 94.54-4.35 95.49-4.35L95.49-4.35Q96.44-4.35 97.09-4.5L97.09-4.5 97.49-4 97.04 0.2Q91.54 0 88.69 0L88.69 0Q85.99 0 80.39 0.25L80.39 0.25ZM98.79 0.5L99.24-4.1Q101.14-4.4 101.82-5.33 102.49-6.25 102.49-8.5L102.49-8.5 102.49-25.4Q102.49-26.95 102.14-27.45 101.79-27.95 100.74-27.95L100.74-27.95 99.44-27.9 98.99-28.6 99.39-32.35 107.44-32.35Q110.09-32.35 113.29-32.45 116.49-32.55 117.79-32.6L117.79-32.6 117.24-27.7Q114.64-27.45 113.77-26.93 112.89-26.4 112.84-25.1L112.84-25.1Q112.34-17.6 112.34-7.9L112.34-7.9Q112.34-6.75 112.77-6.25 113.19-5.75 114.19-5.75L114.19-5.75Q116.04-5.75 116.99-6.4 117.94-7.05 118.37-8.75 118.79-10.45 118.99-13.9L118.99-13.9 125.39-14.55 125.99-13.8Q125.84-12.7 125.47-8.75 125.09-4.8 124.79-0.45L124.79-0.45 124.04 0.35Q122.74 0.3 118.27 0.15 113.79 0 109.34 0L109.34 0Q106.14 0 102.92 0.2 99.69 0.4 98.79 0.5L98.79 0.5ZM126.64 0.5L127.09-4.1Q128.99-4.4 129.66-5.33 130.34-6.25 130.34-8.5L130.34-8.5 130.34-25.4Q130.34-26.95 129.99-27.45 129.64-27.95 128.59-27.95L128.59-27.95 127.29-27.9 126.84-28.6 127.24-32.35 135.29-32.35Q137.94-32.35 141.14-32.45 144.34-32.55 145.64-32.6L145.64-32.6 145.09-27.7Q142.49-27.45 141.61-26.93 140.74-26.4 140.69-25.1L140.69-25.1Q140.19-17.6 140.19-7.9L140.19-7.9Q140.19-6.75 140.61-6.25 141.04-5.75 142.04-5.75L142.04-5.75Q143.89-5.75 144.84-6.4 145.79-7.05 146.21-8.75 146.64-10.45 146.84-13.9L146.84-13.9 153.24-14.55 153.84-13.8Q153.69-12.7 153.31-8.75 152.94-4.8 152.64-0.45L152.64-0.45 151.89 0.35Q150.59 0.3 146.11 0.15 141.64 0 137.19 0L137.19 0Q133.99 0 130.76 0.2 127.54 0.4 126.64 0.5L126.64 0.5ZM154.59 0.25L154.99-4Q156.99-4.45 157.61-5.25 158.24-6.05 158.24-8.1L158.24-8.1 158.24-25.4Q158.24-26.95 157.89-27.45 157.53-27.95 156.49-27.95L156.49-27.95 155.19-27.9 154.74-28.6 155.14-32.35 163.19-32.35Q164.39-32.35 171.78-32.6L171.78-32.6 171.44-28.1Q169.74-27.85 169.21-27.38 168.69-26.9 168.59-25.5L168.59-25.5Q168.09-16.85 168.09-7.8L168.09-7.8Q168.09-5.7 168.41-5.03 168.74-4.35 169.69-4.35L169.69-4.35Q170.64-4.35 171.28-4.5L171.28-4.5 171.69-4 171.24 0.2Q165.74 0 162.89 0L162.89 0Q160.19 0 154.59 0.25L154.59 0.25ZM196.08 0.6Q192.58-5.2 189.61-9.85 186.63-14.5 185.83-15.75L185.83-15.75 185.08-15.75 185.23-6.85Q185.28-5.4 185.68-4.85 186.08-4.3 187.18-4.3L187.18-4.3Q187.68-4.3 188.18-4.38 188.68-4.45 188.88-4.5L188.88-4.5 189.33-4.05 188.78 0.2Q187.88 0.15 185.53 0.08 183.18 0 181.08 0L181.08 0Q178.93 0 176.51 0.18 174.08 0.35 173.38 0.4L173.38 0.4 173.88-4.1Q175.33-4.3 176.01-5.03 176.68-5.75 176.73-7.25L176.73-7.25 177.33-24.7Q177.33-25.9 177.06-26.5 176.78-27.1 176.01-27.38 175.23-27.65 173.58-27.85L173.58-27.85 172.98-28.55 173.28-32.6Q173.93-32.55 176.16-32.45 178.38-32.35 180.68-32.35L180.68-32.35Q182.38-32.35 184.43-32.43 186.48-32.5 187.08-32.55L187.08-32.55Q189.88-27.5 193.28-22.03 196.68-16.55 196.68-16.65L196.68-16.65 197.43-16.65 197.23-25.8Q197.18-27.05 196.83-27.5 196.48-27.95 195.58-27.95L195.58-27.95 194.03-27.95 193.78-28.5 194.03-32.55Q194.93-32.5 197.38-32.43 199.83-32.35 202.33-32.35L202.33-32.35Q204.58-32.35 206.58-32.4 208.58-32.45 209.28-32.5L209.28-32.5 209.03-28Q207.43-27.8 206.81-27.1 206.18-26.4 206.13-24.85L206.13-24.85 205.48 0 196.08 0.6ZM225.28 0.55Q218.08 0.55 214.06-3.7 210.03-7.95 210.03-15.55L210.03-15.55Q210.03-24.05 214.66-28.5 219.28-32.95 228.08-32.95L228.08-32.95Q230.18-32.95 232.43-32.65 234.68-32.35 236.26-32.05 237.83-31.75 238.23-31.65L238.23-31.65 238.78-30.65Q238.68-30.3 238.41-28.98 238.13-27.65 237.83-25.4 237.53-23.15 237.38-20.55L237.38-20.55 229.68-20.1Q229.68-20.3 229.73-21.03 229.78-21.75 229.78-22.85L229.78-22.85Q229.78-24.7 229.16-25.38 228.53-26.05 226.83-26.05L226.83-26.05Q224.73-26.05 223.58-25.25 222.43-24.45 221.93-22.58 221.43-20.7 221.43-17.35L221.43-17.35Q221.43-11.65 222.66-9.08 223.88-6.5 226.63-6.5L226.63-6.5Q227.43-6.5 228.01-6.63 228.58-6.75 228.88-6.9 229.18-7.05 229.23-7.1L229.23-7.1 229.23-10.25Q229.23-11.45 228.91-11.88 228.58-12.3 227.63-12.3L227.63-12.3 225.98-12.25 225.53-12.95 226.13-17.7 233.78-17.7Q235.68-17.7 237.43-17.78 239.18-17.85 239.73-17.95L239.73-17.95 240.23-15.05Q239.03-14.35 238.51-13.58 237.98-12.8 237.81-11.23 237.63-9.65 237.63-6.2L237.63-6.2Q237.63-3.35 237.98-1.9L237.98-1.9 237.38-1.1Q237.38-1.05 235.83-0.63 234.28-0.2 231.58 0.18 228.88 0.55 225.28 0.55L225.28 0.55Z" opacity="1" transform="matrix(1,0,0,1,0,0)" fill="#4790fc" class="undefined-text-0" data-fill-palette-color="primary" id="text-0"></path></svg></g></svg></g></svg></g></svg></g><g transform="matrix(1,0,0,1,408.5455998041414,0)"><svg viewBox="0 0 76.25247348024949 76.25247348024949" height="76.25247348024949" width="76.25247348024949"><g data-palette-color="#ed2326"><rect width="20.842342751268195" height="76.25247348024949" fill="#ed2326" stroke="transparent" data-fill-palette-color="accent" x="0" fill-opacity="1"></rect><rect width="20.842342751268195" height="76.25247348024949" fill="#ed2326" stroke="transparent" data-fill-palette-color="accent" x="25.417491160083163" fill-opacity="0.75"></rect><rect width="20.842342751268195" height="76.25247348024949" fill="#ed2326" stroke="transparent" data-fill-palette-color="accent" x="50.834982320166326" fill-opacity="0.5"></rect></g></svg></g></svg></g></svg></g></svg></g></svg><rect width="395.52" height="247.2" fill="none" stroke="none" visibility="hidden"></rect></g></svg></g></svg>