<?xml version="1.0" encoding="utf-8"?>
<!-- Generator: Adobe Illustrator 25.4.1, SVG Export Plug-In . SVG Version: 6.00 Build 0)  -->
<svg version="1.1" id="Layer_1" xmlns="http://www.w3.org/2000/svg" xmlns:xlink="http://www.w3.org/1999/xlink" x="0px" y="0px"
	 viewBox="0 0 517.07 149.69" style="enable-background:new 0 0 517.07 149.69;" xml:space="preserve">
<style type="text/css">
	.st0{fill:#B7C0C6;}
	.st1{fill:#7E8B96;}
	.st2{fill:#1C355E;}
</style>
<g>
	<g>
		<g>
			<g>
				<path class="st0" d="M149.43,83.92l-4.14-9.29l3.14-8.17l4.68-12.19l-10.87-4.17l-9.49-3.64l-3.56-8l-5.31-11.92l-10.64,4.74
					l-9.29,4.13l-8.17-3.14L83.6,27.59l-4.17,10.87l-3.64,9.49l-8,3.56l-11.93,5.31l4.74,10.63l4.14,9.29l-3.14,8.17L56.91,97.1
					l10.87,4.17l9.49,3.64l3.56,8l5.31,11.92l10.64-4.74l9.29-4.13l8.17,3.14l12.19,4.68l4.17-10.87l3.64-9.49l8-3.56l11.93-5.31
					L149.43,83.92z M133.82,94.4l-6.19,2.76l-2.82,7.35l-3.23,8.41l-9.43-3.62l-6.33-2.43l-7.18,3.2l-8.23,3.66l-4.11-9.23
					l-2.76-6.19l-7.34-2.82l-8.41-3.23l3.62-9.43l2.43-6.33l-3.2-7.19l-3.67-8.23l9.23-4.11l6.19-2.76l2.82-7.35l3.23-8.41
					l9.43,3.62l6.33,2.43l7.18-3.2l8.23-3.66l4.11,9.23l2.76,6.19l7.34,2.82l8.41,3.23l-3.62,9.43l-2.43,6.32l3.2,7.19l3.66,8.23
					L133.82,94.4z"/>
			</g>
		</g>
		<g>
			<g>
				<polygon class="st1" points="88.45,38.47 88.45,38.46 78.78,38.46 78.78,38.46 67.78,38.46 67.78,51.51 75.78,47.95 
					76.19,46.88 85.21,46.88 86.03,46.88 93.08,46.88 97.87,42.09 				"/>
			</g>
			<g>
				<polygon class="st1" points="66.98,61.09 66.98,61.07 60.14,67.91 60.14,67.91 52.36,75.69 61.59,84.92 64.73,76.74 64.26,75.7 
					70.64,69.32 71.22,68.74 76.2,63.76 76.2,56.98 				"/>
			</g>
			<g>
				<polygon class="st1" points="67.79,92.26 67.78,92.25 67.78,101.92 67.78,101.92 67.78,112.92 80.84,112.92 77.27,104.92 
					76.2,104.51 76.2,95.49 76.2,94.67 76.2,87.62 71.41,82.83 				"/>
			</g>
			<g>
				<polygon class="st1" points="90.41,113.72 90.4,113.73 97.24,120.57 97.24,120.57 105.01,128.34 114.24,119.11 106.07,115.97 
					105.02,116.44 98.64,110.06 98.06,109.48 93.08,104.5 86.3,104.5 				"/>
			</g>
			<g>
				<polygon class="st1" points="121.58,112.91 121.57,112.92 131.25,112.92 131.25,112.92 142.24,112.92 142.24,99.87 
					134.24,103.43 133.83,104.5 124.81,104.5 123.99,104.5 116.95,104.5 112.15,109.29 				"/>
			</g>
			<g>
				<polygon class="st1" points="143.04,90.29 143.05,90.3 149.89,83.47 149.89,83.46 157.66,75.69 148.43,66.46 145.3,74.63 
					145.76,75.68 139.39,82.06 138.81,82.64 133.82,87.62 133.82,94.4 				"/>
			</g>
			<g>
				<polygon class="st1" points="142.23,59.12 142.24,59.13 142.24,49.46 142.24,49.46 142.24,38.46 129.19,38.46 132.75,46.46 
					133.82,46.87 133.82,55.89 133.82,56.71 133.82,63.76 138.61,68.55 				"/>
			</g>
			<g>
				<polygon class="st1" points="119.62,37.66 119.63,37.65 112.79,30.81 112.79,30.81 105.01,23.04 95.78,32.27 103.96,35.41 
					105.01,34.94 111.38,41.32 111.96,41.9 116.95,46.88 123.72,46.88 				"/>
			</g>
		</g>
	</g>
	<g>
		<path class="st2" d="M164.58,51.94h10.05l7.4,23.55h0.1V51.94h8.9v39.95h-10l-7.45-24.7h-0.1v24.7h-8.9V51.94z"/>
		<path class="st2" d="M199.76,57.47h10.51l6.46,34.42h-8.31l-0.73-6.12h-5.56l-0.82,6.12h-7.93L199.76,57.47z M202.94,79.66h3.96
			l-1.85-16.84h-0.09L202.94,79.66z"/>
		<path class="st2" d="M224.14,73.33l-6.29-15.85h8.53l2.71,9.78h0.09l2.76-9.78h8.23l-6.33,16.11l6.72,18.31h-8.31l-3.36-11.11
			h-0.09l-3.1,11.11h-8.23L224.14,73.33z"/>
		<path class="st2" d="M252.32,93.79h0.09c0.56-0.17,1.03-0.22,1.72-0.22c2.11,0,3.66,1.25,3.66,3.4c0,2.89-2.84,3.45-4.83,3.45
			c-1.94,0-4.18-0.65-5.77-1.34l0.82-1.16c1.16,0.39,2.33,0.78,3.53,0.78c0.99,0,2.2-0.26,2.2-1.46c0-1.12-0.6-1.68-1.85-1.68
			c-0.6,0-1.16,0.17-1.72,0.34l-0.95-0.82l2.11-2.76c-5.34-0.6-8.57-4.26-8.57-9.82V66.86c0-6.72,4.31-9.95,10.21-9.95
			s10.21,3.23,10.21,9.95v3.19h-7.93v-3.88c0-1.16,0-3.14-2.28-3.14c-2.28,0-2.28,1.98-2.28,3.14v17.01c0,0.9,0,3.14,2.28,3.14
			c2.28,0,2.28-2.24,2.28-3.14v-5.04h7.93v4.35c0,5.9-3.66,9.69-9.61,9.91L252.32,93.79z"/>
		<path class="st2" d="M266.97,57.47h7.93v34.42h-7.93V57.47z"/>
		<path class="st2" d="M277.22,57.47h8.1l2.15,24.47h0.09l2.63-24.47h7.97l-5.86,34.42h-9.82L277.22,57.47z"/>
		<path class="st2" d="M304.36,57.47h10.51l6.46,34.42h-8.31l-0.73-6.12h-5.56l-0.82,6.12h-7.93L304.36,57.47z M307.55,79.66h3.96
			l-1.85-16.84h-0.09L307.55,79.66z"/>
		<path class="st2" d="M323.4,57.47h8.66l6.38,20.29h0.09V57.47h7.67v34.42h-8.62l-6.42-21.28h-0.09v21.28h-7.67V57.47z"/>
		<path class="st1" d="M350.01,51.94h12.75c6.7,0,9.95,2.55,9.95,9.4c0,4.2-0.6,7.9-5.05,9.4v0.1c4.5,0.8,6.05,4.15,6.05,9.2
			c0,6.7-2.45,11.85-10.65,11.85h-13.05V51.94z M359.21,67.74h1.7c2.9,0,3.2-2.15,3.2-4.65c0-2.8-0.6-4.35-2.85-4.35h-2.05V67.74z
			 M359.21,85.09h1.9c3.05,0,3.4-1.5,3.4-5.45c0-2.75-0.35-5.4-3.2-5.4h-2.1V85.09z"/>
		<path class="st1" d="M383.51,51.94h12.2l7.5,39.95h-9.65l-0.85-7.1h-6.45l-0.95,7.1h-9.2L383.51,51.94z M387.21,77.69h4.6
			l-2.15-19.55h-0.1L387.21,77.69z"/>
		<path class="st1" d="M405.61,51.94h10.05l7.4,23.55h0.1V51.94h8.9v39.95h-10l-7.45-24.7h-0.1v24.7h-8.9V51.94z"/>
		<path class="st1" d="M436.16,51.94h8.9v16.35h0.15l6.1-16.35h9.75l-7.65,16.55l7.7,23.4h-9.8l-4.1-14.3l-2.15,3.3v11h-8.9V51.94z"
			/>
	</g>
	<g>
		<g>
			<path class="st2" d="M117.41,75.79c0,0-0.5-0.29-2.91-0.65c-0.38-0.06-0.68-0.39-0.64-0.78c0.03-0.27,0.22-0.56,0.79-0.77
				c0,0,2.81-0.28,2.92-2.54c0,0,0.63-3.07-0.09-5.86c-0.63-2.44-2.87-4.13-5.39-4.15l-10.09-0.09v15.98L96.58,61v-0.03h-5.74v29.44
				h5.74V77.54l4.4,12.87h0.79h0.24h11.8c0,0,4.38-0.21,5.04-3.74C118.85,86.67,120.23,78.15,117.41,75.79z M111.81,83.48
				c-0.14,1.15-0.97,2.02-1.95,2.01c-0.75,0-1.38-0.26-1.38-0.26V76.8c1.71-0.06,2.32,0.58,2.32,0.58
				C112.2,78.53,112.03,81.71,111.81,83.48z M111.81,71.56c-0.14,0.97-0.97,1.71-1.95,1.71c-0.75,0-1.38-0.22-1.38-0.22v-7.17
				c1.71-0.06,2.32,0.5,2.32,0.5C112.2,67.35,112.03,70.05,111.81,71.56z"/>
		</g>
	</g>
</g>
</svg>
