<svg xmlns="http://www.w3.org/2000/svg" viewBox="0 0 651.18 111.17"><defs><style>.cls-1{fill:#3f3f42;}.cls-2{fill:#f48120;}</style></defs><title>Asset 1kamran</title><g id="Layer_2" data-name="Layer 2"><g id="Layer_1-2" data-name="Layer 1"><path class="cls-1" d="M0,79.32A47.78,47.78,0,0,0,34.6,93.56c12.87,0,20.52-6,20.52-13.17a12.35,12.35,0,0,0-5-10.41q-4.83-3.92-18.83-9.65C12.86,52.52,2.91,44.1,2.91,28.79Q2.91,15.69,13,8.12,23.12.31,38.74.31c9.95,0,18.68,2.45,25.88,7.35V27.1A37.32,37.32,0,0,0,39.2,17.76c-10.87,0-17.15,4.45-17.15,11-.62,3.52,2.6,6.58,5.2,8.88,1.38,1.22,6.13,3.52,7.81,4.29l5.06,2.29c2.45,1.08,4.13,1.69,4.9,2.15,10.25,4.44,17.61,9.18,22.2,14.24s6.89,11.64,6.89,19.75A27.47,27.47,0,0,1,64,102.13c-6.73,5.67-16.23,8.58-28.32,8.58C22.05,110.71,10.11,107,0,99.84Z"/><path class="cls-1" d="M145.62,42.88V31.7H164v77.17H145.62V97.69c-2.6,7.51-11.94,12.87-24.65,12.87A37.09,37.09,0,0,1,93.41,99.07c-7.35-7.81-11-17.3-11-28.78s3.68-21,11-28.64A36.67,36.67,0,0,1,121,30c12.71,0,22.05,5.36,24.65,12.87m-5.51,44.25A22.53,22.53,0,0,0,147,70.29a22.53,22.53,0,0,0-6.89-16.85,22.88,22.88,0,0,0-16.69-6.74A22.2,22.2,0,0,0,107,53.44c-4.28,4.44-6.43,10.11-6.43,16.85s2.15,12.4,6.43,16.84a22.2,22.2,0,0,0,16.39,6.74,22.88,22.88,0,0,0,16.69-6.74"/><path class="cls-1" d="M186.51,108.87V48.39H174V31.7h12.56V27.87c0-11.79,2.45-18.07,8.42-22.82,4.14-3.36,10.42-5,19.14-5a40.89,40.89,0,0,1,8,.61V16.39a24.61,24.61,0,0,0-7-.77c-6.89,0-10.1,3.06-10.1,10.87V31.7h14.54V48.39H204.89v60.48Z"/><path class="cls-1" d="M222.65,70.29c0-12.1,3.68-21.9,11.18-29.25,7.5-7.51,17.15-11.18,28.79-11.18,11.18,0,20.21,3.67,27.1,11.18,7,7.35,10.57,16.53,10.57,27.41,0,2.29-.16,4.59-.31,6.58H240.87c.61,12.25,9.65,20.06,23.28,20.06,12.09,0,21.28-2.91,27.71-8.88v17.15q-11.25,7.81-28.48,7.81c-12.09,0-22-3.68-29.55-10.87-7.5-7.35-11.18-17.15-11.18-29.25Zm59-8.27a15,15,0,0,0-5.51-11.64,19.67,19.67,0,0,0-13.47-4.9,23.25,23.25,0,0,0-14.7,4.9c-4.14,3.21-6.28,7-6.59,11.64Z"/><polygon class="cls-1" points="299.98 108.87 346.23 48.08 307.95 48.08 307.95 31.7 378.38 31.7 332.45 92.49 376.24 92.49 376.24 108.87 299.98 108.87"/><path class="cls-1" d="M492.54,108.87V31.7h18.22v11c3.68-7.5,12.41-12.55,23.43-12.55,18.38,0,29.25,11.79,29.25,30.93v47.77H545.06V63.7c0-10.57-6.12-17.15-16.38-17.15-10.42,0-17.92,7.35-17.92,17.91v44.41Z"/><path class="cls-1" d="M573.55,70.29c0-12.1,3.67-21.9,11.18-29.25,7.5-7.51,17.15-11.18,28.78-11.18,11.18,0,20.22,3.67,27.1,11.18,7,7.35,10.57,16.53,10.57,27.41,0,2.29-.15,4.59-.3,6.58H591.77c.61,12.25,9.64,20.06,23.27,20.06,12.1,0,21.29-2.91,27.72-8.88v17.15q-11.26,7.81-28.48,7.81c-12.1,0-22-3.68-29.55-10.87-7.51-7.35-11.18-17.15-11.18-29.25Zm59-8.27A15.08,15.08,0,0,0,627,50.38a19.71,19.71,0,0,0-13.48-4.9,23.27,23.27,0,0,0-14.7,4.9c-4.13,3.21-6.28,7-6.58,11.64Z"/><path class="cls-2" d="M419,70.39a4.53,4.53,0,1,1,4.64,4.42A4.54,4.54,0,0,1,419,70.39"/><path class="cls-2" d="M439.76,53.83a21.57,21.57,0,0,0-16.28-6.74h-.3v24h23.15c0-.27,0-.54,0-.81a22.14,22.14,0,0,0-6.61-16.46"/><path class="cls-2" d="M454,40.47a39.93,39.93,0,0,1,12.56,29.82c0,.27,0,.54,0,.81h17.61a60.94,60.94,0,0,0-61-61V28.41h.3c11.95,0,22.23,4.06,30.55,12.07"/><path class="cls-1" d="M447.33,71.1a23.69,23.69,0,0,1-6.85,16.49,24.6,24.6,0,0,1-34.15,0,24.32,24.32,0,0,1-6.74-17.3,23.7,23.7,0,0,1,6.74-17.16,22.7,22.7,0,0,1,16.85-7V29.41a41.43,41.43,0,0,0-29.56,11.78,39,39,0,0,0-12.25,29.1,39,39,0,0,0,12.25,29.09c8.12,7.81,18.07,11.79,29.86,11.79s21.74-4,29.86-11.79A38.89,38.89,0,0,0,465.57,71.1Z"/><path class="cls-2" d="M423.48,46.09a22.68,22.68,0,0,1,17,7,23.23,23.23,0,0,1,6.89,17.16c0,.27,0,.54,0,.81h18.24c0-.27,0-.54,0-.81a39,39,0,0,0-12.25-29.1c-8.12-7.81-18.07-11.79-29.86-11.79h-.3V46.1h.3"/><path class="cls-1" d="M429.42,70.15h0a6,6,0,0,0-5.94-5.81h-.14a5.93,5.93,0,0,0-5.8,5.94v.13h0v0h0a5.94,5.94,0,0,0,5.94,5.78h.14a5.93,5.93,0,0,0,5.8-5.93Zm-5.87,3.25h-.07a3.12,3.12,0,0,1-3.11-3v-.07a3.11,3.11,0,0,1,3-3.12h.07a3.12,3.12,0,0,1,3.12,3h0v.08a3.13,3.13,0,0,1-3.05,3.11"/></g></g></svg>