<?xml version="1.0" encoding="UTF-8"?>
<!DOCTYPE svg PUBLIC "-//W3C//DTD SVG 1.1//EN" "http://www.w3.org/Graphics/SVG/1.1/DTD/svg11.dtd">
<!-- Creator: CorelDRAW 2020 (64-Bit) -->
<svg xmlns="http://www.w3.org/2000/svg" xml:space="preserve" width="148.5mm" height="105mm" version="1.1" style="shape-rendering:geometricPrecision; text-rendering:geometricPrecision; image-rendering:optimizeQuality; fill-rule:evenodd; clip-rule:evenodd"
viewBox="0 0 14850 10500"
 xmlns:xlink="http://www.w3.org/1999/xlink"
 xmlns:xodm="http://www.corel.com/coreldraw/odm/2003">
 <defs>
  <style type="text/css">
   <![CDATA[
    .fil2 {fill:#FEFEFE;fill-rule:nonzero}
    .fil0 {fill:#2B2A29;fill-rule:nonzero}
    .fil3 {fill:#FECC00;fill-rule:nonzero}
    .fil1 {fill:#DE202A;fill-rule:nonzero}
   ]]>
  </style>
 </defs>
 <g id="Слой_x0020_1">
  <metadata id="CorelCorpID_0Corel-Layer"/>
  <path class="fil0" d="M8566.32 6329.27l0 -962.61c0,-209.78 75.41,-388.34 226.67,-536.57 150.83,-148.23 332.87,-222.34 545.24,-222.34 208.04,0 386.17,74.54 533.53,223.21 147.37,148.66 221.05,327.66 221.05,537l0 961.31 -392.68 0 0 -973.45c0,-98.38 -38.14,-181.6 -113.99,-250.08 -75.84,-68.48 -165.13,-102.72 -267.41,-102.72 -98.39,0 -183.34,33.37 -254.85,100.55 -71.51,67.18 -107.49,149.53 -107.49,246.18l0 979.52 -390.07 0zm3091.98 -972.58c-31.64,-115.72 -91.88,-206.31 -180.73,-271.32 -88.42,-65.45 -194.17,-97.95 -316.4,-97.95 -135.66,0 -253.54,48.97 -353.66,146.49 -100.12,97.52 -150.4,212.81 -150.4,345.87 0,22.97 0.87,40.31 2.17,52.01 16.03,143.02 75.85,256.15 179.87,338.49 92.31,73.69 202.4,110.53 329.39,110.53 72.38,0 139.99,-13.01 203.71,-38.58 63.71,-25.57 117.88,-63.71 162.53,-114.85l247.04 257.01c-87.98,89.72 -180.73,154.3 -277.38,194.6 -96.65,40.31 -208.91,60.68 -335.9,60.68 -238.38,0 -442.95,-82.35 -613.71,-247.04 -171.2,-165.13 -256.59,-365.37 -256.59,-600.72 0,-238.81 82.79,-442.08 248.35,-610.68 165.13,-168.6 366.67,-252.68 603.31,-252.68 238.82,0 447.29,88.42 625.42,265.68 178.57,177.27 267.85,384.01 267.85,619.79 0,26 0,51.14 0,75.84 -4.33,21.68 -7.37,37.71 -8.67,47.68l-1220.49 0c-26.01,0 -42.48,-10.83 -49.85,-32.51 -7.36,-21.67 -10.83,-51.14 -10.83,-88.41 -0.43,-16.04 -0.43,-27.31 0,-34.68 -0.43,-18.63 -0.43,-32.93 0,-43.34 0,-27.3 3.03,-47.67 8.67,-61.54 5.63,-13.44 19.5,-20.37 41.17,-20.37l855.13 0zm573.84 -1196.23l364.07 0 0 434.28 251.38 0 0 382.28 -251.38 0 0 719.03c0,38.58 6.93,72.82 20.37,101.42 13.87,29.04 35.97,58.51 66.31,88.85 57.64,57.65 125.69,86.68 203.7,86.68 26.01,0 46.38,0 60.68,0l0 353.67c-9.97,0 -21.24,0 -33.37,0 -12.57,0 -20.8,0 -25.14,0 -65.01,0 -128.72,-9.97 -190.7,-30.34 -76.72,-24.7 -161.23,-68.48 -253.55,-132.19 -56.34,-39.01 -104.89,-99.69 -145.19,-182.03 -44.65,-91.46 -67.18,-183.77 -67.18,-277.82l0 -1543.83z"/>
  <path class="fil1" d="M4884.3 2250c823.22,0 1568.64,335.91 2108.28,878.95 539.55,542.95 873.29,1292.9 873.29,2121.04 0,828.17 -333.73,1578.08 -873.29,2121.06 -539.64,543.04 -1285.06,878.95 -2108.28,878.95 -823.24,0 -1568.66,-335.91 -2108.3,-878.95 -539.56,-542.98 -873.29,-1292.89 -873.29,-2121.06 0,-828.14 333.73,-1578.08 873.31,-2121.04 539.63,-543.05 1285.04,-878.95 2108.28,-878.95z"/>
  <path class="fil2" d="M6001.21 5538.93c31.64,115.72 91.88,206.31 180.73,271.32 88.42,65.45 194.17,97.95 316.4,97.95 135.66,0 253.54,-48.97 353.66,-146.49 100.12,-97.52 150.4,-212.81 150.4,-345.87 0,-22.97 -0.87,-40.31 -2.17,-52.01 -16.03,-143.02 -75.85,-256.15 -179.87,-338.49 -92.31,-73.69 -202.4,-110.53 -329.39,-110.53 -72.38,0 -139.99,13.01 -203.71,38.58 -63.71,25.57 -117.88,63.71 -162.53,114.85l-247.04 -257.01c87.98,-89.72 180.73,-154.3 277.38,-194.6 96.65,-40.31 208.91,-60.68 335.9,-60.68 238.38,0 442.95,82.35 613.71,247.04 171.2,165.13 256.59,365.37 256.59,600.72 0,238.81 -82.79,442.08 -248.35,610.68 -165.13,168.6 -366.67,252.68 -603.31,252.68 -238.82,0 -447.29,-88.42 -625.42,-265.68 -178.57,-177.27 -267.85,-384.01 -267.85,-619.79 0,-26 0,-51.14 0,-75.84 4.33,-21.68 7.37,-37.71 8.67,-47.68l1220.49 0c26.01,0 42.48,10.83 49.85,32.51 7.36,21.67 10.83,51.14 10.83,88.41 0.43,16.04 0.43,27.31 0,34.68 0.43,18.63 0.43,32.93 0,43.34 0,27.3 -3.03,47.67 -8.67,61.54 -5.63,13.44 -19.5,20.37 -41.17,20.37l-855.13 0z"/>
  <path class="fil2" d="M5031.78 6108.7l369.3 0 0 -2704.83 -369.3 0 0 2704.83zm188.54 106.61c-69.79,0 -124.34,22.7 -163.41,67.18 -39.29,44.72 -58.95,97.52 -58.95,157.79 0,59.38 19.23,110.03 57.66,151.71 38.64,41.9 93.19,62.84 164.7,62.84 63.74,0 115.31,-23.03 154.32,-69.35 35.01,-41.59 52.43,-92.34 52.43,-151.71 0,-57.66 -18.43,-108.61 -55.47,-152.57 -36.99,-43.92 -87.54,-65.89 -151.28,-65.89z"/>
  <path class="fil2" d="M4413.54 6550l369.3 0 0 -2365.9 -369.3 0 0 2365.9zm188.53 106.62c-69.78,0 -124.34,22.7 -163.41,67.17 -39.28,44.73 -58.94,97.53 -58.94,157.79 0,59.38 19.23,110.03 57.65,151.71 38.64,41.9 93.2,62.85 164.7,62.85 63.74,0 115.31,-23.04 154.32,-69.36 35.02,-41.59 52.44,-92.33 52.44,-151.71 0,-57.65 -18.43,-108.61 -55.48,-152.57 -36.98,-43.92 -87.54,-65.88 -151.28,-65.88z"/>
  <path class="fil2" d="M3676.36 5723.69l0 445.98c-134.36,65.02 -267.42,97.52 -399.17,97.52 -202.41,0 -390.51,-74.55 -563.88,-223.21 -108.35,-92.75 -186.8,-191.13 -234.47,-296.02 -47.68,-104.89 -71.52,-230.14 -71.52,-376.2 0,-238.38 85.82,-441.65 257.02,-609.82 171.2,-168.6 376.2,-252.68 615.01,-252.68 244.02,0 453.79,82.78 628.89,248.35 174.66,165.56 262.21,367.97 262.21,608.08l0 839.09 -382.27 0 0 -849.49c0,-134.36 -50.71,-247.48 -152.56,-339.37 -101.85,-91.45 -222.34,-137.39 -361.03,-137.39 -138.26,0 -256.15,48.11 -352.8,144.76 -96.66,96.65 -145.2,214.54 -145.2,352.8 0,142.59 48.98,265.25 146.5,366.67 97.51,101.85 217.14,152.56 358.86,152.56 84.95,0 158.63,-13.43 219.75,-39.87 61.54,-26.44 119.62,-70.22 174.66,-131.76z"/>
  <path class="fil3" d="M3983.83 6709.57c-69.79,0 -124.4,-22.54 -163.41,-67.18 -39.44,-44.66 -58.95,-97.52 -58.95,-157.79 0,-59.37 19.08,-110.08 57.66,-151.7 38.58,-42.06 93.19,-62.85 164.7,-62.85 63.74,0 115.31,22.98 154.32,69.36 35.11,41.62 52.43,92.33 52.43,151.71 0,57.65 -18.61,108.36 -55.47,152.56 -37.26,43.78 -87.54,65.89 -151.28,65.89z"/>
 </g>
</svg>
