<?xml version="1.0" encoding="UTF-8"?><svg id="Layer_2" xmlns="http://www.w3.org/2000/svg" viewBox="0 0 540 540"><defs><style>.cls-1{fill:#ffffff00;}.cls-2{fill:#231f20;}.cls-3{fill:#2aade3;}</style></defs><g id="Isolation_Mode"><g><rect class="cls-1" width="540" height="540"/><g><g><path class="cls-2" d="M106.8,409.13h6.02c.26,4.69,4.51,8.05,11.86,8.05s11.86-3.54,11.86-8.23c0-5.31-5.57-5.93-11.86-6.72-7.88-.97-16.81-2.21-16.81-11.86,0-8.23,6.46-13.8,16.72-13.8s16.55,5.66,16.72,13.1h-5.84c-.27-4.34-4.25-7.7-10.97-7.7s-10.71,3.36-10.71,7.88c0,5.4,5.66,6.02,11.86,6.81,6.81,.89,16.9,1.95,16.9,11.86,0,8.32-6.99,14.07-17.87,14.07s-17.61-5.75-17.87-13.45Z"/><path class="cls-2" d="M147.94,399.57c0-13.27,9.73-23.01,23.54-23.01,11.33,0,19.91,6.55,22.48,16.28h-6.02c-2.39-6.55-8.49-10.8-16.46-10.8-10.44,0-17.52,7.43-17.52,17.52s7.08,17.52,17.52,17.52c7.96,0,14.07-4.25,16.46-10.79h6.02c-2.57,9.73-11.15,16.28-22.48,16.28-13.8,0-23.54-9.73-23.54-23.01Z"/><path class="cls-2" d="M199.26,399.57c0-13.27,9.73-23.01,23.54-23.01s23.54,9.73,23.54,23.01-9.73,23.01-23.54,23.01-23.54-9.73-23.54-23.01Zm41.06,0c0-10.09-7.08-17.52-17.52-17.52s-17.52,7.43-17.52,17.52,7.08,17.52,17.52,17.52,17.52-7.43,17.52-17.52Z"/><path class="cls-2" d="M251.47,399.57c0-13.27,9.73-23.01,23.54-23.01s23.54,9.73,23.54,23.01-9.73,23.01-23.54,23.01-23.54-9.73-23.54-23.01Zm41.06,0c0-10.09-7.08-17.52-17.52-17.52s-17.52,7.43-17.52,17.52,7.08,17.52,17.52,17.52,17.52-7.43,17.52-17.52Z"/><path class="cls-2" d="M305.45,405.33v-43.09h5.93v15.49h25.75v5.4h-25.75v22.21c0,7.96,4.42,11.77,11.24,11.77s11.24-3.72,11.24-11.77v-.97h5.75v.97c0,11.5-6.9,17.25-16.99,17.25s-17.17-5.75-17.17-17.25Z"/><path class="cls-2" d="M345.27,399.57c0-13.27,9.73-23.01,23.54-23.01s23.36,9.73,23.36,23.01v1.95h-40.79c.8,9.11,7.61,15.57,17.43,15.57,6.9,0,12.21-2.83,15.04-7.88h6.46c-3.36,8.05-11.33,13.36-21.5,13.36-13.8,0-23.54-9.73-23.54-23.01Zm40.7-3.36c-1.42-8.85-8.32-14.16-17.17-14.16s-15.93,5.57-17.25,14.16h34.42Z"/><path class="cls-2" d="M399.07,395.24c0-12.56,7.52-18.67,18.4-18.67s18.32,6.11,18.32,18.76v.53h-5.84v-.62c0-9.11-5.04-13.18-12.48-13.18s-12.48,4.07-12.48,13.18v26.19h-5.93v-26.19Z"/></g><g><path class="cls-3" d="M436.08,288.54c0,3.55-.32,6.97-.95,10.25-.14,.76-.31,1.51-.49,2.25-5.16,21.77-23.9,36.66-48.86,36.66-8.08,0-15.51-1.56-22.04-4.41-6.52-2.85-12.15-6.99-16.61-12.15-5.23,1.69-10.83,2.32-16.22,2-8.05-.53-15.38-2.85-22.22-6.33-.46-.24-.92-.49-1.38-.73-.01,.03-.03,.06-.05,.08-.25,.39-.5,.77-.76,1.15-.51,.75-1.04,1.48-1.59,2.19-.07,.09-.14,.18-.21,.27-.25,.31-.49,.62-.75,.92-.38,.47-.77,.92-1.18,1.37-.29,.32-.58,.63-.88,.95-.57,.6-1.16,1.18-1.77,1.75-.16,.15-.31,.3-.47,.43-.31,.29-.63,.57-.95,.84-.45,.4-.92,.78-1.39,1.15-.3,.24-.6,.47-.91,.7-.39,.3-.79,.59-1.2,.87-.37,.27-.75,.52-1.13,.77-.88,.59-1.78,1.14-2.71,1.66-.3,.17-.61,.34-.93,.5-.23,.13-.46,.26-.7,.37-.33,.17-.66,.34-1,.5-.93,.46-1.88,.88-2.85,1.27-.46,.19-.92,.37-1.38,.54-.44,.16-.87,.32-1.31,.47-.05,.02-.11,.03-.16,.05-.5,.17-1,.33-1.5,.48-.49,.15-.98,.29-1.48,.43-2.49,.67-5.07,1.17-7.76,1.49-.27,.04-.54,.07-.82,.09-.29,.04-.59,.07-.88,.09-1.01,.09-2.04,.16-3.08,.19-.31,.02-.61,.03-.92,.03-.46,.01-.92,.02-1.39,.02-29.5,0-50.3-20.8-50.3-49.16s20.8-49.17,50.3-49.17c.84,0,1.68,.02,2.51,.05,.76,.03,1.51,.08,2.26,.14,.28,.02,.56,.04,.83,.07,1.28,.12,2.53,.28,3.77,.48,.37,.06,.75,.12,1.12,.19,.24,.04,.47,.09,.71,.13,.3,.06,.6,.12,.89,.19,.23,.05,.46,.1,.68,.15,.34,.07,.68,.15,1.01,.24,.28,.07,.56,.14,.84,.21,6.99,1.86,13.17,5.06,18.31,9.34,.27,.22,.54,.46,.81,.69,.37,.32,.74,.65,1.1,1-4.86,4.27-9.15,9.82-13.03,16.81-.41,.73-.8,1.46-1.19,2.2l-.05,.09c-.69,1.34-1.36,2.74-2.03,4.24-1.39-2.28-3.21-4.23-5.38-5.77-.44-.32-.9-.62-1.38-.9-.46-.28-.94-.54-1.43-.78-.69-.34-1.42-.65-2.16-.91-.25-.09-.5-.18-.76-.26-.25-.08-.51-.16-.77-.23-.19-.06-.39-.11-.59-.16-.2-.05-.4-.1-.6-.14-.27-.06-.54-.12-.82-.17-.18-.03-.37-.07-.56-.1-.22-.03-.43-.06-.65-.09-.55-.08-1.12-.14-1.69-.17-.58-.04-1.16-.06-1.75-.06-12.86,0-21.56,9.26-21.56,22.69s8.7,22.69,21.56,22.69c.4,0,.8-.01,1.2-.03,.35,0,.7-.04,1.05-.07,.54-.04,1.07-.1,1.59-.19,.2-.02,.39-.06,.59-.09,.22-.04,.43-.08,.65-.13,.24-.04,.47-.09,.69-.15,.3-.07,.6-.15,.89-.23,.33-.09,.66-.19,.97-.3,.16-.05,.32-.1,.48-.16,.52-.19,1.04-.39,1.54-.62,.23-.1,.47-.21,.7-.33,.22-.1,.43-.21,.64-.32,.61-.33,1.19-.68,1.75-1.06,.26-.17,.51-.35,.75-.53,.46-.34,.9-.7,1.32-1.07,.16-.14,.32-.29,.47-.44,.19-.17,.37-.35,.56-.54,1.77-1.81,3.19-3.97,4.2-6.41h1.64c8.41,1.13,16.69,3.33,24.6,6.36,.28,.11,.58,.22,.87,.33,1.06,.4,2.16,.8,3.2,1.12,7.54,2.46,15.87,3.42,23.5,1.41l.09-.03c2.16-.57,4.26-1.39,6.27-2.47,.51-.29,1.01-.59,1.51-.9,3.37-2.05,6.5-4.46,9.39-7.14,2.89-2.69,5.54-5.64,7.92-8.79v.09c0,3.84,.71,7.33,2.03,10.37,1.02,2.36,2.4,4.44,4.1,6.19,3.77,3.88,9.09,6.13,15.42,6.13,10.85,0,18.74-6.6,20.94-16.72,.08-.38,.16-.76,.22-1.14,.26-1.54,.4-3.15,.4-4.83,0-12.24-7.23-21.02-18.26-22.47-.95-.13-1.93-.2-2.94-.22h-.36c-2.08,0-4.05,.24-5.89,.71-5.87,1.48-10.44,5.19-13.08,10.44-.02,0-.03,0-.05-.01-4.79-.71-9.46-1.98-14.07-3.45-2.4-.77-4.78-1.58-7.16-2.41-2.12-.73-4.24-1.46-6.36-2.16,0,0-.02,0-.03,0-4.43-1.48-8.89-2.8-13.46-3.68-.88-.16-1.75-.24-2.59-.24-.77,0-1.53,.07-2.28,.19-6.63,1.08-12.11,6.77-16.38,13.28-1.68,2.58-3.18,5.28-4.48,7.87l3.44,.73c10.54,2.16,21.47,3.21,32.15,1.86,.73-.09,1.46-.2,2.18-.31,4.86-.76,9.69-2.11,14.18-4.42,1.44-.75,3.02-1.7,4.26-2.78,.64-.55,1.44,.54,.81,1.17-5.89,5.33-13.42,8.34-21.28,9.96-7.73,1.59-15.77,1.83-22.88,1.61-4.44-.25-9.6-.79-13.98-1.43l-.63-.08h-.08c-.37-.09-.8-.21-1.16-.38-2.72-1.17-4.07-5.26-2.71-8.25,.93-2.29,1.95-4.57,3.07-6.74,.34-.64,.68-1.27,1.03-1.89,3.58-6.47,8-12.36,13.98-16.25,1.26-.83,2.61-1.53,4.02-2.08h0c3.31-1.32,6.95-1.85,10.4-1.38,2.53,.36,5.32,.78,7.79,1.35,3.2,.7,6.43,1.57,9.66,2.48,.03,0,.06,.01,.09,.02,6.48-9.21,16.24-15.85,28.15-18.67l-25.46-98.48h-31.35v-25h50.71l31.81,123.07c15.05,3.25,26.78,12.51,33.01,25.41l.49,1.35c2.87,6.36,4.43,13.54,4.43,21.29Z"/><path class="cls-3" d="M203.94,288.54c0-28.37-20.23-49.17-49.73-49.17s-50.29,20.8-50.29,49.17,20.8,49.16,50.29,49.16c23.26,0,41.04-12.86,47.09-32.15h-29.31c-3.6,5.11-9.65,6.81-17.78,6.81-10.21,0-18.53-4.92-20.8-15.88h70.53v-7.94Zm-69.96-10.03c2.84-9.45,10.4-13.8,20.23-13.8s17.4,4.16,20.61,13.8h-40.84Z"/></g></g></g></g></svg>