<svg xmlns="http://www.w3.org/2000/svg" version="1.1" xmlns:xlink="http://www.w3.org/1999/xlink" xmlns:svgjs="http://svgjs.dev/svgjs" width="2000" height="1500" viewBox="0 0 2000 1500"><rect width="2000" height="1500" fill="#ffffff00"></rect><g transform="matrix(0.75,0,0,0.75,249.090909090909,411.6168287459468)"><svg viewBox="0 0 396 179" data-background-color="#ffffff00" preserveAspectRatio="xMidYMid meet" height="904" width="2000" xmlns="http://www.w3.org/2000/svg" xmlns:xlink="http://www.w3.org/1999/xlink"><defs></defs><g id="tight-bounds" transform="matrix(1,0,0,1,0.2400000000000091,-0.16284988038211168)"><svg viewBox="0 0 395.52 179.32569994752737" height="179.32569994752737" width="395.52"><g><svg viewBox="0 0 397.4976 180.222328447265" height="179.32569994752737" width="395.52"><g><rect width="397.4976" height="5.519971889109763" x="0" y="99.04226904880804" fill="#96a2fb" opacity="1" stroke-width="0" stroke="transparent" fill-opacity="1" class="rect-o-0" data-fill-palette-color="secondary" rx="1%" id="o-0" data-palette-color="#96a2fb"></rect></g><g transform="matrix(1,0,0,1,0.9887999999999693,119.01242912930462)"><svg viewBox="0 0 395.52000000000004 61.20989931796037" height="61.20989931796037" width="395.52000000000004"><g><svg viewBox="0 0 395.52000000000004 61.20989931796037" height="61.20989931796037" width="395.52000000000004"><g><svg viewBox="0 0 395.52000000000004 61.20989931796037" height="61.20989931796037" width="395.52000000000004"><g transform="matrix(1,0,0,1,0,0)"><svg width="395.52000000000004" viewBox="4 -36.5 307.8699951171875 47.650001525878906" height="61.20989931796037" data-palette-color="#30017e"><path d="M28.65 0L4 0 4-35.5 9.6-35.5 9.6-4.95 28.65-4.95 28.65 0ZM44 0.5L44 0.5Q40.9 0.5 38.45-0.58 36-1.65 34.22-3.55 32.45-5.45 31.5-7.88 30.55-10.3 30.55-13.05L30.55-13.05Q30.55-15.8 31.5-18.25 32.45-20.7 34.22-22.58 36-24.45 38.47-25.53 40.95-26.6 44-26.6L44-26.6Q47.05-26.6 49.52-25.53 52-24.45 53.77-22.58 55.55-20.7 56.5-18.25 57.45-15.8 57.45-13.05L57.45-13.05Q57.45-10.3 56.5-7.88 55.55-5.45 53.77-3.55 52-1.65 49.52-0.58 47.05 0.5 44 0.5ZM36.2-13L36.2-13Q36.2-10.5 37.25-8.5 38.3-6.5 40.05-5.35 41.8-4.2 44-4.2L44-4.2Q46.15-4.2 47.92-5.38 49.7-6.55 50.75-8.58 51.8-10.6 51.8-13.05L51.8-13.05Q51.8-15.55 50.75-17.55 49.7-19.55 47.92-20.73 46.15-21.9 44-21.9L44-21.9Q41.8-21.9 40.05-20.7 38.3-19.5 37.25-17.53 36.2-15.55 36.2-13ZM60.45-7.65L60.45-7.65Q60.45-10.15 61.87-12.03 63.3-13.9 65.8-14.93 68.3-15.95 71.59-15.95L71.59-15.95Q73.34-15.95 75.17-15.7 77-15.45 78.4-14.9L78.4-14.9 78.4-16.55Q78.4-19.3 76.75-20.85 75.09-22.4 72-22.4L72-22.4Q69.8-22.4 67.84-21.63 65.89-20.85 63.7-19.45L63.7-19.45 61.84-23.15Q64.45-24.9 67.07-25.75 69.7-26.6 72.59-26.6L72.59-26.6Q77.84-26.6 80.87-23.83 83.9-21.05 83.9-15.95L83.9-15.95 83.9-6.2Q83.9-5.25 84.22-4.85 84.55-4.45 85.34-4.4L85.34-4.4 85.34 0Q84.59 0.15 84 0.2 83.4 0.25 83 0.25L83 0.25Q81.25 0.25 80.34-0.6 79.45-1.45 79.3-2.6L79.3-2.6 79.15-4.1Q77.45-1.9 74.8-0.7 72.15 0.5 69.45 0.5L69.45 0.5Q66.84 0.5 64.8-0.58 62.75-1.65 61.59-3.5 60.45-5.35 60.45-7.65ZM77.09-6.05L77.09-6.05Q77.7-6.7 78.05-7.35 78.4-8 78.4-8.5L78.4-8.5 78.4-11.5Q77-12.05 75.45-12.33 73.9-12.6 72.4-12.6L72.4-12.6Q69.4-12.6 67.52-11.4 65.64-10.2 65.64-8.1L65.64-8.1Q65.64-6.95 66.27-5.9 66.89-4.85 68.07-4.2 69.25-3.55 71-3.55L71-3.55Q72.8-3.55 74.45-4.25 76.09-4.95 77.09-6.05ZM113.99-15.95L113.99 0 108.49 0 108.49-14.65Q108.49-18.3 107.32-20 106.14-21.7 103.84-21.7L103.84-21.7Q102.24-21.7 100.67-20.9 99.09-20.1 97.84-18.73 96.59-17.35 96.04-15.55L96.04-15.55 96.04 0 90.54 0 90.54-26.15 95.54-26.15 95.54-20.9Q96.54-22.65 98.17-23.93 99.79-25.2 101.84-25.9 103.89-26.6 106.19-26.6L106.19-26.6Q108.54-26.6 110.07-25.75 111.59-24.9 112.47-23.43 113.34-21.95 113.67-20.03 113.99-18.1 113.99-15.95L113.99-15.95ZM142.14-35.5L142.14-30.55 130.34-30.55 130.34 0 124.69 0 124.69-30.55 112.84-30.55 112.84-35.5 142.14-35.5ZM157.59-26.35L157.59-21.4Q154.39-21.35 151.91-19.95 149.44-18.55 148.39-16L148.39-16 148.39 0 142.89 0 142.89-26.15 147.99-26.15 147.99-20.3Q149.34-23 151.54-24.63 153.74-26.25 156.19-26.4L156.19-26.4Q156.69-26.4 157.01-26.4 157.34-26.4 157.59-26.35L157.59-26.35ZM159.63-7.65L159.63-7.65Q159.63-10.15 161.06-12.03 162.48-13.9 164.98-14.93 167.48-15.95 170.78-15.95L170.78-15.95Q172.53-15.95 174.36-15.7 176.18-15.45 177.58-14.9L177.58-14.9 177.58-16.55Q177.58-19.3 175.93-20.85 174.28-22.4 171.18-22.4L171.18-22.4Q168.98-22.4 167.03-21.63 165.08-20.85 162.88-19.45L162.88-19.45 161.03-23.15Q163.63-24.9 166.26-25.75 168.88-26.6 171.78-26.6L171.78-26.6Q177.03-26.6 180.06-23.83 183.08-21.05 183.08-15.95L183.08-15.95 183.08-6.2Q183.08-5.25 183.41-4.85 183.73-4.45 184.53-4.4L184.53-4.4 184.53 0Q183.78 0.15 183.19 0.2 182.58 0.25 182.19 0.25L182.19 0.25Q180.44 0.25 179.53-0.6 178.63-1.45 178.48-2.6L178.48-2.6 178.33-4.1Q176.63-1.9 173.98-0.7 171.33 0.5 168.63 0.5L168.63 0.5Q166.03 0.5 163.98-0.58 161.93-1.65 160.78-3.5 159.63-5.35 159.63-7.65ZM176.28-6.05L176.28-6.05Q176.88-6.7 177.23-7.35 177.58-8 177.58-8.5L177.58-8.5 177.58-11.5Q176.18-12.05 174.63-12.33 173.08-12.6 171.58-12.6L171.58-12.6Q168.58-12.6 166.71-11.4 164.83-10.2 164.83-8.1L164.83-8.1Q164.83-6.95 165.46-5.9 166.08-4.85 167.26-4.2 168.43-3.55 170.18-3.55L170.18-3.55Q171.98-3.55 173.63-4.25 175.28-4.95 176.28-6.05ZM201.58 0.5L201.58 0.5Q198.53 0.5 196.06-0.58 193.58-1.65 191.78-3.55 189.98-5.45 189.01-7.9 188.03-10.35 188.03-13.1L188.03-13.1Q188.03-16.8 189.71-19.85 191.38-22.9 194.41-24.75 197.43-26.6 201.58-26.6L201.58-26.6Q205.58-26.6 208.56-24.83 211.53-23.05 212.93-20.1L212.93-20.1 207.58-18.4Q206.68-20.05 205.06-20.98 203.43-21.9 201.48-21.9L201.48-21.9Q199.28-21.9 197.51-20.78 195.73-19.65 194.71-17.68 193.68-15.7 193.68-13.1L193.68-13.1Q193.68-10.6 194.73-8.58 195.78-6.55 197.56-5.38 199.33-4.2 201.53-4.2L201.53-4.2Q202.88-4.2 204.16-4.67 205.43-5.15 206.38-5.98 207.33-6.8 207.73-7.8L207.73-7.8 213.13-6.2Q212.28-4.25 210.61-2.75 208.93-1.25 206.66-0.38 204.38 0.5 201.58 0.5ZM241.73 0L235.88 0 227.48-12.05 223.18-7.95 223.18 0 217.68 0 217.68-36.5 223.18-36.5 223.18-13.5 235.28-26.1 241.18-26.1 231.03-15.15 241.73 0ZM250.58 0L245.08 0 245.08-26.15 250.58-26.15 250.58 0ZM250.58-30.45L245.08-30.45 245.08-36.5 250.58-36.5 250.58-30.45ZM280.63-15.95L280.63 0 275.13 0 275.13-14.65Q275.13-18.3 273.95-20 272.77-21.7 270.48-21.7L270.48-21.7Q268.88-21.7 267.3-20.9 265.73-20.1 264.48-18.73 263.23-17.35 262.68-15.55L262.68-15.55 262.68 0 257.18 0 257.18-26.15 262.18-26.15 262.18-20.9Q263.18-22.65 264.8-23.93 266.43-25.2 268.48-25.9 270.52-26.6 272.82-26.6L272.82-26.6Q275.18-26.6 276.7-25.75 278.23-24.9 279.1-23.43 279.98-21.95 280.3-20.03 280.63-18.1 280.63-15.95L280.63-15.95ZM297.37 0.25L297.37 0.25Q294.72 0.25 292.52-0.83 290.32-1.9 288.75-3.75 287.17-5.6 286.3-8 285.42-10.4 285.42-13.05L285.42-13.05Q285.42-15.85 286.32-18.3 287.22-20.75 288.85-22.63 290.47-24.5 292.67-25.55 294.87-26.6 297.57-26.6L297.57-26.6Q300.72-26.6 303.1-25.1 305.47-23.6 307.02-21.2L307.02-21.2 307.02-26.15 311.87-26.15 311.87-0.75Q311.87 3.05 310.05 5.7 308.22 8.35 305.07 9.75 301.92 11.15 297.97 11.15L297.97 11.15Q293.62 11.15 290.77 9.65 287.92 8.15 285.92 5.55L285.92 5.55 289.02 2.65Q290.52 4.75 292.9 5.85 295.27 6.95 297.97 6.95L297.97 6.95Q300.22 6.95 302.15 6.13 304.07 5.3 305.22 3.58 306.37 1.85 306.37-0.75L306.37-0.75 306.37-4.75Q304.97-2.4 302.52-1.07 300.07 0.25 297.37 0.25ZM299.17-4.2L299.17-4.2Q300.42-4.2 301.57-4.63 302.72-5.05 303.7-5.78 304.67-6.5 305.37-7.43 306.07-8.35 306.37-9.4L306.37-9.4 306.37-16.25Q305.72-17.95 304.52-19.23 303.32-20.5 301.82-21.2 300.32-21.9 298.77-21.9L298.77-21.9Q296.97-21.9 295.55-21.13 294.12-20.35 293.12-19.07 292.12-17.8 291.57-16.2 291.02-14.6 291.02-12.9L291.02-12.9Q291.02-11.1 291.65-9.55 292.27-8 293.37-6.78 294.47-5.55 295.97-4.88 297.47-4.2 299.17-4.2Z" opacity="1" transform="matrix(1,0,0,1,0,0)" fill="#30017e" class="undefined-text-0" data-fill-palette-color="primary" id="text-0"></path></svg></g></svg></g></svg></g></svg></g><g transform="matrix(1,0,0,1,145.56179369960657,0)"><svg viewBox="0 0 106.37401260078684 84.59208085742122" height="84.59208085742122" width="106.37401260078684"><g><svg xmlns="http://www.w3.org/2000/svg" xmlns:xlink="http://www.w3.org/1999/xlink" version="1.1" x="8" y="0" viewBox="5 7.879000186920166 90 84.24199676513672" enable-background="new 0 0 100 100" xml:space="preserve" height="84.59208085742122" width="90.37401260078684" class="icon-icon-0" data-fill-palette-color="accent" id="icon-0"><path d="M87.397 79.588v-6.574h-6.37V44.937h11.299l0.622-9.934L49.998 7.879 7.057 35.001l0.613 9.935h11.304v28.078h-6.371v6.574H5v12.533h44.998H95V79.588H87.397zM28.53 73.014V44.937h6.679v28.077H28.53zM49.998 73.014h-5.237V44.937h5.237 5.24v28.077H49.998zM64.794 73.014V44.937h6.68v28.077H64.794z" fill="#fb806f" data-fill-palette-color="accent"></path></svg></g></svg></g><g><rect width="69.02867369960657" height="5.519971889109763" y="78.07210896831145" x="251.9358063003934" fill="#96a2fb" data-fill-palette-color="secondary"></rect><rect width="69.02867369960657" height="5.519971889109763" y="78.07210896831145" x="76.53312" fill="#96a2fb" data-fill-palette-color="secondary"></rect></g></svg></g></svg><rect width="395.52" height="179.32569994752737" fill="none" stroke="none" visibility="hidden"></rect></g></svg></g></svg>