<svg width="137" height="23" viewBox="0 0 137 23" fill="none" xmlns="http://www.w3.org/2000/svg">
<path d="M18.4385 0.671875V22H13.3115L5.76758 8.72852V22H0.625977V0.671875H5.76758L13.3115 13.9434V0.671875H18.4385ZM37.8682 18.0449V22H26.501V18.0449H37.8682ZM28.332 0.671875V22H23.1904V0.671875H28.332ZM36.4033 9.13867V12.9619H26.501V9.13867H36.4033ZM37.9121 0.671875V4.6416H26.501V0.671875H37.9121ZM59.5244 10.9111V11.7754C59.5244 13.4062 59.2949 14.8711 58.8359 16.1699C58.3867 17.459 57.7471 18.5625 56.917 19.4805C56.0869 20.3887 55.1055 21.0869 53.9727 21.5752C52.8398 22.0537 51.5898 22.293 50.2227 22.293C48.8457 22.293 47.5859 22.0537 46.4434 21.5752C45.3105 21.0869 44.3242 20.3887 43.4844 19.4805C42.6543 18.5625 42.0098 17.459 41.5508 16.1699C41.1016 14.8711 40.877 13.4062 40.877 11.7754V10.9111C40.877 9.28027 41.1016 7.81543 41.5508 6.5166C42.0098 5.21777 42.6494 4.11426 43.4697 3.20605C44.2998 2.28809 45.2812 1.58984 46.4141 1.11133C47.5566 0.623047 48.8164 0.378906 50.1934 0.378906C51.5605 0.378906 52.8105 0.623047 53.9434 1.11133C55.0859 1.58984 56.0723 2.28809 56.9023 3.20605C57.7324 4.11426 58.377 5.21777 58.8359 6.5166C59.2949 7.81543 59.5244 9.28027 59.5244 10.9111ZM54.3096 11.7754V10.8818C54.3096 9.82715 54.2168 8.89941 54.0312 8.09863C53.8555 7.28809 53.5918 6.60937 53.2402 6.0625C52.8887 5.51563 52.4541 5.10547 51.9365 4.83203C51.4287 4.54883 50.8477 4.40723 50.1934 4.40723C49.5098 4.40723 48.9141 4.54883 48.4062 4.83203C47.8984 5.10547 47.4736 5.51563 47.1318 6.0625C46.79 6.60937 46.5312 7.28809 46.3555 8.09863C46.1895 8.89941 46.1064 9.82715 46.1064 10.8818V11.7754C46.1064 12.8203 46.1895 13.748 46.3555 14.5586C46.5312 15.3594 46.79 16.0381 47.1318 16.5947C47.4834 17.1514 47.9131 17.5713 48.4209 17.8545C48.9385 18.1377 49.5391 18.2793 50.2227 18.2793C50.877 18.2793 51.458 18.1377 51.9658 17.8545C52.4736 17.5713 52.8984 17.1514 53.2402 16.5947C53.5918 16.0381 53.8555 15.3594 54.0312 14.5586C54.2168 13.748 54.3096 12.8203 54.3096 11.7754ZM72.1133 11.7461H66.1074L66.0781 10.2227H71.249C72.3037 10.2227 73.2021 10.0713 73.9443 9.76855C74.6865 9.46582 75.248 9.0166 75.6289 8.4209C76.0195 7.81543 76.2148 7.07324 76.2148 6.19434C76.2148 5.2959 76.0244 4.55371 75.6436 3.96777C75.2627 3.37207 74.6914 2.93262 73.9297 2.64941C73.168 2.36621 72.2109 2.22461 71.0586 2.22461H66.5762V22H64.7744V0.671875H71.0586C72.1426 0.671875 73.1143 0.779297 73.9736 0.994141C74.833 1.20898 75.5654 1.5459 76.1709 2.00488C76.7764 2.46387 77.2354 3.04492 77.5479 3.74805C77.8701 4.44141 78.0312 5.27148 78.0312 6.23828C78.0312 7.11719 77.8359 7.91309 77.4453 8.62598C77.0547 9.3291 76.5029 9.90527 75.79 10.3545C75.0869 10.7939 74.2422 11.0674 73.2559 11.1748L72.1133 11.7461ZM71.9814 22H65.5361L66.459 20.4619H71.9814C73.0361 20.4619 73.9346 20.2861 74.6768 19.9346C75.4287 19.5732 76.0049 19.0605 76.4053 18.3965C76.8057 17.7324 77.0059 16.9414 77.0059 16.0234C77.0059 15.2129 76.8301 14.4854 76.4785 13.8408C76.127 13.1963 75.5898 12.6885 74.8672 12.3174C74.1445 11.9365 73.2266 11.7461 72.1133 11.7461H68.3779L68.4072 10.2227H73.6953L74.0176 10.7646C74.9746 10.8623 75.8096 11.1602 76.5225 11.6582C77.2451 12.1465 77.8018 12.7666 78.1924 13.5186C78.5928 14.2705 78.793 15.0957 78.793 15.9941C78.793 17.2832 78.5049 18.377 77.9287 19.2754C77.3623 20.1641 76.5664 20.8428 75.541 21.3115C74.5254 21.7705 73.3389 22 71.9814 22ZM83.6328 0.671875L90.0928 12.2881L96.6113 0.671875H98.6914L91.001 13.958V22H89.1992V13.958L81.4941 0.671875H83.6328ZM110.724 0.671875V22H108.937V0.671875H110.724ZM118.033 0.671875V2.22461H101.642V0.671875H118.033ZM136.262 20.4619V22H124.265V20.4619H136.262ZM124.807 0.671875V22H123.005V0.671875H124.807ZM134.768 10.2373V11.7754H124.265V10.2373H134.768ZM136.188 0.671875V2.22461H124.265V0.671875H136.188Z" fill="white"/>
</svg>
