<svg xmlns="http://www.w3.org/2000/svg" version="1.1" xmlns:xlink="http://www.w3.org/1999/xlink" xmlns:svgjs="http://svgjs.dev/svgjs" width="2000" height="1500" viewBox="0 0 2000 1500">
	<rect width="2000" height="1500" fill="#ffffff00">
	</rect>
	<g transform="matrix(0.4434589800443459,0,0,0.4434589800443459,556.7989505927578,250.40485829959516)">
		<svg viewBox="0 0 219 247" data-background-color="#ffffff00" preserveAspectRatio="xMidYMid meet" height="2255" width="2000" xmlns="http://www.w3.org/2000/svg" xmlns:xlink="http://www.w3.org/1999/xlink">
			<defs>
			</defs>
			<g id="tight-bounds" transform="matrix(1,0,0,1,-0.06368887774024756,-0.09999999999999432)">
				<svg viewBox="0 0 219.1273718218186 247.2" height="247.2" width="219.1273718218186">
					<g>
						<svg viewBox="0 0 395.52 446.1904653312906" height="247.2" width="219.1273718218186">
							<g transform="matrix(1,0,0,1,0,289.6670225628789)">
								<svg viewBox="0 0 395.52 156.5234427684117" height="156.5234427684117" width="395.52">
									<g>
										<svg viewBox="0 0 395.52 156.5234427684117" height="156.5234427684117" width="395.52">
											<g>
												<svg viewBox="0 0 395.52 156.5234427684117" height="156.5234427684117" width="395.52">
													<g transform="matrix(1,0,0,1,0,0)">
														<svg width="395.52" viewBox="2 -35.900001525878906 112.69999694824219 44.60000228881836" height="156.5234427684117" data-palette-color="#1c4b82">
															<path d="M13.05 0L6 0 5-6.3Q3.6-8.05 2.8-10.8 2-13.55 2-17.65L2-17.65Q2-23.2 3.43-26.75 4.85-30.3 7.28-32.3 9.7-34.3 12.73-35.08 15.75-35.85 18.95-35.85L18.95-35.85Q22.15-35.85 25.18-35.05 28.2-34.25 30.63-32.25 33.05-30.25 34.48-26.7 35.9-23.15 35.9-17.65L35.9-17.65Q35.9-13.35 35-10.5 34.1-7.65 32.5-5.9L32.5-5.9Q31.7-4.95 30.7-4.3 29.7-3.65 28.55-3.2L28.55-3.2 28.6-2.95 32.5-1.95 39.35 1.1 34.85 8.7Q34.85 8.7 33.6 8.08 32.35 7.45 30.4 6.5 28.45 5.55 26.38 4.53 24.3 3.5 22.63 2.7 20.95 1.9 20.25 1.55L20.25 1.55Q18.5 0.7 17 0.35 15.5 0 13.05 0L13.05 0ZM14.95-7.95L14.95-7.95 18.9-7.95Q22.9-7.95 24.68-10.43 26.45-12.9 26.45-17.65L26.45-17.65Q26.45-22.95 24.55-25.15 22.65-27.35 18.95-27.35L18.95-27.35Q15.3-27.35 13.4-25.1 11.5-22.85 11.5-17.65L11.5-17.65Q11.5-15.3 12.03-13.3 12.55-11.3 13.35-9.9 14.15-8.5 14.95-7.95ZM51.45 0L41.85 0 41.85-27.35 40.85-32.35 41.9-35.35 51.45-35.35 61.25-16.35 62.25-16.35 70.35-35.35 80.3-35.35 80.8-32.35 80.3-27.55 80.3 0 71.25 0 71.4-4.25 71.4-18.2 70.85-18.2 68.85-13.4 64.35-5 58.35-5 51.45-18.2 50.95-18.2 50.95-14.15 51.45 0ZM99.3 0.5L99.3 0.5Q96.55 0.5 94.1-0.03 91.65-0.55 89.85-1.3 88.05-2.05 87.2-2.7L87.2-2.7 87.2-11.65Q89.6-10.3 93.25-9.13 96.9-7.95 101.35-7.95L101.35-7.95Q103.15-7.95 104.02-8.43 104.9-8.9 104.9-10.1L104.9-10.1Q104.9-11.4 102.92-12.28 100.95-13.15 96.7-14.45L96.7-14.45Q93.4-15.5 91.07-16.78 88.75-18.05 87.52-19.98 86.3-21.9 86.3-24.9L86.3-24.9Q86.3-28 87.9-30.5 89.5-33 92.9-34.45 96.3-35.9 101.6-35.9L101.6-35.9Q103.2-35.9 105.02-35.77 106.85-35.65 107.95-35.45L107.95-35.45 113.6-31.3 111.65-25.2 99.8-28.45Q97.75-28.45 96.77-27.6 95.8-26.75 95.8-25.55L95.8-25.55Q95.8-24.1 97.45-23.25 99.1-22.4 102.2-21.55L102.2-21.55Q107.1-20.2 109.8-18.55 112.5-16.9 113.6-14.83 114.7-12.75 114.7-10.15L114.7-10.15Q114.7-5.35 110.85-2.43 107 0.5 99.3 0.5Z" opacity="1" transform="matrix(1,0,0,1,0,0)" fill="#1c4b82" class="undefined-text-0" data-fill-palette-color="primary" id="text-0">
															</path>
														</svg>
													</g>
												</svg>
											</g>
										</svg>
									</g>
								</svg>
							</g>
							<g transform="matrix(1,0,0,1,89.8779169935561,0)">
								<svg viewBox="0 0 215.76416601288778 215.76416601288778" height="215.76416601288778" width="215.76416601288778">
									<g>
										<svg>
										</svg>
									</g>
									<g id="icon-0">
										<svg viewBox="0 0 215.76416601288778 215.76416601288778" height="215.76416601288778" width="215.76416601288778">
											<g>
												<path d="M0 107.882c0-59.582 48.3-107.882 107.882-107.882 59.582 0 107.882 48.3 107.882 107.882 0 59.582-48.3 107.882-107.882 107.882-59.582 0-107.882-48.3-107.882-107.882zM107.882 201.649c51.786 0 93.767-41.981 93.767-93.767 0-51.786-41.981-93.767-93.767-93.767-51.786 0-93.767 41.981-93.767 93.767 0 51.786 41.981 93.767 93.767 93.767z" data-fill-palette-color="accent" fill="#1c4b82" stroke="transparent">
												</path>
											</g>
											<g transform="matrix(1,0,0,1,56.066911170552174,58.88344714813407)">
												<svg viewBox="0 0 103.63034367178344 97.99727171661965" height="97.99727171661965" width="103.63034367178344">
													<g>
														<svg xmlns="http://www.w3.org/2000/svg" xmlns:xlink="http://www.w3.org/1999/xlink" version="1.1" x="0" y="0" viewBox="9.96595573425293 13.53499984741211 129.9962615966797 122.93000793457031" enable-background="new 0 0 150 150" xml:space="preserve" height="97.99727171661965" width="103.63034367178344" class="icon-x-0" data-fill-palette-color="accent" id="x-0">
															<g fill="#1c4b82" data-fill-palette-color="accent">
																<path d="M29.54 45.599c-4.902 0-8.883 3.99-8.883 8.889 0 4.906 3.981 8.889 8.883 8.889 1.801 0 3.479-0.54 4.881-1.464l0.081-0.426c0.391-2.337 1.82-4.253 3.768-5.322 0.104-0.543 0.161-1.103 0.161-1.676C38.429 49.589 34.439 45.599 29.54 45.599zM37.375 94.766c-4.124 0-7.479-3.358-7.479-7.485 0-0.195 0.01-0.38 0.024-0.557-0.044-0.407-0.027-0.579 0.051-0.974L33.739 66H18.155c-2.046 0-3.763 1.242-4.084 3.23L9.986 90.771c-0.036 0.173-0.021 0.287 0.025 0.446-0.025 0.203-0.045 0.364-0.045 0.551 0 2.295 1.863 4.142 4.151 4.142 2.005 0 3.718-1.441 4.084-3.433l2.574-16.083-0.036 55.922c0 2.289 2.125 4.149 4.411 4.149 1.535 0 2.851-0.842 3.851-2.081v-32.528c0-0.528 0.472-0.957 1.001-0.957 0.528 0 0.999 0.429 0.999 0.957v32.152c0 1.446 1.802 2.456 3.488 2.456 2.287 0 4.004-1.866 4.004-4.151l-0.094-37.616C38.083 94.738 37.7 94.766 37.375 94.766z" fill="#1c4b82" data-fill-palette-color="accent">
																</path>
																<path d="M54.514 36.016c-5.446 0-9.872 4.434-9.872 9.877 0 5.452 4.425 9.876 9.872 9.876 2.171 0 4.181-0.706 5.813-1.897l0.012-0.065c0.395-2.358 1.804-4.312 3.745-5.466 0.2-0.783 0.307-1.602 0.307-2.447C64.392 40.449 59.958 36.016 54.514 36.016zM63.219 90.331c-4.406 0-7.992-3.586-7.992-7.993 0-0.214 0.012-0.417 0.029-0.61-0.049-0.423-0.033-0.922 0.049-1.337L59.518 58H41.864c-2.274 0-4.182 1.721-4.539 3.931l-4.539 24.104c-0.041 0.195-0.022 0.404 0.028 0.582-0.028 0.227-0.05 0.449-0.05 0.655 0 2.55 2.07 4.622 4.611 4.622 2.229 0 4.131-1.59 4.539-3.803l2.861-17.863-0.042 61.623c0 2.545 1.903 4.613 4.445 4.613 1.705 0 3.821-0.933 3.821-2.311V98.523c0-0.587 0.913-1.063 1.501-1.063 0.587 0 1.499 0.477 1.499 1.063v35.213c0 1.607 2.069 2.729 3.943 2.729 2.54 0 4.483-2.072 4.483-4.611l-0.087-41.595C63.99 90.307 63.58 90.331 63.219 90.331z" fill="#1c4b82" data-fill-palette-color="accent">
																</path>
																<path d="M82.262 25.368c-6.052 0-10.968 4.927-10.968 10.974 0 6.057 4.917 10.974 10.968 10.974 2.58 0 4.954-0.897 6.83-2.393 0.452-2.339 1.822-4.291 3.704-5.513 0.284-0.974 0.439-2.003 0.439-3.068C93.235 30.295 88.31 25.368 82.262 25.368zM91.935 85.397c-4.72 0-8.56-3.843-8.56-8.567 0-0.242 0.013-0.472 0.032-0.689-0.058-0.457-0.041-0.895 0.049-1.341L88.139 50H68.206c-2.525 0-4.644 1.809-5.042 4.266l-5.043 26.73c-0.044 0.215-0.025 0.423 0.032 0.622-0.032 0.25-0.057 0.485-0.057 0.714 0 2.834 2.301 5.129 5.124 5.129 2.477 0 4.591-1.769 5.044-4.228l3.178-19.851-0.046 67.959c0 2.826 2.325 5.123 5.147 5.123 1.895 0 3.457-1.036 4.457-2.568V94.821c0-0.653 0.846-1.183 1.5-1.183 0.652 0 1.5 0.529 1.5 1.183v38.612c0 1.784 2.256 3.031 4.337 3.031 2.824 0 4.96-2.303 4.96-5.124l-0.108-46.028C92.801 85.367 92.335 85.397 91.935 85.397z" fill="#1c4b82" data-fill-palette-color="accent">
																</path>
																<path d="M113.106 37.922c6.72 0 12.192-5.463 12.192-12.193 0-6.719-5.473-12.194-12.192-12.194-6.726 0-12.188 5.475-12.188 12.194C100.919 32.459 106.381 37.922 113.106 37.922zM139.895 76.034c0.069-0.22 0.084-0.454 0.04-0.693l-5.597-29.675c-0.447-2.766-2.803-4.794-5.609-4.794h-31.24c-2.807 0-5.161 2.029-5.603 4.756l-5.604 29.71c-0.051 0.24-0.027 0.475 0.034 0.695-0.034 0.277-0.062 0.541-0.062 0.798 0 3.147 2.556 5.699 5.692 5.699 2.751 0 5.102-1.967 5.603-4.698l3.533-22.057-0.051 74.998c0 3.141 2.618 5.692 5.756 5.692 2.105 0 3.86-1.151 4.985-2.853V90.707c0-0.726 0.589-1.314 1.314-1.314s1.313 0.589 1.313 1.314v42.389c0.75 1.984 2.824 3.369 5.137 3.369 3.138 0 5.67-2.56 5.67-5.692l-0.06-74.998 3.531 22.083c0.498 2.706 2.837 4.673 5.582 4.673 3.143 0 5.703-2.552 5.703-5.7C139.965 76.575 139.935 76.312 139.895 76.034z" fill="#1c4b82" data-fill-palette-color="accent">
																</path>
															</g>
														</svg>
													</g>
												</svg>
											</g>
										</svg>
									</g>
								</svg>
							</g>
							<g>
							</g>
						</svg>
					</g>
				</svg>
				<rect width="219.1273718218186" height="247.2" fill="none" stroke="none" visibility="hidden">
				</rect>
			</g>
		</svg>
	</g>
</svg>
