<svg width="8" height="14" viewBox="0 0 8 14" fill="none" xmlns="http://www.w3.org/2000/svg">
<path d="M5.7734 0C4.8066 0 3.8794 0.3738 3.19577 1.03917C2.51214 1.70454 2.12808 2.60697 2.12808 3.54795V5.52329H0.17734C0.0793976 5.52329 0 5.60056 0 5.69589V8.30411C0 8.39944 0.0793977 8.47671 0.17734 8.47671H2.12808V13.8274C2.12808 13.9227 2.20748 14 2.30542 14H4.98522C5.08316 14 5.16256 13.9227 5.16256 13.8274V8.47671H7.13058C7.21196 8.47671 7.28289 8.42281 7.30262 8.34597L7.97257 5.73775C8.00056 5.62882 7.9159 5.52329 7.80053 5.52329H5.16256V3.54795C5.16256 3.39027 5.22692 3.23905 5.34147 3.12756C5.45603 3.01606 5.61139 2.95342 5.7734 2.95342H7.82266C7.9206 2.95342 8 2.87615 8 2.78082V0.172603C8 0.077277 7.9206 0 7.82266 0H5.7734Z" fill="white"/>
</svg>
