<svg width="51" height="62" viewBox="0 0 51 62" fill="none" xmlns="http://www.w3.org/2000/svg">
<path fill-rule="evenodd" clip-rule="evenodd" d="M32.9032 0.794871C32.9032 0.355876 32.5349 0 32.0806 0H9.04839C4.0511 0 0 3.91464 0 8.74359V53.2564C0 58.0854 4.0511 62 9.04839 62H41.9516C46.9489 62 51 58.0854 51 53.2564V21.9291C51 21.4901 50.6317 21.1342 50.1774 21.1342H35.371C34.0081 21.1342 32.9032 20.0666 32.9032 18.7496V0.794871ZM35.371 31.7949C36.7339 31.7949 37.8387 32.8625 37.8387 34.1795C37.8387 35.4965 36.7339 36.5641 35.371 36.5641H15.629C14.2661 36.5641 13.1613 35.4965 13.1613 34.1795C13.1613 32.8625 14.2661 31.7949 15.629 31.7949H35.371ZM35.371 44.5128C36.7339 44.5128 37.8387 45.5805 37.8387 46.8974C37.8387 48.2144 36.7339 49.2821 35.371 49.2821H15.629C14.2661 49.2821 13.1613 48.2144 13.1613 46.8974C13.1613 45.5805 14.2661 44.5128 15.629 44.5128H35.371Z" fill="#00B3DB" fill-opacity="0.1"/>
<path d="M37.8387 1.82546C37.8387 1.23885 38.4726 0.866396 38.9449 1.23487C39.3427 1.54523 39.7004 1.90883 40.0055 2.31959L49.9197 15.6668C50.1454 15.9706 49.901 16.365 49.5139 16.365H38.6613C38.207 16.365 37.8387 16.0091 37.8387 15.5701V1.82546Z" fill="#00B3DB" fill-opacity="0.1"/>
</svg>
