<svg width="32" height="27" viewBox="0 0 32 27" fill="none" xmlns="http://www.w3.org/2000/svg">
<path d="M9.41714 0C4.33215 0 0 3.8718 0 8.90031C0 12.3693 1.59515 15.2898 3.70924 17.7091C5.81607 20.12 8.53421 22.1437 10.9915 23.8375L15.2312 26.76C15.6956 27.08 16.3044 27.08 16.7688 26.76L21.0085 23.8375C23.4658 22.1437 26.1839 20.12 28.2908 17.7091C30.4049 15.2898 32 12.3693 32 8.90031C32 3.8718 27.6679 0 22.5829 0C19.9617 0 17.6551 1.25157 16 2.871C14.3449 1.25157 12.0383 0 9.41714 0Z" fill="#FF0000"/>
</svg>
