<svg width="68" height="62" viewBox="0 0 68 62" fill="none" xmlns="http://www.w3.org/2000/svg">
<path d="M36.8246 1.6219C35.5661 -0.54063 32.434 -0.540638 31.1754 1.6219L22.3123 16.8516C21.6906 17.9199 20.6161 18.6489 19.3913 18.8334L2.78118 21.3348C-0.00859571 21.7549 -0.987176 25.2669 1.18547 27.0617L13.5593 37.2833C14.7047 38.2295 15.2432 39.7219 14.965 41.1788L11.7282 58.1272C11.2165 60.8064 14.0374 62.8881 16.4577 61.6174L32.0982 53.4061C33.2886 52.7812 34.7114 52.7811 35.9018 53.4061L51.5423 61.6174C53.9627 62.8881 56.7835 60.8064 56.2718 58.1272L53.035 41.1788C52.7568 39.7219 53.2953 38.2295 54.4407 37.2833L66.8145 27.0617C68.9872 25.267 68.0086 21.7549 65.2188 21.3348L48.6088 18.8334C47.3839 18.6489 46.3094 17.9199 45.6877 16.8516L36.8246 1.6219Z" fill="#00B3DB" fill-opacity="0.1"/>
</svg>
